<?xml version="1.0" encoding="UTF-8" standalone="no"?>
<!-- Created with Inkscape (http://www.inkscape.org/) -->

<svg
   xmlns:dc="http://purl.org/dc/elements/1.1/"
   xmlns:cc="http://creativecommons.org/ns#"
   xmlns:rdf="http://www.w3.org/1999/02/22-rdf-syntax-ns#"
   xmlns:svg="http://www.w3.org/2000/svg"
   xmlns="http://www.w3.org/2000/svg"
   xmlns:xlink="http://www.w3.org/1999/xlink"
   xmlns:sodipodi="http://sodipodi.sourceforge.net/DTD/sodipodi-0.dtd"
   xmlns:inkscape="http://www.inkscape.org/namespaces/inkscape"
   width="210mm"
   height="297mm"
   viewBox="0 0 744.09448819 1052.3622047"
   id="svg5726"
   version="1.1"
   inkscape:version="0.91 r"
   sodipodi:docname="van.svg">
  <sodipodi:namedview
     id="base"
     pagecolor="#ffffff"
     bordercolor="#666666"
     borderopacity="1.0"
     inkscape:pageopacity="0.0"
     inkscape:pageshadow="2"
     inkscape:zoom="0.49497475"
     inkscape:cx="165.93787"
     inkscape:cy="728.9631"
     inkscape:document-units="px"
     inkscape:current-layer="layer1"
     showgrid="false"
     inkscape:window-width="1368"
     inkscape:window-height="713"
     inkscape:window-x="0"
     inkscape:window-y="30"
     inkscape:window-maximized="1" />
  <defs
     id="defs5728">
    <linearGradient
       id="linearGradient692"
       spreadMethod="pad"
       gradientTransform="matrix(-17.51749,-83.465748,-83.465748,17.51749,533.24027,484.65422)"
       gradientUnits="userSpaceOnUse"
       y2="0"
       x2="1"
       y1="0"
       x1="0">
      <stop
         id="stop8116"
         offset="0"
         style="stop-opacity:1;stop-color:#092163" />
      <stop
         id="stop8122"
         offset="1"
         style="stop-opacity:1;stop-color:#2a4292" />
    </linearGradient>
    <linearGradient
       x1="0"
       y1="0"
       x2="0.8396579"
       y2="-0.015756337"
       gradientUnits="userSpaceOnUse"
       gradientTransform="matrix(334.88967,-74.191113,-74.191094,-334.88967,163.95072,518.84002)"
       spreadMethod="pad"
       id="linearGradient724">
      <stop
         style="stop-opacity:1;stop-color:#22367a"
         offset="0"
         id="stop726" />
      <stop
         style="stop-opacity:1;stop-color:#0a1955"
         offset="0.33570993"
         id="stop728" />
      <stop
         style="stop-opacity:1;stop-color:#22367a"
         offset="1"
         id="stop736" />
    </linearGradient>
    <linearGradient
       inkscape:collect="always"
       xlink:href="#linearGradient6117"
       id="linearGradient5121"
       gradientUnits="userSpaceOnUse"
       gradientTransform="matrix(0.53756609,0,0,1.0269443,819.99999,130.93354)"
       x1="333.75439"
       y1="388.49979"
       x2="333.75439"
       y2="0" />
    <linearGradient
       inkscape:collect="always"
       id="linearGradient6117">
      <stop
         style="stop-color:#040a22;stop-opacity:1"
         offset="0"
         id="stop6119" />
      <stop
         style="stop-color:#091a51;stop-opacity:1"
         offset="1"
         id="stop6121" />
    </linearGradient>
    <linearGradient
       inkscape:collect="always"
       xlink:href="#linearGradient692"
       id="linearGradient8194"
       x1="239.40112"
       y1="431.50763"
       x2="257.45224"
       y2="245.63956"
       gradientUnits="userSpaceOnUse" />
    <linearGradient
       x1="0"
       y1="0"
       x2="1"
       y2="0"
       gradientUnits="userSpaceOnUse"
       gradientTransform="matrix(4.2090606,-98.216552,-98.216534,-4.2090606,300.6707,401.33514)"
       spreadMethod="pad"
       id="linearGradient348-195-298">
      <stop
         style="stop-opacity:1;stop-color:#9a9c9e"
         offset="0"
         id="stop9485" />
      <stop
         style="stop-opacity:1;stop-color:#9a9c9e"
         offset="0.12553015"
         id="stop9487" />
      <stop
         style="stop-opacity:1;stop-color:#6d6e71"
         offset="1"
         id="stop9489" />
    </linearGradient>
    <linearGradient
       x1="0"
       y1="0"
       x2="1"
       y2="0"
       gradientUnits="userSpaceOnUse"
       gradientTransform="matrix(-40.157471,0,0,40.157471,375.57181,562.16766)"
       spreadMethod="pad"
       id="linearGradient840-277-663">
      <stop
         style="stop-opacity:1;stop-color:#9a9c9e"
         offset="0"
         id="stop9492" />
      <stop
         style="stop-opacity:1;stop-color:#9a9c9e"
         offset="0.12553015"
         id="stop9494" />
      <stop
         style="stop-opacity:1;stop-color:#6d6e71"
         offset="1"
         id="stop9496" />
    </linearGradient>
    <linearGradient
       x1="0"
       y1="0"
       x2="1"
       y2="0"
       gradientUnits="userSpaceOnUse"
       gradientTransform="matrix(-129.80041,0,0,129.80041,675.70121,490.29388)"
       spreadMethod="pad"
       id="linearGradient658-621-803">
      <stop
         style="stop-opacity:1;stop-color:#9a9c9e"
         offset="0"
         id="stop9499" />
      <stop
         style="stop-opacity:1;stop-color:#9a9c9e"
         offset="0.12553015"
         id="stop9501" />
      <stop
         style="stop-opacity:1;stop-color:#6d6e71"
         offset="1"
         id="stop9503" />
    </linearGradient>
    <linearGradient
       x1="0"
       y1="0"
       x2="1"
       y2="0"
       gradientUnits="userSpaceOnUse"
       gradientTransform="matrix(-16.975097,0,0,16.975097,154.44022,572.95013)"
       spreadMethod="pad"
       id="linearGradient878-715-29">
      <stop
         style="stop-opacity:1;stop-color:#9a9c9e"
         offset="0"
         id="stop9506" />
      <stop
         style="stop-opacity:1;stop-color:#9a9c9e"
         offset="0.12553015"
         id="stop9508" />
      <stop
         style="stop-opacity:1;stop-color:#6d6e71"
         offset="1"
         id="stop9510" />
    </linearGradient>
    <linearGradient
       x1="0"
       y1="0"
       x2="1"
       y2="0"
       gradientUnits="userSpaceOnUse"
       gradientTransform="matrix(-2.0607566,-115.40598,-115.40598,2.0607566,169.82475,473.61175)"
       spreadMethod="pad"
       id="linearGradient370-719-889">
      <stop
         style="stop-opacity:1;stop-color:#9a9c9e"
         offset="0"
         id="stop9513" />
      <stop
         style="stop-opacity:1;stop-color:#9a9c9e"
         offset="0.12553015"
         id="stop9515" />
      <stop
         style="stop-opacity:1;stop-color:#6d6e71"
         offset="1"
         id="stop9517" />
    </linearGradient>
    <radialGradient
       fx="0"
       fy="0"
       cx="0"
       cy="0"
       r="1"
       gradientUnits="userSpaceOnUse"
       gradientTransform="matrix(-10.445442,0,0,10.445442,681.28105,485.14374)"
       spreadMethod="pad"
       id="radialGradient634-221-965">
      <stop
         style="stop-opacity:1;stop-color:#bbbcbd"
         offset="0"
         id="stop9520" />
      <stop
         style="stop-opacity:1;stop-color:#9a9c9e"
         offset="0.42308"
         id="stop9522" />
      <stop
         style="stop-opacity:1;stop-color:#9a9c9e"
         offset="0.49550085"
         id="stop9524" />
      <stop
         style="stop-opacity:1;stop-color:#6d6e71"
         offset="1"
         id="stop9526" />
    </radialGradient>
    <linearGradient
       x1="0"
       y1="0"
       x2="1"
       y2="0"
       gradientUnits="userSpaceOnUse"
       gradientTransform="matrix(-1.7505646,11.086941,11.086941,1.7505646,492.64457,464.49797)"
       spreadMethod="pad"
       id="linearGradient534-831-540">
      <stop
         style="stop-opacity:1;stop-color:#9a9c9e"
         offset="0"
         id="stop9529" />
      <stop
         style="stop-opacity:1;stop-color:#9a9c9e"
         offset="0.12553015"
         id="stop9531" />
      <stop
         style="stop-opacity:1;stop-color:#6d6e71"
         offset="1"
         id="stop9533" />
    </linearGradient>
    <linearGradient
       x1="0"
       y1="0"
       x2="1"
       y2="0"
       gradientUnits="userSpaceOnUse"
       gradientTransform="matrix(-9.220581,0,0,9.220581,688.27201,502.47894)"
       spreadMethod="pad"
       id="linearGradient612-421-763">
      <stop
         style="stop-opacity:1;stop-color:#9a9c9e"
         offset="0"
         id="stop9536" />
      <stop
         style="stop-opacity:1;stop-color:#9a9c9e"
         offset="0.12553015"
         id="stop9538" />
      <stop
         style="stop-opacity:1;stop-color:#6d6e71"
         offset="1"
         id="stop9540" />
    </linearGradient>
    <linearGradient
       x1="0"
       y1="0"
       x2="1"
       y2="0"
       gradientUnits="userSpaceOnUse"
       gradientTransform="matrix(-1.6734505,-33.468952,-33.468952,1.6734505,312.22098,427.97333)"
       spreadMethod="pad"
       id="linearGradient966-856-654">
      <stop
         style="stop-opacity:1;stop-color:#6e7071"
         offset="0"
         id="stop9543" />
      <stop
         style="stop-opacity:1;stop-color:#363638"
         offset="0.7663305"
         id="stop9545" />
      <stop
         style="stop-opacity:1;stop-color:#363638"
         offset="1"
         id="stop9547" />
    </linearGradient>
    <linearGradient
       x1="0"
       y1="0"
       x2="1"
       y2="0"
       gradientUnits="userSpaceOnUse"
       gradientTransform="matrix(-10.563965,0,0,10.563965,473.45877,468.74481)"
       spreadMethod="pad"
       id="linearGradient556-230-288">
      <stop
         style="stop-opacity:1;stop-color:#9a9c9e"
         offset="0"
         id="stop9550" />
      <stop
         style="stop-opacity:1;stop-color:#9a9c9e"
         offset="0.12553015"
         id="stop9552" />
      <stop
         style="stop-opacity:1;stop-color:#6d6e71"
         offset="1"
         id="stop9554" />
    </linearGradient>
    <linearGradient
       x1="0"
       y1="0"
       x2="1"
       y2="0"
       gradientUnits="userSpaceOnUse"
       gradientTransform="matrix(-60.251465,0,0,60.251465,626.17972,578.02337)"
       spreadMethod="pad"
       id="linearGradient806-32-110">
      <stop
         style="stop-opacity:1;stop-color:#9a9c9e"
         offset="0"
         id="stop9557" />
      <stop
         style="stop-opacity:1;stop-color:#9a9c9e"
         offset="0.12553015"
         id="stop9559" />
      <stop
         style="stop-opacity:1;stop-color:#6d6e71"
         offset="1"
         id="stop9561" />
    </linearGradient>
    <linearGradient
       x1="0"
       y1="0"
       x2="1"
       y2="0"
       gradientUnits="userSpaceOnUse"
       gradientTransform="matrix(-1.3698387,-76.714078,-76.714078,1.3698387,163.88602,466.06659)"
       spreadMethod="pad"
       id="linearGradient922-692-733">
      <stop
         style="stop-opacity:1;stop-color:#6e7071"
         offset="0"
         id="stop9564" />
      <stop
         style="stop-opacity:1;stop-color:#363638"
         offset="0.7663305"
         id="stop9566" />
      <stop
         style="stop-opacity:1;stop-color:#363638"
         offset="1"
         id="stop9568" />
    </linearGradient>
    <linearGradient
       inkscape:collect="always"
       xlink:href="#linearGradient692-674-901"
       id="linearGradient8218-543-194"
       x1="134.58423"
       y1="160.89751"
       x2="165.10619"
       y2="160.89751"
       gradientUnits="userSpaceOnUse"
       gradientTransform="matrix(1.25,0,0,-1.25,-34.188929,704.0805)" />
    <linearGradient
       id="linearGradient692-674-901"
       spreadMethod="pad"
       gradientTransform="matrix(-17.51749,-83.465748,-83.465748,17.51749,533.24027,484.65422)"
       gradientUnits="userSpaceOnUse"
       y2="0"
       x2="1"
       y1="0"
       x1="0">
      <stop
         id="stop9572"
         offset="0"
         style="stop-opacity:1;stop-color:#071b50" />
      <stop
         id="stop9574"
         offset="1"
         style="stop-opacity:1;stop-color:#223576" />
    </linearGradient>
    <linearGradient
       x1="0"
       y1="0"
       x2="1"
       y2="0"
       gradientUnits="userSpaceOnUse"
       gradientTransform="matrix(-22.108154,0,0,22.108154,517.09647,479.16961)"
       spreadMethod="pad"
       id="linearGradient488-982-532">
      <stop
         style="stop-opacity:1;stop-color:#9a9c9e"
         offset="0"
         id="stop9577" />
      <stop
         style="stop-opacity:1;stop-color:#9a9c9e"
         offset="0.12553015"
         id="stop9579" />
      <stop
         style="stop-opacity:1;stop-color:#6d6e71"
         offset="1"
         id="stop9581" />
    </linearGradient>
    <linearGradient
       x1="0"
       y1="0"
       x2="1"
       y2="0"
       gradientUnits="userSpaceOnUse"
       gradientTransform="matrix(7.1657944,-40.793209,-40.793209,-7.1657944,504.59403,371.47064)"
       spreadMethod="pad"
       id="linearGradient944-180-226">
      <stop
         style="stop-opacity:1;stop-color:#6e7071"
         offset="0"
         id="stop9584" />
      <stop
         style="stop-opacity:1;stop-color:#363638"
         offset="0.7663305"
         id="stop9586" />
      <stop
         style="stop-opacity:1;stop-color:#363638"
         offset="1"
         id="stop9588" />
    </linearGradient>
    <linearGradient
       x1="0"
       y1="0"
       x2="1"
       y2="0"
       gradientUnits="userSpaceOnUse"
       gradientTransform="matrix(-3.7103271,0,0,3.7103271,679.25223,499.27581)"
       spreadMethod="pad"
       id="linearGradient590-100-311">
      <stop
         style="stop-opacity:1;stop-color:#9a9c9e"
         offset="0"
         id="stop9591" />
      <stop
         style="stop-opacity:1;stop-color:#9a9c9e"
         offset="0.12553015"
         id="stop9593" />
      <stop
         style="stop-opacity:1;stop-color:#6d6e71"
         offset="1"
         id="stop9595" />
    </linearGradient>
    <linearGradient
       x1="0"
       y1="0"
       x2="1"
       y2="0"
       gradientUnits="userSpaceOnUse"
       gradientTransform="matrix(-33.620605,0,0,33.620605,124.59891,552.53875)"
       spreadMethod="pad"
       id="linearGradient450-312-934">
      <stop
         style="stop-opacity:1;stop-color:#363638"
         offset="0"
         id="stop9598" />
      <stop
         style="stop-opacity:1;stop-color:#363638"
         offset="0.06276507"
         id="stop9600" />
      <stop
         style="stop-opacity:1;stop-color:#5e5e60"
         offset="0.5"
         id="stop9602" />
      <stop
         style="stop-opacity:1;stop-color:#363638"
         offset="0.74271256"
         id="stop9604" />
      <stop
         style="stop-opacity:1;stop-color:#363638"
         offset="1"
         id="stop9606" />
    </linearGradient>
    <linearGradient
       inkscape:collect="always"
       xlink:href="#linearGradient8220-983-352"
       id="linearGradient8210-153-708"
       x1="231.55125"
       y1="84.26416"
       x2="225.58861"
       y2="148.91393"
       gradientUnits="userSpaceOnUse"
       gradientTransform="matrix(1.25,0,0,-1.25,-34.188929,704.0805)" />
    <linearGradient
       x1="0"
       y1="0"
       x2="1"
       y2="0"
       gradientUnits="userSpaceOnUse"
       gradientTransform="matrix(-17.51749,-83.465748,-83.465748,17.51749,533.24027,484.65422)"
       spreadMethod="pad"
       id="linearGradient8220-983-352">
      <stop
         style="stop-opacity:0.39037433;stop-color:#071b50"
         offset="0"
         id="stop9610" />
      <stop
         style="stop-opacity:1;stop-color:#223576"
         offset="1"
         id="stop9612" />
    </linearGradient>
    <linearGradient
       x1="0"
       y1="0"
       x2="1"
       y2="0"
       gradientUnits="userSpaceOnUse"
       gradientTransform="matrix(11.444302,-65.149822,-65.149822,-11.444302,492.53226,357.29644)"
       spreadMethod="pad"
       id="linearGradient900-357-99">
      <stop
         style="stop-opacity:1;stop-color:#9a9c9e"
         offset="0"
         id="stop9615" />
      <stop
         style="stop-opacity:1;stop-color:#9a9c9e"
         offset="0.12553015"
         id="stop9617" />
      <stop
         style="stop-opacity:1;stop-color:#6d6e71"
         offset="1"
         id="stop9619" />
    </linearGradient>
    <linearGradient
       x1="0"
       y1="0"
       x2="1"
       y2="0"
       gradientUnits="userSpaceOnUse"
       gradientTransform="matrix(212.37229,7.8066826,7.8066826,-212.37229,274.72098,528.06731)"
       spreadMethod="pad"
       id="linearGradient764-448-866">
      <stop
         style="stop-opacity:1;stop-color:#363638"
         offset="0"
         id="stop9622" />
      <stop
         style="stop-opacity:1;stop-color:#363638"
         offset="0.06276507"
         id="stop9624" />
      <stop
         style="stop-opacity:1;stop-color:#5e5e60"
         offset="0.5"
         id="stop9626" />
      <stop
         style="stop-opacity:1;stop-color:#363638"
         offset="0.74271256"
         id="stop9628" />
      <stop
         style="stop-opacity:1;stop-color:#363638"
         offset="1"
         id="stop9630" />
    </linearGradient>
    <linearGradient
       x1="0"
       y1="0"
       x2="1"
       y2="0"
       gradientUnits="userSpaceOnUse"
       gradientTransform="matrix(-16.727352,0,0,16.727352,332.23563,374.76165)"
       spreadMethod="pad"
       id="linearGradient1000-982-970">
      <stop
         style="stop-opacity:1;stop-color:#9a9c9e"
         offset="0"
         id="stop9633" />
      <stop
         style="stop-opacity:1;stop-color:#9a9c9e"
         offset="0.12553015"
         id="stop9635" />
      <stop
         style="stop-opacity:1;stop-color:#6d6e71"
         offset="1"
         id="stop9637" />
    </linearGradient>
    <radialGradient
       fx="0"
       fy="0"
       cx="0"
       cy="0"
       r="1"
       gradientUnits="userSpaceOnUse"
       gradientTransform="matrix(-75.004425,0,0,75.004425,506.56058,486.37054)"
       spreadMethod="pad"
       id="radialGradient510-131-646">
      <stop
         style="stop-opacity:1;stop-color:#bbbcbd"
         offset="0"
         id="stop9640" />
      <stop
         style="stop-opacity:1;stop-color:#9a9c9e"
         offset="0.42308"
         id="stop9642" />
      <stop
         style="stop-opacity:1;stop-color:#9a9c9e"
         offset="0.49550085"
         id="stop9644" />
      <stop
         style="stop-opacity:1;stop-color:#6d6e71"
         offset="1"
         id="stop9646" />
    </radialGradient>
    <linearGradient
       inkscape:collect="always"
       xlink:href="#linearGradient692-241-999"
       id="linearGradient8202-471-768"
       x1="216.74294"
       y1="187.66476"
       x2="241.01288"
       y2="123.82313"
       gradientUnits="userSpaceOnUse"
       gradientTransform="matrix(1.25,0,0,-1.25,-34.188929,704.0805)" />
    <linearGradient
       id="linearGradient692-241-999"
       spreadMethod="pad"
       gradientTransform="matrix(-17.51749,-83.465748,-83.465748,17.51749,533.24027,484.65422)"
       gradientUnits="userSpaceOnUse"
       y2="0"
       x2="1"
       y1="0"
       x1="0">
      <stop
         id="stop9650"
         offset="0"
         style="stop-opacity:1;stop-color:#071b50" />
      <stop
         id="stop9652"
         offset="1"
         style="stop-opacity:1;stop-color:#223576" />
    </linearGradient>
    <linearGradient
       x1="0"
       y1="0"
       x2="1"
       y2="0"
       gradientUnits="userSpaceOnUse"
       gradientTransform="matrix(-13.721924,0,0,13.721924,534.9102,496.88811)"
       spreadMethod="pad"
       id="linearGradient1046-925-475">
      <stop
         style="stop-opacity:1;stop-color:#9a9c9e"
         offset="0"
         id="stop9655" />
      <stop
         style="stop-opacity:1;stop-color:#9a9c9e"
         offset="0.12553015"
         id="stop9657" />
      <stop
         style="stop-opacity:1;stop-color:#6d6e71"
         offset="1"
         id="stop9659" />
    </linearGradient>
  </defs>
  <metadata
     id="metadata5731">
    <rdf:RDF>
      <cc:Work
         rdf:about="">
        <dc:format>image/svg+xml</dc:format>
        <dc:type
           rdf:resource="http://purl.org/dc/dcmitype/StillImage" />
        <dc:title></dc:title>
      </cc:Work>
    </rdf:RDF>
  </metadata>
  <g
     inkscape:label="Capa 1"
     inkscape:groupmode="layer"
     id="layer1">
    <path
       inkscape:connector-curvature="0"
       id="path272"
       style="fill:#343335;fill-opacity:1;fill-rule:nonzero;stroke:none"
       d="m 119.8547,547.35437 c -2.9175,-4.3725 -5.0975,-32.7775 -5.0975,-41.51375 0,-8.7375 15.29375,-18.9325 21.12125,-18.2075 5.82,0.72875 26.21125,2.9175 28.4,10.195 2.18,7.2825 8.0075,24.76 1.45,28.405 -6.54875,3.63875 -45.87375,21.12125 -45.87375,21.12125" />
    <path
       inkscape:connector-curvature="0"
       id="path276"
       style="fill:#19191b;fill-opacity:1;fill-rule:nonzero;stroke:none"
       d="m 629.78695,408.84 c 0,0 0.59875,-28.04375 6.565,-32.21375 5.965,-4.1775 14.91375,0.5925 14.91375,0.5925 0,0 2.98125,20.8825 0,28.63375 -2.9825,7.75625 -4.775,14.3175 -4.775,14.3175 l -16.70375,-11.33 z" />
    <path
       inkscape:connector-curvature="0"
       id="path280"
       style="fill:#2d2a28;fill-opacity:1;fill-rule:nonzero;stroke:none"
       d="m 233.47032,598.25775 c 3.0875,2.06125 -5.40625,30.875 -34.4225,30.875 -30.87125,0 -45.13625,3.02375 -50.29125,-1.09875 -5.155,-4.12125 -10.30125,-60.79375 -10.30125,-60.79375 0,0 3.0875,-28.85125 7.21375,-30.90875 4.1175,-2.0625 38.12625,-2.0625 42.2425,-3.0975 4.12625,-1.02875 35.0375,15.46125 39.155,22.675 4.12625,7.21 6.40375,42.34875 6.40375,42.34875" />
    <path
       inkscape:connector-curvature="0"
       id="path284"
       style="fill:#091a51;fill-opacity:1;fill-rule:nonzero;stroke:none"
       d="m 684.58432,521.90888 c 0,0 4.32875,-49.72375 -10.81125,-69.18125 -15.1325,-19.45875 -28.1,-41.07875 -37.835,-45.40375 -9.725,-4.31875 -61.605,-70.26125 -65.93375,-87.5575 -2.16375,-10.8075 -4.32,-18.37 -8.6475,-23.78 -4.32,-5.40625 -31.35,-51.88375 -156.73375,-51.88375 -125.3925,0 -216.1925,37.83375 -254.02625,56.2075 -37.83375,18.37375 -34.59125,31.35 -34.59125,31.35 0,0 -35.67,111.33875 -33.50625,136.20125 2.15625,24.86 14.05375,103.77125 39.99,108.095 l 4.3275,-30.27125 c 0,0 -10.81125,-15.1325 -3.2425,-35.67125 7.5625,-20.5375 22.695,-7.565 34.5925,21.62 11.89,29.18625 17.2875,58.3725 55.1225,62.6975 37.83375,4.3225 87.5575,8.64625 96.205,6.4825 8.64875,-2.16 14.05375,-3.24125 16.21875,-6.4825 2.155,-3.24625 59.45,-72.4225 59.45,-72.4225 l 28.1075,11.89 262.66625,1.0775 8.6475,-12.9675 z" />
    <path
       inkscape:connector-curvature="0"
       id="path288"
       style="fill:#19191b;fill-opacity:1;fill-rule:nonzero;stroke:none"
       d="m 330.29232,580.11075 c 0,0 -7.57875,-2.3675 -16.5425,-38.2275 -8.9725,-35.86375 -3.50125,-60.24 11.44375,-72.19125 14.93875,-11.95875 8.2925,-12.3275 20.2475,-12.3275 11.95375,0 12.8775,-3.0675 30.815,4.40125 17.935,7.4725 26.77125,18.69375 28.1725,38.73625 1.4025,20.045 -2.05125,10.7925 -8.02375,10.7925 -5.9825,0 -66.1125,68.81625 -66.1125,68.81625" />
    <path
       d="m 287.86232,273.57175 c -39.15375,4.1225 -131.8925,38.12625 -174.1425,69.55375 l 0,0 c -2.57,5.66875 -30.394999,100.98 -29.874999,116.43625 l 0,0 0,11.33375 c 0,0 63.883749,-46.88375 279.239999,-42.76125 l 0,0 c 1.02875,-8.24375 1.02875,-18.03375 1.02875,-18.03375 l 0,0 c 0,-1.54375 7.21375,-54.0925 -10.82,-89.645 l 0,0 c -16.13625,-31.81 -24.43875,-47.53125 -54.06125,-47.53375 l 0,0 c -3.48125,0 -7.2525,0.2175 -11.37,0.65"
       style="fill:url(#linearGradient8194);fill-opacity:1;stroke:none"
       id="path310"
       inkscape:connector-curvature="0" />
    <path
       inkscape:connector-curvature="0"
       id="path322"
       style="fill:#2d2a28;fill-opacity:1;fill-rule:nonzero;stroke:none"
       d="m 642.3247,602.27263 c 0,0 0,26.7925 -47.3975,25.76125 -34,2.06 -38.12625,-34.00375 -38.12625,-34.00375 l 85.52375,8.2425 z" />
    <path
       inkscape:connector-curvature="0"
       id="path326"
       style="fill:#2d2a28;fill-opacity:1;fill-rule:nonzero;stroke:none"
       d="M 395.31795,481.67575 C 393.4292,480.217 358.9267,485.257 352.9617,485.257 c -5.965,0 -24.46125,1.7875 -26.2525,32.21375 -1.79,30.42625 1.79125,73.97125 13.13125,88.8875 11.33,14.9175 22.06875,29.82625 38.17375,29.82625 16.105,0 50.1125,2.9825 50.71375,-38.17875 0.59,-41.16 -7.16625,-96.0475 -33.41,-116.33" />
    <path
       inkscape:connector-curvature="0"
       id="path330"
       style="fill:#19191b;fill-opacity:1;fill-rule:nonzero;stroke:none"
       d="m 635.93807,407.32388 c 3.2425,3.2425 -103.7675,-28.10375 -222.6675,-10.8075 -29.185,3.2425 -43.24,10.8075 -43.24,10.8075 0,0 5.40625,-38.91125 -5.40625,-69.18 -10.81125,-30.2675 -19.46,-39.9975 -19.46,-39.9975 0,0 -11.88875,-14.04625 12.97625,-16.21 24.8575,-2.16375 123.22875,-16.2175 209.7,28.10375 20.5375,37.83375 56.2075,85.39 68.0975,97.28375" />
    <path
       inkscape:connector-curvature="0"
       id="path334"
       style="fill:#2d2a28;fill-opacity:1;fill-rule:nonzero;stroke:none"
       d="m 320.2337,291.7355 c 3.2425,2.16 33.57875,48.5725 34.665,82.07875 1.0775,33.51 -7.57,42.15875 -24.86625,42.15875 -17.29625,0 -57.285,-11.89 -65.93375,-20.53875 -8.6475,-8.6475 -8.6475,-21.62 -5.405,-41.075 3.24125,-19.45625 9.725,-48.6425 9.725,-48.6425 0,0 4.92,-15.8325 23.78,-15.13625 14.7425,0.5475 28.035,1.155 28.035,1.155" />
    <path
       d="m 273.15232,302.0205 c 0,0 -10.14,62.06875 -3.6475,79.36375 l 0,0 c 6.48375,17.2975 44.31875,23.78 44.31875,23.78 l 0,0 25.1325,-76.425 -18.8025,-33.64 c 0,0 -15.92625,-2.35875 -26.715,-2.97 l 0,0 c -0.64625,-0.0362 -1.2725,-0.0538 -1.88125,-0.0538 l 0,0 c -14.46375,0 -18.405,9.945 -18.405,9.945"
       style="fill:url(#linearGradient348-195-298);stroke:none"
       id="path356"
       inkscape:connector-curvature="0" />
    <path
       d="m 209.55232,311.183 c -26.27625,7.21375 -69.0375,27.30625 -77.79875,31.9425 l 0,0 c -8.75375,4.635 -16.9975,7.21375 -22.67,17 l 0,0 c -5.66625,9.79125 -21.632499,81.40625 -22.151249,87.07125 l 0,0 c -0.51875,5.665 5.665,6.18375 14.426249,3.0925 l 0,0 c 30.395,-11.84875 115.91875,-24.21375 120.04375,-26.2775 l 0,0 c 4.125,-2.0575 12.3675,-2.0575 12.3675,-12.8775 l 0,0 c 0,-10.82125 0.51125,-22.67 2.05875,-37.0975 l 0,0 c 0.51125,-18.5475 12.88,-62.33875 12.88,-62.33875 l 0,0 c 1.7575,-6.5875 -0.32,-8.96375 -5.32,-8.9625 l 0,0 c -6.7325,0 -18.75875,4.30875 -33.83625,8.4475"
       style="fill:url(#linearGradient370-719-889);stroke:none"
       id="path378"
       inkscape:connector-curvature="0" />
    <path
       inkscape:connector-curvature="0"
       id="path390"
       style="fill:#004979;fill-opacity:1;fill-rule:nonzero;stroke:none"
       d="m 330.62432,287.99525 c 0,0 -23.18,-12.87875 -78.31,2.5775 -55.13,15.45625 -121.59,47.3975 -142.7125,62.33875 12.36875,-10.81625 86.5525,-54.0925 150.955,-69.5525 20.61125,-6.18 59.2475,-7.72875 70.0675,4.63625" />
    <path
       d="m 162.42107,482.2355 c -9.2225,2.6575 10.22125,7.41125 14.54125,16.91875 l 0,0 c 5.91625,13.01625 -0.8675,28.0925 10.95,34.08 l 0,0 c 2.91,1.47625 105.105,-8.24125 114.3775,-10.305 l 0,0 c 9.2725,-2.05875 -1.03,-23.69375 -4.12625,-32.97125 l 0,0 c -3.0875,-9.27125 10.31,-22.67 11.34,-25.75625 l 0,0 c 0,0 -139.09875,15.73625 -147.0825,18.03375"
       style="fill:url(#linearGradient8202-471-768);fill-opacity:1;stroke:none"
       id="path414"
       inkscape:connector-curvature="0" />
    <path
       d="m 196.15482,541.48175 c -13.39,0 -5.14625,9.2725 -9.2725,20.60625 l 0,0 c -4.1175,11.33625 -16.485,-5.15 -16.485,-5.15 l 0,0 c 0,0 3.08875,11.335 12.3675,25.75875 l 0,0 c 9.2725,14.425 29.87625,15.455 59.75875,15.455 l 0,0 c 29.8825,0 61.825,2.06375 75.2225,-2.0575 l 0,0 c 13.3975,-4.1225 0,-21.64125 -4.125,-32.975 l 0,0 c -4.1175,-11.33625 -10.3025,-32.9775 -10.3025,-32.9775 l 0,0 c 0,0 -93.76625,11.34 -107.16375,11.34"
       style="fill:url(#linearGradient8210-153-708);fill-opacity:1;stroke:none"
       id="path436"
       inkscape:connector-curvature="0" />
    <path
       d="m 91.057321,528.08425 c -1.03625,12.365 8.2425,44.30625 17.514999,47.3975 l 0,0 c 9.2725,3.0975 13.91625,0.475 13.91625,0.475 l 0,0 c 0,0 5.6575,-28.295 -1.55625,-47.8725 l 0,0 c 0,0 -22.659999,1.03375 -29.874999,0"
       style="fill:url(#linearGradient450-312-934);stroke:none"
       id="path462"
       inkscape:connector-curvature="0" />
    <path
       inkscape:connector-curvature="0"
       id="path474"
       style="fill:#2d2a28;fill-opacity:1;fill-rule:nonzero;stroke:none"
       d="m 526.55445,504.94475 c 0,0 22.0775,2.3825 5.96375,-16.11375 -16.10375,-18.49125 -42.355,-29.825 -66.21625,-34 -8.9475,-1.79 -7.1575,9.545 -6.5575,16.70125 0.59125,7.16 -2.9825,22.66875 17.29625,26.8475 20.28625,4.17875 44.1475,7.16125 49.51375,6.565" />
    <path
       d="m 495.53607,474.51925 c 3.09,1.93 3.43,5.6075 3.285,7.96375 l 0,0 c 2.31625,-5.95625 16.57625,-4.9825 18.19375,-4.9825 l 0,0 c 1.425,0 -16.2275,-3.81875 -20.905,-3.81875 l 0,0 c -1.17,0 -1.52875,0.23875 -0.57375,0.8375 m 2.9825,10.13875 c 0,0 0.22375,-0.89125 0.3025,-2.175 l 0,0 c -0.25,0.64125 -0.36,1.36375 -0.3025,2.175"
       style="fill:url(#linearGradient488-982-532);stroke:none"
       id="path496"
       inkscape:connector-curvature="0" />
    <path
       d="m 474.65732,472.73175 c -4.77375,4.76875 -7.16375,1.7875 -7.16375,10.13875 l 0,0 c 0,8.3525 -16.6975,1.7875 0,8.3525 l 0,0 c 16.70375,6.56125 23.26875,4.77375 32.8175,6.56125 l 0,0 c 9.5375,1.7875 32.2075,8.3475 34.59875,2.38625 l 0,0 c 0.69625,-1.75 -5.37375,-16.10875 -12.53,-18.495 l 0,0 c -7.1575,-2.3875 -10.73875,-2.98375 -13.7225,0 l 0,0 c -2.98125,2.9825 -8.9475,10.13875 -10.73875,5.965 l 0,0 c -1.7825,-4.17375 -4.17375,-8.94875 -6.5575,-11.93 l 0,0 c -2.39,-2.97875 -5.3725,-3.5775 -7.75625,-3.5775 l 0,0 c -1.52,0 -2.795,-1.69 -4.75125,-1.69 l 0,0 c -1.1175,0 -2.45875,0.5525 -4.19625,2.28875"
       style="fill:url(#radialGradient510-131-646);stroke:none"
       id="path520"
       inkscape:connector-curvature="0" />
    <path
       d="m 477.64107,465.57175 c 0,0 26.84375,5.96 29.22625,5.96 l 0,0 c 0,0 -12.5225,-5.365 -22.07,-8.3475 l 0,0 c -2.075,-0.64875 -3.5875,-0.9025 -4.68125,-0.9025 l 0,0 c -3.94,0 -2.475,3.29 -2.475,3.29"
       style="fill:url(#linearGradient534-831-540);stroke:none"
       id="path542"
       inkscape:connector-curvature="0" />
    <path
       d="m 464.51732,458.4105 c -4.18125,0.59875 1.03875,20.7475 1.03875,20.7475 l 0,0 6.71125,-11.20375 c 0,0 0.59875,-4.77 1.19125,-7.1575 l 0,0 c 0,0 -3.93875,-2.465 -7.79125,-2.465 l 0,0 c -0.385,0 -0.77,0.025 -1.15,0.0788"
       style="fill:url(#linearGradient556-230-288);stroke:none"
       id="path564"
       inkscape:connector-curvature="0" />
    <path
       inkscape:connector-curvature="0"
       id="path576"
       style="fill:#2d2a28;fill-opacity:1;fill-rule:nonzero;stroke:none"
       d="m 686.43245,507.92687 c -1.39375,1.26875 -13.7225,2.3825 -14.3125,-8.95125 -0.60125,-11.335 4.17375,-26.84375 6.565,-29.23125 2.3825,-2.38625 8.34625,-3.5775 9.53875,8.9475 1.19125,12.53125 4.77375,23.26625 -1.79125,29.235" />
    <path
       d="m 677.48482,502.558 c 0,0 2.9825,-6.56375 1.19875,-6.56375 l 0,0 c -1.79125,0 -5.3725,3.5775 -1.19875,6.56375"
       style="fill:url(#linearGradient590-100-311);stroke:none"
       id="path598"
       inkscape:connector-curvature="0" />
    <path
       d="m 679.27607,505.5405 c 4.17375,4.17375 8.9475,-2.9825 8.9475,-2.9825 l 0,0 c 0,0 0.6,-2.3875 -2.38375,-4.17875 l 0,0 c -0.31,-0.18625 -0.6425,-0.27125 -0.98625,-0.27 l 0,0 c -2.9525,0 -6.76875,6.23375 -5.5775,7.43125"
       style="fill:url(#linearGradient612-421-763);stroke:none"
       id="path620"
       inkscape:connector-curvature="0" />
    <path
       d="m 681.66607,472.133 c -3.5825,0 -3.5825,5.3675 -2.9825,11.33375 l 0,0 c 0.21125,2.14 1.1925,2.98125 1.1925,5.365 l 0,0 c 0,2.3875 -5.37375,3.5825 -5.37375,3.5825 l 0,0 c 0,0 4.6875,0.30625 8.55125,0.68375 l 0,0 c 0.605,-0.8825 1.32875,-1.9 2.1875,-3.07 l 0,0 c 1.8,-2.4525 1.19125,-8.3525 1.19125,-13.72125 l 0,0 c 0,-3.715 -0.57,-4.2875 -2.105,-4.2875 l 0,0 c -0.68375,0 -1.55875,0.11375 -2.66125,0.11375 m 5.5675,22.01875 c 2.30375,-0.28625 -0.58,-0.70125 -4.18,-1.05375 l 0,0 c -7.48125,10.91875 3.2975,1.1675 4.18,1.05375"
       style="fill:url(#radialGradient634-221-965);stroke:none"
       id="path644"
       inkscape:connector-curvature="0" />
    <path
       d="m 561.15482,487.6405 c 5.3725,7.16125 18.495,23.27 27.4425,25.6575 l 0,0 c 8.94875,2.385 61.4525,2.3825 72.18375,-0.6 l 0,0 c 10.7375,-2.98375 5.96375,-10.74125 7.16375,-19.0875 l 0,0 c 1.19125,-8.35375 7.75625,-26.2525 7.75625,-26.2525 l 0,0 -18.49375,0 c -8.94875,0 -101.41875,-1.78625 -109.17625,-1.78625 l 0,0 c -7.755,0 7.7575,14.9125 13.12375,22.06875"
       style="fill:url(#linearGradient658-621-803);stroke:none"
       id="path666"
       inkscape:connector-curvature="0" />
    <path
       inkscape:connector-curvature="0"
       id="path678"
       style="fill:#161412;fill-opacity:1;fill-rule:nonzero;stroke:none"
       d="m 667.80695,472.87325 c 0,0 -2.5775,21.515 -3.16875,26.2925 -0.6,4.77 -2.39,8.9475 -10.73875,8.9475 -8.34875,0 -54.8875,1.7875 -63.835,-2.98625 -8.94875,-4.77 -32.20875,-34.6 -32.20875,-34.6 l 57.86125,2.38625 52.09,-0.04 z" />
    <path
       d="m 423.94482,399.34925 c 41.16625,6.56125 106.19125,61.4475 106.19125,61.4475 l 0,0 32.2175,2.98375 c 0,0 22.06875,-2.38875 33.40875,-8.35375 l 0,0 c 30.42625,-22.6725 8.6475,-51.99625 6.55625,-52.495 l 0,0 c -25.46125,-6.1125 -56.135,-7.98625 -85.305,-7.985 l 0,0 c -39.1725,0 -75.63,3.3775 -93.06875,4.4025"
       style="fill:url(#linearGradient692);stroke:none"
       id="path702"
       inkscape:connector-curvature="0" />
    <path
       inkscape:connector-curvature="0"
       id="path750"
       style="fill:url(#linearGradient724);stroke:none"
       d="m 466.30232,522.8405 c 0,0 9.54625,2.3825 -0.5925,-11.33875 -10.1475,-13.7175 -13.7225,-10.73875 -13.7225,-26.84375 0,-16.105 -23.86,-69.20375 -66.21625,-75.765 -8.3575,-0.59125 -24.46125,3.5825 -22.07875,10.73875 2.39125,7.16125 37.5825,14.9175 -18.4875,14.3175 -56.0775,-0.59625 -165.85125,1.1925 -239.825,29.83125 -14.313749,5.96375 -20.878749,23.865 -16.704999,26.84625 4.1825,2.98375 59.061249,-20.8825 140.199999,-28.63875 81.13,-7.7525 133.0275,-22.665 161.07,-3.5775 28.035,19.09 29.23375,50.70375 31.0175,64.43 17.30375,1.19125 45.34,0 45.34,0" />
    <path
       d="m 318.95357,467.95425 c -16.105,22.66875 -14.32125,68.00875 -1.1925,103.2075 l 0,0 c 13.1225,35.19625 -46.53,29.01875 -46.53,29.01875 l 0,0 c 0,0 70.3925,9.16 73.97375,8.56375 l 0,0 c 3.575,-0.595 0,0 -10.1475,-19.09 l 0,0 c -33.4075,-62.04 -15.5125,-104.3975 -8.3475,-116.33 l 0,0 c 7.15625,-11.935 31.0175,-14.31875 49.5125,-4.77125 l 0,0 c 18.49625,9.54375 26.845,54.2875 26.845,54.2875 l 0,0 c -2.98375,1.78625 0.59875,9.54375 0.59875,9.54375 l 0,0 c 0,0 13.7225,58.465 15.51375,65.6225 l 0,0 c 1.7825,7.16 19.6775,7.755 19.6775,7.755 l 0,0 c 0,0 181.9575,-0.595 188.5225,-0.595 l 0,0 c 6.55625,0 14.31375,-2.3875 25.0525,-7.75625 l 0,0 c 10.73875,-5.36625 20.2775,-29.23125 20.2775,-29.23125 l 0,0 c 0,0 1.20125,-3.5825 5.97375,-4.17875 l 0,0 c 4.76625,-0.595 10.14,-16.10375 13.71375,-27.44125 l 0,0 c 3.5825,-11.33125 -7.81375,-14.65 -7.81375,-14.65 l 0,0 -263.62125,0.93125 c 0,0 -4.17375,-22.075 -18.49625,-46.53375 l 0,0 C 392.51982,460.7205 372.80482,452.878 354.48732,452.878 l 0,0 c -14.63625,0 -28.38125,5.00875 -35.53375,15.07625"
       style="fill:url(#linearGradient764-448-866);stroke:none"
       id="path776"
       inkscape:connector-curvature="0"
       sodipodi:nodetypes="ccccccccccccccccccccccccccccccccccccccc" />
    <path
       inkscape:connector-curvature="0"
       id="path788"
       style="fill:#19191b;fill-opacity:1;fill-rule:nonzero;stroke:none"
       d="m 673.65045,565.79313 -17.295,-1.19625 c 0,0 -5.965,1.2 -7.1575,3.5825 -1.19875,2.3825 20.87875,0 20.87875,0 l 3.57375,-2.38625 z" />
    <path
       inkscape:connector-curvature="0"
       id="path792"
       style="fill:#19191b;fill-opacity:1;fill-rule:nonzero;stroke:none"
       d="m 535.25082,559.22825 c 0,0 3.5825,5.96375 -7.1575,5.36875 -10.7375,-0.59625 -120.50375,0.6 -120.50375,0.6 l 2.9825,4.77 117.52125,-0.59625 c 0,0 10.14,-2.98125 7.1575,-10.1425" />
    <path
       d="m 565.92732,591.4455 60.25125,0 0,-26.84375 -60.25125,0 0,26.84375 z"
       style="fill:url(#linearGradient806-32-110);stroke:none"
       id="path814"
       inkscape:connector-curvature="0" />
    <path
       inkscape:connector-curvature="0"
       id="path826"
       style="fill:#19191b;fill-opacity:1;fill-rule:nonzero;stroke:none"
       d="m 394.71857,611.1325 c 0.59875,-2.3875 11.33875,-41.16625 -7.1575,-82.9225 -18.495,-41.76125 -39.37375,-38.1825 -47.13,-34.6 -7.75625,3.57875 -20.8775,23.265 -10.13875,86.50125 7.15625,38.7725 32.80875,53.09375 45.93,50.7075 13.1225,-2.38625 16.705,-12.525 18.49625,-19.68625" />
    <path
       d="m 335.43107,546.25175 c -0.5025,41.87875 11.46,49.355 19.93875,55.335 l 0,0 c 8.4775,5.9825 15.7225,2.95625 19.20875,-14.99375 l 0,0 c 0,0 5.4375,-27.73 -9.135,-49.58875 l 0,0 c -5.55875,-8.3375 -13.5675,-17.04625 -19.91375,-17.0475 l 0,0 c -5.575,-0.001 -9.8675,6.71375 -10.09875,26.295"
       style="fill:url(#linearGradient840-277-663);stroke:none"
       id="path848"
       inkscape:connector-curvature="0" />
    <path
       inkscape:connector-curvature="0"
       id="path860"
       style="fill:#061236;fill-opacity:1;fill-rule:nonzero;stroke:none"
       d="M 275.67682,599.69575 C 242.96807,522.557 240.97307,441.9045 245.06057,387.82325 c 4.4275,-58.58625 16.7525,-99.48 16.87625,-99.885 l 0.985,0.3 c -0.12375,0.405 -12.41875,41.21 -16.83625,99.69125 -4.075,53.95875 -2.085,134.425 30.54,211.36125 l -0.94875,0.405 z" />
    <path
       inkscape:connector-curvature="0"
       id="path864"
       style="fill:#19191b;fill-opacity:1;fill-rule:nonzero;stroke:none"
       d="m 146.02595,509.83975 c 0,0 -26.1225,-10.605 -25.09375,40.91375 1.0375,51.51875 18.5525,75.2225 27.825,77.28125 9.2725,2.05875 27.82375,-22.67 24.72875,-61.82375 -18.18,-44.88625 -23.7075,-50.40875 -23.7075,-50.40875 l -3.7525,-5.9625 z" />
    <path
       d="m 143.18857,545.44175 c -4.425,0.44125 -6.78375,13.12125 -5.25875,28.31375 l 0,0 c 1.5225,15.19375 6.35375,27.1475 10.7775,26.7025 l 0,0 c 4.43375,-0.4425 6.79375,-13.1225 5.27,-28.31125 l 0,0 c -1.49625,-14.92125 -6.18125,-26.7175 -10.5475,-26.71625 l 0,0 c -0.08,0 -0.16125,0.004 -0.24125,0.0112"
       style="fill:url(#linearGradient878-715-29);stroke:none"
       id="path886"
       inkscape:connector-curvature="0" />
    <path
       d="m 373.27357,321.9355 c 6.4825,15.1275 19.45875,42.15375 19.45875,42.15375 l 0,0 c 0,0 0,14.05 34.58375,10.8075 l 0,0 c 34.5925,-3.2425 103.7775,-18.37375 192.4125,15.135 l 0,0 c 0,0 -41.07625,-57.29375 -49.72375,-70.265 l 0,0 C 535.41357,303.553 505.14857,290.58175 393.81107,289.503 l 0,0 c -30.26375,1.07875 -27.02125,17.295 -20.5375,32.4325"
       style="fill:url(#linearGradient900-357-99);stroke:none"
       id="path908"
       inkscape:connector-curvature="0" />
    <path
       d="m 100.79982,386.33675 c -6.418749,24.48125 -13.527499,57.11125 -13.867499,60.86 l 0,0 c -0.51875,5.665 5.665,6.18375 14.426249,3.0925 l 0,0 c 30.395,-11.84875 115.91875,-24.21375 120.04375,-26.2775 l 0,0 c 4.125,-2.0575 12.3675,-2.0575 12.3675,-12.8775 l 0,0 c 0,-10.82125 0.51125,-22.67 2.05875,-37.0975 l 0,0 c 0.145,-5.22375 1.2325,-12.4525 2.715,-20.14 l 0,0 c -6.45125,-0.885 -13.77625,-1.46 -21.92375,-1.46 l 0,0 c -29.0275,0 -68.46875,7.305 -115.82,33.9"
       style="fill:url(#linearGradient922-692-733);stroke:none"
       id="path930"
       inkscape:connector-curvature="0" />
    <path
       d="m 388.90732,356.053 c 2.2775,4.82625 3.825,8.03625 3.825,8.03625 l 0,0 c 0,0 0,14.05 34.58375,10.8075 l 0,0 c 34.5925,-3.2425 103.7775,-18.37375 192.4125,15.135 l 0,0 c 0,0 -15.505,-21.62375 -29.46875,-41.31125 l 0,0 c -23.14375,-5.585 -56.0075,-11.33875 -93.2275,-11.3375 l 0,0 c -33.79625,0 -71.18625,4.74625 -108.125,18.67"
       style="fill:url(#linearGradient944-180-226);stroke:none"
       id="path952"
       inkscape:connector-curvature="0" />
    <path
       d="m 268.83232,364.96425 c 0.835,20.08 4.1825,24.26125 19.24125,30.95625 l 0,0 c 15.05875,6.695 36.8125,6.695 63.6725,3.36375 l 0,0 c -34.22,-28.43625 -83.75625,-36.8325 -83.75625,-36.8325 l 0,0 0.8425,2.5125 z"
       style="fill:url(#linearGradient966-856-654);stroke:none"
       id="path974"
       inkscape:connector-curvature="0" />
    <path
       inkscape:connector-curvature="0"
       id="path986"
       style="fill:#19191b;fill-opacity:1;fill-rule:nonzero;stroke:none"
       d="m 331.10282,389.60725 c 0,0 4.23,-30.81125 -5.13,-38.665 -9.37,-7.8575 -18.12375,-7.25 -27.7925,-3.62625 -2.715,3.3225 -9.36125,34.13375 -5.73875,65.245 8.15375,4.535 13.5925,8.76125 16.615,6.645 3.015,-2.11 5.73875,-6.34125 11.4775,-5.73875 l 5.7375,0.605 c 0,0 6.64625,2.71875 4.83125,-0.3 -1.8075,-3.01875 0,-24.165 0,-24.165" />
    <path
       d="m 310.26482,347.6155 c 0,0 -0.3,49.54125 2.11625,54.07125 l 0,0 c 7.245,2.11625 10.26875,-6.64125 14.79875,-10.26875 l 0,0 c 2.115,-8.76125 0.3,-33.52875 -1.2075,-36.5525 l 0,0 c -1.39625,-2.78 -6.8825,-7.355 -13.87625,-7.355 l 0,0 c -0.6,0 -1.21,0.0337 -1.83125,0.105"
       style="fill:url(#linearGradient1000-982-970);stroke:none"
       id="path1008"
       inkscape:connector-curvature="0" />
    <path
       inkscape:connector-curvature="0"
       id="path1020"
       style="fill:#2d2a28;fill-opacity:1;fill-rule:nonzero;stroke:none"
       d="m 322.3492,410.44888 c 0,0 -6.34625,-6.34625 -1.21625,-13.5925 5.13875,-7.24875 11.1775,-5.13375 15.7075,-5.13375 4.54,0 5.13875,-3.6275 9.07,-3.32375 0,0 6.8725,2.12375 5.83625,10.885 -1.03,8.7575 -0.58375,14.0875 -29.3975,11.165" />
    <path
       inkscape:connector-curvature="0"
       id="path1024"
       style="fill:#061236;fill-opacity:1;fill-rule:nonzero;stroke:none"
       d="m 274.69595,600.05213 c -32.70625,-77.135 -34.69875,-157.79125 -30.615,-211.87 4.4275,-58.58875 16.75125,-99.4825 16.875,-99.8875 l 0.985,0.3 c -0.12375,0.405 -12.4175,41.2125 -16.83125,99.69375 -4.075,53.95625 -2.085,134.42625 30.535,211.35875 l -0.94875,0.405 z" />
    <path
       inkscape:connector-curvature="0"
       id="path1028"
       style="fill:#061236;fill-opacity:1;fill-rule:nonzero;stroke:none"
       d="m 356.32932,452.50213 c -0.12625,0 -0.2025,-0.005 -0.225,-0.005 l 0.0363,-1.02875 c 0.035,-0.004 4.33875,0.1175 6.36625,-2.075 0.84,-0.9075 1.18,-2.11125 1.01375,-3.58625 -1.89,-18.9825 1.25875,-33.1575 1.29125,-33.29875 l 1.00375,0.22625 c -0.0325,0.1425 -3.14375,14.1675 -1.27,32.96375 0.20125,1.7775 -0.23125,3.26125 -1.285,4.4 -2.08875,2.25375 -5.9525,2.40375 -6.93125,2.40375" />
    <path
       inkscape:connector-curvature="0"
       id="path1032"
       style="fill:#061236;fill-opacity:1;fill-rule:nonzero;stroke:none"
       d="m 355.08907,451.88562 c -0.125,0 -0.2025,-0.004 -0.225,-0.004 l 0.0375,-1.03 c 0.0238,-0.004 4.34125,0.11875 6.37125,-2.07375 0.84125,-0.90875 1.1825,-2.11625 1.01625,-3.59125 -1.89875,-18.9825 1.25,-33.15375 1.2825,-33.295 l 1.005,0.2275 c -0.0325,0.14125 -3.145,14.1625 -1.2625,32.95875 0.2,1.77875 -0.23125,3.26125 -1.2875,4.4 -2.09125,2.2575 -5.95875,2.4075 -6.9375,2.4075" />
    <path
       d="m 521.18857,500.7655 13.72125,-0.595 -10.13875,-7.16 -3.5825,7.755 z"
       style="fill:url(#linearGradient1046-925-475);stroke:none"
       id="path1054"
       inkscape:connector-curvature="0" />
    <path
       d="m 140.83107,493.5255 c 11.24875,4.99625 26.25125,26.79375 29.995,22.70625 l 0,0 c 3.75375,-4.08625 -1.0775,-12.9575 -4.20625,-17.49875 l 0,0 c 0,0 -5.795,-9.29375 -24.54125,-9.29375 l 0,0 c -2.34375,-0.13 -4.375,-0.26125 -5.80875,-0.26125 l 0,0 c -3.5375,0 -3.44375,0.795 4.56125,4.3475"
       style="fill:url(#linearGradient8218-543-194);fill-opacity:1;stroke:none"
       id="path1076"
       inkscape:connector-curvature="0" />
    <rect
       y="130.93364"
       x="820"
       height="400"
       width="400"
       id="rect5119"
       style="color:#000000;clip-rule:nonzero;display:inline;overflow:visible;visibility:visible;opacity:1;isolation:auto;mix-blend-mode:normal;color-interpolation:sRGB;color-interpolation-filters:linearRGB;solid-color:#000000;solid-opacity:1;fill:url(#linearGradient5121);fill-opacity:1;fill-rule:nonzero;stroke:none;stroke-width:1;stroke-linecap:butt;stroke-linejoin:miter;stroke-miterlimit:4;stroke-dasharray:none;stroke-dashoffset:0;stroke-opacity:1;color-rendering:auto;image-rendering:auto;shape-rendering:auto;text-rendering:auto;enable-background:accumulate" />
    <g
       style="display:inline;fill:#ffffff"
       id="g5123"
       transform="matrix(0.18751516,-0.0377512,0,0.18751516,128.97942,250.91101)">
      <path
         style="color:#000000;clip-rule:nonzero;display:inline;overflow:visible;visibility:visible;opacity:1;isolation:auto;mix-blend-mode:normal;color-interpolation:sRGB;color-interpolation-filters:linearRGB;solid-color:#000000;solid-opacity:1;fill:#ffffff;fill-opacity:1;fill-rule:nonzero;stroke:none;stroke-width:1;stroke-linecap:butt;stroke-linejoin:miter;stroke-miterlimit:4;stroke-dasharray:none;stroke-dashoffset:0;stroke-opacity:1;color-rendering:auto;image-rendering:auto;shape-rendering:auto;text-rendering:auto;enable-background:accumulate"
         d="m 387.59375,169.42383 -80.46289,46.65234 0.17187,93.00977 12.47461,7.17187 c -23.49199,30.81926 -50.19452,50.89969 -79.87304,64.75781 -35.33706,16.50038 -72.89324,21.85931 -104.8418,23.6504 24.00547,5.1289 69.80646,2.60093 109.09961,-9.06836 39.2508,-11.65679 80.2838,-34.06558 115.66016,-77.0918 l 0.01,20.58984 -0.71094,-0.21875 28.81446,16.56446 80.46289,-46.65235 -0.17188,-93.00781 -80.63281,-46.35742 z"
         transform="translate(-197.67863,495.82222)"
         id="path5125"
         inkscape:connector-curvature="0" />
      <text
         sodipodi:linespacing="125%"
         id="text5127"
         y="828.3963"
         x="-47.710617"
         style="font-style:normal;font-variant:normal;font-weight:normal;font-stretch:normal;font-size:200.16429138px;line-height:125%;font-family:Lato;-inkscape-font-specification:Lato;text-align:center;letter-spacing:0px;word-spacing:0px;text-anchor:middle;fill:#ffffff;fill-opacity:1;stroke:none;stroke-width:1px;stroke-linecap:butt;stroke-linejoin:miter;stroke-opacity:1"
         xml:space="preserve"><tspan
           style="font-style:normal;font-variant:normal;font-weight:normal;font-stretch:normal;font-size:187.5px;font-family:Michroma;-inkscape-font-specification:Michroma;fill:#ffffff"
           y="828.3963"
           x="-47.710617"
           id="tspan5129"
           sodipodi:role="line">B</tspan></text>
      <text
         sodipodi:linespacing="125%"
         id="text5131"
         y="828.3963"
         x="421.63364"
         style="font-style:normal;font-variant:normal;font-weight:normal;font-stretch:normal;font-size:200.16429138px;line-height:125%;font-family:Lato;-inkscape-font-specification:Lato;text-align:center;letter-spacing:0px;word-spacing:0px;text-anchor:middle;fill:#ffffff;fill-opacity:1;stroke:none;stroke-width:1px;stroke-linecap:butt;stroke-linejoin:miter;stroke-opacity:1"
         xml:space="preserve"><tspan
           style="font-style:normal;font-variant:normal;font-weight:normal;font-stretch:normal;font-size:187.5px;font-family:Michroma;-inkscape-font-specification:Michroma;fill:#ffffff"
           y="828.3963"
           x="421.63364"
           id="tspan5133"
           sodipodi:role="line">X</tspan></text>
      <text
         xml:space="preserve"
         style="font-style:normal;font-variant:normal;font-weight:normal;font-stretch:normal;font-size:80px;line-height:125%;font-family:Lato;-inkscape-font-specification:Lato;text-align:center;letter-spacing:0px;word-spacing:0px;text-anchor:middle;fill:#ffffff;fill-opacity:1;stroke:none;stroke-width:1px;stroke-linecap:butt;stroke-linejoin:miter;stroke-opacity:1"
         x="188.63942"
         y="628.67664"
         id="text5135"
         sodipodi:linespacing="125%"><tspan
           sodipodi:role="line"
           id="tspan5137"
           x="193.63942"
           y="628.67664"
           style="font-style:normal;font-variant:normal;font-weight:normal;font-stretch:normal;font-family:Michroma;-inkscape-font-specification:Michroma;letter-spacing:10px;fill:#ffffff">SPACE</tspan></text>
    </g>
    <rect
       style="color:#000000;clip-rule:nonzero;display:inline;overflow:visible;visibility:visible;opacity:1;isolation:auto;mix-blend-mode:normal;color-interpolation:sRGB;color-interpolation-filters:linearRGB;solid-color:#000000;solid-opacity:1;fill:#091a51;fill-opacity:1;fill-rule:nonzero;stroke:none;stroke-width:1;stroke-linecap:butt;stroke-linejoin:miter;stroke-miterlimit:4;stroke-dasharray:none;stroke-dashoffset:0;stroke-opacity:1;color-rendering:auto;image-rendering:auto;shape-rendering:auto;text-rendering:auto;enable-background:accumulate"
       id="rect8174"
       width="36.36549"
       height="27.274118"
       x="853.57892"
       y="101.80865" />
    <rect
       style="color:#000000;clip-rule:nonzero;display:inline;overflow:visible;visibility:visible;opacity:1;isolation:auto;mix-blend-mode:normal;color-interpolation:sRGB;color-interpolation-filters:linearRGB;solid-color:#000000;solid-opacity:1;fill:#040a22;fill-opacity:1;fill-rule:nonzero;stroke:none;stroke-width:1;stroke-linecap:butt;stroke-linejoin:miter;stroke-miterlimit:4;stroke-dasharray:none;stroke-dashoffset:0;stroke-opacity:1;color-rendering:auto;image-rendering:auto;shape-rendering:auto;text-rendering:auto;enable-background:accumulate"
       id="rect8176"
       width="48.487324"
       height="28.284271"
       x="932.37079"
       y="100.79851" />
  </g>
</svg>
