<?xml version="1.0" encoding="UTF-8" standalone="no"?>
<!-- Created with Inkscape (http://www.inkscape.org/) -->

<svg
   xmlns:dc="http://purl.org/dc/elements/1.1/"
   xmlns:cc="http://creativecommons.org/ns#"
   xmlns:rdf="http://www.w3.org/1999/02/22-rdf-syntax-ns#"
   xmlns:svg="http://www.w3.org/2000/svg"
   xmlns="http://www.w3.org/2000/svg"
   xmlns:xlink="http://www.w3.org/1999/xlink"
   xmlns:sodipodi="http://sodipodi.sourceforge.net/DTD/sodipodi-0.dtd"
   xmlns:inkscape="http://www.inkscape.org/namespaces/inkscape"
   width="400"
   height="400"
   viewBox="0 0 400 400.00001"
   id="svg4527"
   version="1.1"
   inkscape:version="0.91 r"
   sodipodi:docname="spacebox_profile.svg">
  <defs
     id="defs4529">
    <linearGradient
       inkscape:collect="always"
       id="linearGradient6117">
      <stop
         style="stop-color:#040a22;stop-opacity:1"
         offset="0"
         id="stop6119" />
      <stop
         style="stop-color:#091a51;stop-opacity:1"
         offset="1"
         id="stop6121" />
    </linearGradient>
    <linearGradient
       inkscape:collect="always"
       xlink:href="#linearGradient6117"
       id="linearGradient5121"
       gradientUnits="userSpaceOnUse"
       gradientTransform="matrix(0.53756609,0,0,1.0269443,-5.6282082e-6,652.36209)"
       x1="333.75439"
       y1="388.49979"
       x2="333.75439"
       y2="0" />
  </defs>
  <sodipodi:namedview
     id="base"
     pagecolor="#ffffff"
     bordercolor="#666666"
     borderopacity="1.0"
     inkscape:pageopacity="0.0"
     inkscape:pageshadow="2"
     inkscape:zoom="1.36"
     inkscape:cx="200"
     inkscape:cy="200"
     inkscape:document-units="px"
     inkscape:current-layer="layer1"
     showgrid="false"
     units="px"
     inkscape:window-width="1368"
     inkscape:window-height="713"
     inkscape:window-x="0"
     inkscape:window-y="30"
     inkscape:window-maximized="1" />
  <metadata
     id="metadata4532">
    <rdf:RDF>
      <cc:Work
         rdf:about="">
        <dc:format>image/svg+xml</dc:format>
        <dc:type
           rdf:resource="http://purl.org/dc/dcmitype/StillImage" />
        <dc:title />
      </cc:Work>
    </rdf:RDF>
  </metadata>
  <g
     inkscape:label="Capa 1"
     inkscape:groupmode="layer"
     id="layer1"
     transform="translate(0,-652.36216)">
    <rect
       y="652.36218"
       x="0"
       height="400"
       width="400"
       id="rect5119"
       style="color:#000000;clip-rule:nonzero;display:inline;overflow:visible;visibility:visible;opacity:1;isolation:auto;mix-blend-mode:normal;color-interpolation:sRGB;color-interpolation-filters:linearRGB;solid-color:#000000;solid-opacity:1;fill:url(#linearGradient5121);fill-opacity:1;fill-rule:nonzero;stroke:none;stroke-width:1;stroke-linecap:butt;stroke-linejoin:miter;stroke-miterlimit:4;stroke-dasharray:none;stroke-dashoffset:0;stroke-opacity:1;color-rendering:auto;image-rendering:auto;shape-rendering:auto;text-rendering:auto;enable-background:accumulate" />
    <g
       id="g4178">
      <path
         style="color:#000000;clip-rule:nonzero;display:inline;overflow:visible;visibility:visible;opacity:1;isolation:auto;mix-blend-mode:normal;color-interpolation:sRGB;color-interpolation-filters:linearRGB;solid-color:#000000;solid-opacity:1;fill:#ffffff;fill-opacity:1;fill-rule:nonzero;stroke:none;stroke-width:1;stroke-linecap:butt;stroke-linejoin:miter;stroke-miterlimit:4;stroke-dasharray:none;stroke-dashoffset:0;stroke-opacity:1;color-rendering:auto;image-rendering:auto;shape-rendering:auto;text-rendering:auto;enable-background:accumulate"
         d="m 197.98809,820.15161 -37.03929,21.47536 0.0791,42.81497 5.74241,3.30141 c -10.81401,14.18696 -23.10592,23.43053 -36.76777,29.80981 -16.26662,7.59558 -33.55477,10.06244 -48.261574,10.88693 11.050381,2.36097 32.133844,1.19728 50.221564,-4.17442 18.06823,-5.36594 36.95685,-15.68132 53.24157,-35.48748 l 0.005,9.47807 -0.32726,-0.1007 13.26409,7.62508 37.03929,-21.47536 -0.0791,-42.81407 -37.11751,-21.3396 z"
         id="path5125"
         inkscape:connector-curvature="0" />
      <path
         d="m 52.189759,895.25415 0,-64.73357 53.986791,0 q 6.06877,0 9.77746,1.01146 3.7087,0.96932 5.68948,2.90795 2.02292,1.89649 2.69723,4.7623 0.67431,2.86581 0.67431,6.57451 0,2.69723 -0.46359,4.7623 -0.46358,2.06507 -1.22218,3.58226 -0.7586,1.51719 -1.72792,2.5708 -0.96931,1.01146 -1.98078,1.68577 -2.36007,1.60148 -5.39446,1.8122 3.79298,0.21072 6.74308,1.85435 1.26433,0.71645 2.44437,1.8122 1.22218,1.05361 2.14935,2.65509 0.96932,1.55934 1.55934,3.70869 0.59002,2.10722 0.59002,4.88874 0,3.37154 -0.33715,6.1952 -0.29501,2.78152 -1.26433,5.01517 -0.96932,2.23364 -2.78152,3.91941 -1.8122,1.68577 -4.84659,2.82367 -2.99224,1.09575 -7.37524,1.64363 -4.34086,0.54787 -10.40964,0.54787 l -48.508031,0 z m 45.810804,-6.74308 q 4.720157,0 8.175987,-0.12643 3.45583,-0.16858 5.85805,-0.63217 2.40222,-0.50573 3.87727,-1.39076 1.47505,-0.92717 2.27579,-2.40222 0.84289,-1.51719 1.1379,-3.66655 0.295,-2.14936 0.295,-5.18374 0,-2.36008 -0.295,-4.088 -0.29501,-1.77005 -1.1379,-2.95009 -0.80074,-1.22219 -2.27579,-1.93864 -1.47505,-0.7586 -3.87727,-1.18004 -2.40222,-0.42144 -5.85805,-0.54787 -3.45583,-0.16858 -8.175987,-0.16858 l -37.719107,0 0,24.27509 37.719107,0 z m 0,-31.01817 q 4.130137,0 7.122377,-0.16858 2.99224,-0.16858 5.09946,-0.63216 2.10721,-0.46359 3.41368,-1.26433 1.30647,-0.84288 2.02293,-2.14936 0.75859,-1.30647 1.01146,-3.11867 0.25286,-1.85435 0.25286,-4.383 0,-2.69724 -0.59002,-4.38301 -0.59002,-1.68577 -2.10721,-2.5708 -1.51719,-0.92717 -4.13014,-1.22218 -2.5708,-0.33715 -6.61664,-0.33715 l -43.197864,0 0,20.22924 37.719107,0 z"
         style="font-style:normal;font-variant:normal;font-weight:normal;font-stretch:normal;font-size:86.31143188px;line-height:125%;font-family:Michroma;-inkscape-font-specification:Michroma;text-align:center;letter-spacing:0px;word-spacing:0px;text-anchor:middle;fill:#ffffff;fill-opacity:1;stroke:none;stroke-width:1px;stroke-linecap:butt;stroke-linejoin:miter;stroke-opacity:1"
         id="path4168"
         inkscape:connector-curvature="0" />
      <path
         d="m 309.75397,861.1173 38.05626,34.13685 -11.46324,0 -32.24035,-28.91096 -31.14461,28.91096 -11.46324,0 36.79194,-34.13685 -34.0947,-30.59672 11.46323,0 28.23665,25.37084 27.35162,-25.37084 11.46324,0 -32.9568,30.59672 z"
         style="font-style:normal;font-variant:normal;font-weight:normal;font-stretch:normal;font-size:86.31143188px;line-height:125%;font-family:Michroma;-inkscape-font-specification:Michroma;text-align:center;letter-spacing:0px;word-spacing:0px;text-anchor:middle;fill:#ffffff;fill-opacity:1;stroke:none;stroke-width:1px;stroke-linecap:butt;stroke-linejoin:miter;stroke-opacity:1"
         id="path4165"
         inkscape:connector-curvature="0" />
      <path
         id="path4154"
         transform="translate(0,652.36216)"
         d="M 115.11719 122.75977 C 113.00735 122.75977 111.17363 122.8383 109.61523 122.99414 C 108.05683 123.14998 106.72032 123.38363 105.60547 123.69531 C 104.5026 123.99501 103.5979 124.37259 102.89062 124.82812 C 102.18335 125.28366 101.62438 125.80518 101.2168 126.39258 C 100.80922 126.96799 100.52889 127.61472 100.37305 128.33398 C 100.22919 129.05324 100.15625 129.83274 100.15625 130.67188 C 100.15625 131.47506 100.20488 132.22464 100.30078 132.91992 C 100.39668 133.60322 100.60043 134.22759 100.91211 134.79102 C 101.23578 135.35444 101.70308 135.85723 102.31445 136.30078 C 102.92583 136.73233 103.74081 137.09679 104.75977 137.39648 C 105.77873 137.68419 107.0367 137.90666 108.53516 138.0625 C 110.0456 138.21834 111.85696 138.29688 113.9668 138.29688 L 118.71289 138.29688 C 120.63092 138.29688 122.18431 138.381 123.37109 138.54883 C 124.55787 138.70467 125.47376 138.97382 126.12109 139.35742 C 126.78042 139.74103 127.21977 140.25696 127.43555 140.9043 C 127.66331 141.55164 127.77539 142.36103 127.77539 143.33203 C 127.77539 144.30304 127.61469 145.1292 127.29102 145.8125 C 126.96735 146.48381 126.41033 147.02965 125.61914 147.44922 C 124.82795 147.86879 123.76618 148.17343 122.43555 148.36523 C 121.10491 148.55703 119.4319 148.6543 117.41797 148.6543 L 112.81641 148.6543 C 111.09017 148.6543 109.63964 148.6188 108.46484 148.54688 C 107.30204 148.46296 106.35988 148.2704 105.64062 147.9707 C 104.92137 147.65902 104.40543 147.19731 104.09375 146.58594 C 103.78207 145.97456 103.62695 145.12967 103.62695 144.05078 L 100.17383 144.05078 C 100.17383 144.9139 100.24677 145.70457 100.39062 146.42383 C 100.53448 147.1311 100.78686 147.76666 101.14648 148.33008 C 101.5181 148.88151 102.00777 149.36754 102.61914 149.78711 C 103.23051 150.19469 104.00441 150.53678 104.93945 150.8125 C 105.87449 151.07623 106.99048 151.27243 108.28516 151.4043 C 109.57982 151.53616 111.09017 151.60352 112.81641 151.60352 L 117.41797 151.60352 C 119.336 151.60352 121.00901 151.5138 122.43555 151.33398 C 123.87407 151.16616 125.10214 150.91378 126.12109 150.57812 C 127.14005 150.24246 127.97935 149.83498 128.63867 149.35547 C 129.29799 148.87596 129.81952 148.33012 130.20312 147.71875 C 130.58673 147.10738 130.85029 146.43632 130.99414 145.70508 C 131.14998 144.96184 131.22852 144.17117 131.22852 143.33203 C 131.22852 142.49289 131.17988 141.7134 131.08398 140.99414 C 131.00007 140.27488 130.80946 139.62619 130.50977 139.05078 C 130.21007 138.46339 129.78386 137.94381 129.23242 137.48828 C 128.68099 137.03275 127.93895 136.65516 127.00391 136.35547 C 126.08085 136.04379 124.94055 135.80818 123.58594 135.65234 C 122.23133 135.4965 120.60695 135.41992 118.71289 135.41992 L 113.9668 135.41992 C 112.43237 135.41992 111.10705 135.39001 109.99219 135.33008 C 108.88932 135.25815 107.95471 135.14412 107.1875 134.98828 C 106.42029 134.83244 105.80346 134.63428 105.33594 134.39453 C 104.86842 134.15478 104.50201 133.86131 104.23828 133.51367 C 103.98654 133.15404 103.81829 132.74096 103.73438 132.27344 C 103.65046 131.80592 103.60938 131.27126 103.60938 130.67188 C 103.60938 129.70087 103.77762 128.89148 104.11328 128.24414 C 104.44893 127.59681 105.04704 127.08283 105.91016 126.69922 C 106.77327 126.31561 107.94907 126.04451 109.43555 125.88867 C 110.92202 125.72085 112.81555 125.63672 115.11719 125.63672 L 118.57031 125.63672 C 120.29655 125.63672 121.74708 125.67976 122.92188 125.76367 C 124.09667 125.8356 125.04246 126.02621 125.76172 126.33789 C 126.48098 126.63758 126.99691 127.0937 127.30859 127.70508 C 127.62028 128.31645 127.77539 129.16135 127.77539 130.24023 L 131.22852 130.24023 C 131.22852 129.37712 131.15753 128.59204 131.01367 127.88477 C 130.86983 127.17749 130.61185 126.54948 130.24023 125.99805 C 129.8806 125.43463 129.38898 124.95419 128.76562 124.55859 C 128.15425 124.15101 127.38035 123.81451 126.44531 123.55078 C 125.51027 123.27506 124.39624 123.07886 123.10156 122.95898 C 121.8069 122.82712 120.29655 122.75977 118.57031 122.75977 L 115.11719 122.75977 z M 237.08594 122.75977 C 234.9761 122.75977 233.1966 122.89252 231.74609 123.15625 C 230.30757 123.408 229.12059 123.79676 228.18555 124.32422 C 227.25051 124.83969 226.52524 125.49397 226.00977 126.28516 C 225.50629 127.07635 225.13428 128.00537 224.89453 129.07227 C 224.66673 130.13917 224.53593 131.34292 224.5 132.68555 C 224.46407 134.02817 224.44531 135.51616 224.44531 137.14648 C 224.44531 138.77681 224.46407 140.26285 224.5 141.60547 C 224.53597 142.9481 224.66676 144.15185 224.89453 145.21875 C 225.13428 146.28566 225.50629 147.21467 226.00977 148.00586 C 226.52524 148.79705 227.25051 149.45692 228.18555 149.98438 C 229.12059 150.49985 230.30757 150.88303 231.74609 151.13477 C 233.1966 151.3985 234.9761 151.53125 237.08594 151.53125 L 245.16016 151.53125 C 246.88638 151.53125 248.39673 151.44712 249.69141 151.2793 C 250.98608 151.12346 252.10012 150.87668 253.03516 150.54102 C 253.9702 150.19338 254.7441 149.75598 255.35547 149.22852 C 255.96684 148.70106 256.45287 148.07863 256.8125 147.35938 C 257.18412 146.62812 257.44208 145.80001 257.58594 144.87695 C 257.72979 143.94191 257.80078 142.89886 257.80078 141.74805 L 254.34766 141.74805 C 254.34766 142.70706 254.30657 143.54637 254.22266 144.26562 C 254.13874 144.9729 253.97608 145.58414 253.73633 146.09961 C 253.50856 146.6031 253.18519 147.02372 252.76562 147.35938 C 252.34605 147.69503 251.79463 147.95858 251.11133 148.15039 C 250.42803 148.34219 249.60186 148.47495 248.63086 148.54688 C 247.65985 148.6188 246.50278 148.6543 245.16016 148.6543 L 237.08594 148.6543 C 235.55151 148.6543 234.25609 148.61126 233.20117 148.52734 C 232.15825 148.43144 231.29658 148.24642 230.61328 147.9707 C 229.92998 147.69499 229.40287 147.29868 229.03125 146.7832 C 228.67162 146.26773 228.40611 145.5855 228.23828 144.73438 C 228.07043 143.88325 227.96953 142.8402 227.93359 141.60547 C 227.90959 140.35875 227.89844 138.87271 227.89844 137.14648 C 227.89844 135.42026 227.90959 133.93981 227.93359 132.70508 C 227.95757 131.45836 228.05288 130.40777 228.2207 129.55664 C 228.38853 128.70551 228.65963 128.02329 229.03125 127.50781 C 229.40287 126.99234 229.92998 126.59603 230.61328 126.32031 C 231.29658 126.04459 232.15825 125.86516 233.20117 125.78125 C 234.25609 125.68535 235.55151 125.63672 237.08594 125.63672 L 245.16016 125.63672 C 246.88638 125.63672 248.33133 125.69653 249.49414 125.81641 C 250.66894 125.93629 251.61472 126.21297 252.33398 126.64453 C 253.05324 127.07608 253.56918 127.71164 253.88086 128.55078 C 254.19254 129.38992 254.34766 130.52828 254.34766 131.9668 L 257.80078 131.9668 C 257.80078 130.91188 257.72979 129.95296 257.58594 129.08984 C 257.44208 128.22672 257.18412 127.45282 256.8125 126.76953 C 256.45287 126.08623 255.96684 125.49372 255.35547 124.99023 C 254.7441 124.48675 253.9702 124.07367 253.03516 123.75 C 252.10012 123.41434 250.98608 123.16756 249.69141 123.01172 C 248.39673 122.84389 246.88638 122.75977 245.16016 122.75977 L 237.08594 122.75977 z M 141.58594 123.33594 L 141.58594 150.95508 L 145.03906 150.95508 L 145.03906 140.02344 L 159.98047 140.02344 C 162.0903 140.02344 163.86616 139.93931 165.30469 139.77148 C 166.75519 139.60365 167.94777 139.35687 168.88281 139.0332 C 169.82985 138.70954 170.55511 138.30763 171.05859 137.82812 C 171.57407 137.33663 171.94411 136.77402 172.17188 136.13867 C 172.41166 135.49134 172.55 134.77166 172.58594 133.98047 C 172.63387 133.18928 172.6582 132.32566 172.6582 131.39062 C 172.6582 130.49155 172.63952 129.67097 172.60352 128.92773 C 172.57954 128.1845 172.47305 127.51345 172.28125 126.91406 C 172.08944 126.31468 171.78285 125.79316 171.36328 125.34961 C 170.95569 124.90607 170.36877 124.53407 169.60156 124.23438 C 168.83435 123.93468 167.85671 123.71417 166.66992 123.57031 C 165.49513 123.41447 164.05018 123.33594 162.33594 123.33594 L 141.58594 123.33594 z M 195.67383 123.33594 L 179.5625 150.95508 L 183.5918 150.95508 L 187.04297 144.62695 L 208.9082 144.62695 L 212.36133 150.95508 L 216.38867 150.95508 L 200.27734 123.33594 L 195.67383 123.33594 z M 268.17578 123.33594 L 268.17578 150.95508 L 295.79492 150.95508 L 295.79492 148.07812 L 271.62891 148.07812 L 271.62891 138.29688 L 294.64453 138.29688 L 294.64453 135.41992 L 271.62891 135.41992 L 271.62891 126.21289 L 295.79492 126.21289 L 295.79492 123.33594 L 268.17578 123.33594 z M 197.97656 125.63672 L 207.18359 141.74805 L 188.76953 141.74805 L 197.97656 125.63672 z M 145.03906 126.21289 L 159.98047 126.21289 C 161.5149 126.21289 162.80473 126.23164 163.84766 126.26758 C 164.90258 126.30354 165.77178 126.38767 166.45508 126.51953 C 167.13838 126.63941 167.66549 126.81325 168.03711 127.04102 C 168.40873 127.26878 168.67788 127.57342 168.8457 127.95703 C 169.0255 128.34064 169.12834 128.81353 169.15234 129.37695 C 169.18828 129.94037 169.20508 130.61338 169.20508 131.39258 C 169.20508 132.23172 169.18828 132.95699 169.15234 133.56836 C 169.12836 134.16775 169.02552 134.68173 168.8457 135.11328 C 168.67788 135.54484 168.40873 135.89252 168.03711 136.15625 C 167.66549 136.41998 167.13838 136.62372 166.45508 136.76758 C 165.77178 136.91143 164.90258 137.01429 163.84766 137.07422 C 162.80473 137.12215 161.5149 137.14648 159.98047 137.14648 L 145.03906 137.14648 L 145.03906 126.21289 z "
         style="font-style:normal;font-variant:normal;font-weight:normal;font-stretch:normal;font-size:medium;line-height:125%;font-family:Michroma;-inkscape-font-specification:Michroma;text-align:center;letter-spacing:4.60327625px;word-spacing:0px;text-anchor:middle;fill:#ffffff;fill-opacity:1;stroke:none;stroke-width:1px;stroke-linecap:butt;stroke-linejoin:miter;stroke-opacity:1" />
    </g>
  </g>
</svg>
