<?xml version="1.0" encoding="UTF-8" standalone="no"?>
<!-- Created with Inkscape (http://www.inkscape.org/) -->

<svg
   xmlns:dc="http://purl.org/dc/elements/1.1/"
   xmlns:cc="http://creativecommons.org/ns#"
   xmlns:rdf="http://www.w3.org/1999/02/22-rdf-syntax-ns#"
   xmlns:svg="http://www.w3.org/2000/svg"
   xmlns="http://www.w3.org/2000/svg"
   xmlns:xlink="http://www.w3.org/1999/xlink"
   xmlns:sodipodi="http://sodipodi.sourceforge.net/DTD/sodipodi-0.dtd"
   xmlns:inkscape="http://www.inkscape.org/namespaces/inkscape"
   width="828"
   height="315"
   viewBox="0 0 827.99997 315"
   id="svg4797"
   version="1.1"
   inkscape:version="0.91 r"
   sodipodi:docname="spacebox_banner_facebook.svg"
   inkscape:export-filename="/media/Datos/Dropbox/mergusprojects/spacebox_banner_1500_v2.png"
   inkscape:export-xdpi="163.14279"
   inkscape:export-ydpi="163.14279">
  <defs
     id="defs4799">
    <linearGradient
       inkscape:collect="always"
       id="linearGradient6117">
      <stop
         style="stop-color:#040a22;stop-opacity:1"
         offset="0"
         id="stop6119" />
      <stop
         style="stop-color:#091a51;stop-opacity:1"
         offset="1"
         id="stop6121" />
    </linearGradient>
    <linearGradient
       gradientTransform="matrix(1.8780785,0,0,1.3649256,137.55063,55.188064)"
       inkscape:collect="always"
       xlink:href="#linearGradient6117"
       id="linearGradient6123-8"
       x1="333.75439"
       y1="388.49979"
       x2="333.75439"
       y2="0"
       gradientUnits="userSpaceOnUse" />
  </defs>
  <sodipodi:namedview
     id="base"
     pagecolor="#ffffff"
     bordercolor="#666666"
     borderopacity="1.0"
     inkscape:pageopacity="0"
     inkscape:pageshadow="2"
     inkscape:zoom="1.4082126"
     inkscape:cx="414"
     inkscape:cy="157.5"
     inkscape:document-units="px"
     inkscape:current-layer="layer2"
     showgrid="false"
     fit-margin-top="0"
     fit-margin-left="0"
     fit-margin-right="0"
     fit-margin-bottom="0"
     inkscape:snap-page="true"
     units="px"
     inkscape:window-width="1368"
     inkscape:window-height="713"
     inkscape:window-x="0"
     inkscape:window-y="30"
     inkscape:window-maximized="1" />
  <metadata
     id="metadata4802">
    <rdf:RDF>
      <cc:Work
         rdf:about="">
        <dc:format>image/svg+xml</dc:format>
        <dc:type
           rdf:resource="http://purl.org/dc/dcmitype/StillImage" />
        <dc:title />
      </cc:Work>
    </rdf:RDF>
  </metadata>
  <g
     inkscape:label="bg"
     inkscape:groupmode="layer"
     id="layer1"
     transform="translate(165.42857,-134.86221)" />
  <g
     inkscape:groupmode="layer"
     id="layer2"
     inkscape:label="estrellas"
     style="display:inline">
    <g
       transform="matrix(0.59250014,0,0,0.59250014,-81.498771,-32.698905)"
       id="g4831">
      <rect
         y="55.188103"
         x="137.55064"
         height="531.64545"
         width="1397.468"
         id="rect5503-1"
         style="color:#000000;clip-rule:nonzero;display:inline;overflow:visible;visibility:visible;opacity:1;isolation:auto;mix-blend-mode:normal;color-interpolation:sRGB;color-interpolation-filters:linearRGB;solid-color:#000000;solid-opacity:1;fill:url(#linearGradient6123-8);fill-opacity:1;fill-rule:nonzero;stroke:none;stroke-width:1;stroke-linecap:butt;stroke-linejoin:miter;stroke-miterlimit:4;stroke-dasharray:none;stroke-dashoffset:0;stroke-opacity:1;color-rendering:auto;image-rendering:auto;shape-rendering:auto;text-rendering:auto;enable-background:accumulate" />
      <path
         inkscape:connector-curvature="0"
         id="path5-3"
         d="m 202.24809,280.23296 c -22.86068,0 -44.68232,4.47411 -64.69746,12.52365 l 0,11.08426 c 5.77066,-2.49223 11.69396,-4.69749 17.78376,-6.52172 0.50245,0.69932 0.84137,1.51229 0.93736,2.41232 0.091,0.84381 0.0387,2.40611 -1.1862,3.80729 -0.97559,1.11355 -1.72006,2.40801 -2.4079,3.71845 l -15.12702,28.81018 0,15.80226 c 2.85598,-1.50618 5.26707,-3.82558 6.81948,-6.78382 l 17.11731,-32.61303 c 0.48949,-0.93328 1.02265,-1.84476 1.68366,-2.66555 2.52367,-3.12588 3.70578,-7.09609 3.26974,-11.16421 -0.15012,-1.4025 -0.50087,-2.74213 -0.99968,-4.01165 11.83361,-2.72828 24.15628,-4.17159 36.80695,-4.1716 31.09633,0 60.19237,8.71271 84.98214,23.82558 l -17.37502,-0.48424 c -10.24049,-0.27104 -20.04175,4.42083 -26.22458,12.59029 l -15.70454,20.75576 c -0.55091,0.72746 -0.96125,1.56936 -1.08385,2.47451 -0.30822,2.26676 0.86389,4.35131 2.7766,5.30892 l 16.54865,8.27206 c 0,0 -20.6675,8.47568 -20.85789,8.58309 -3.78174,2.1491 -5.94558,6.38044 -5.33554,10.85767 0.38988,2.8625 2.03282,5.4104 4.31357,7.18366 l 8.94306,6.9571 c 2.84325,2.21303 6.58292,2.85205 10.00029,1.71039 l 19.41851,-6.4684 38.33503,20.03604 c 0.37464,0.19562 0.55433,0.62543 0.43537,1.0307 0,0 -3.41464,11.8053 -3.46968,12.23487 l -48.85075,-8.88072 c -1.03791,-0.18924 -2.10765,-0.0528 -3.06526,0.39094 l -42.59992,19.77838 c -2.52389,1.17235 -3.64664,4.14824 -2.52799,6.69498 l 21.43996,48.81512 c 0.70331,1.60067 2.17657,2.73283 3.90505,2.99875 l 25.20282,3.87838 13.3012,69.1755 c 1.17483,6.10858 6.54245,10.54669 12.76349,10.54669 l 12.06153,0 c 5.68925,0 10.66381,-3.64528 12.3859,-9.06732 l 26.7266,-84.17809 c 1.09453,-3.44678 0.33413,-7.19858 -2.10129,-9.98695 -1.78738,-2.04684 -4.37747,-3.22086 -7.08152,-3.49187 l -4.91791,-0.49311 -8.28092,-31.0448 c 16.86936,22.1164 19.13874,22.1374 21.70199,22.1374 2.24503,0 4.57286,-0.72287 16.04208,-10.36898 4.11544,-3.46086 6.60592,-8.52427 6.83724,-13.89642 0.23133,-5.36962 -1.8165,-10.62988 -5.61986,-14.42952 l -0.10687,-0.10674 18.19251,1.03956 c 1.73347,9.53233 2.64331,19.34539 2.64331,29.36993 0,54.50392 -26.78959,102.84164 -67.86507,132.62449 l 16.53978,0 c 37.61626,-31.93822 61.55214,-79.52406 61.55214,-132.62006 0,-95.93314 -78.04734,-173.9805 -173.98055,-173.9805 z m 95.14234,40.7785 c 2.79867,2.00465 5.52774,4.09638 8.19221,6.26847 l -12.73687,12.23488 -6.4062,-7.39689 c -10e-4,10e-4 10.69382,-10.24605 10.95086,-11.10646 z m -27.81954,3.01206 10.24026,0.28879 -3.95394,3.6518 c -2.02758,1.87297 -2.20182,5.01593 -0.39532,7.10367 l 13.17222,15.21142 c 0.91804,1.05985 2.23411,1.69979 3.63413,1.7637 1.40366,0.0678 2.76479,-0.45125 3.77608,-1.42163 l 17.28608,-16.60638 c 23.02149,21.29307 39.9327,49.09354 47.78008,80.45077 l -28.76145,-1.63487 c -2.1222,-0.12008 -4.0911,1.07645 -4.95772,3.01208 -0.86686,1.93689 -0.44946,4.20908 1.05292,5.70873 l 9.60041,9.59598 c 1.80513,1.8052 2.73863,4.20217 2.62989,6.75274 -0.10916,2.55185 -1.24829,4.86425 -3.20309,6.50838 -4.67021,3.92749 -7.39474,5.98473 -8.93395,7.05482 -3.19879,-3.32406 -10.13587,-11.7882 -20.26264,-25.40271 l 2.95859,-10.08465 c 1.48963,-5.07173 -0.82886,-10.5285 -5.51318,-12.97679 l -40.25412,-21.04454 c -1.23125,-0.64309 -2.66948,-0.75838 -3.98511,-0.31985 l -21.48431,7.15698 c -0.16377,0.0536 -0.34369,0.0244 -0.48427,-0.0844 l -9.2094,-7.16143 c -0.0592,-0.0473 -0.22291,-0.16877 -0.20472,-0.44871 0,-0.15467 0.0728,-0.25466 0.13423,-0.31985 l 30.23629,-12.37705 c 1.85768,-0.76067 3.09666,-2.5344 3.17194,-4.54032 0.0751,-2.00594 -1.0272,-3.86941 -2.82095,-4.7669 l -21.12015,-10.56001 12.08383,-15.9711 c 4.19345,-5.53964 10.87033,-8.72786 17.78807,-8.53867 z m -20.70231,102.7792 45.41655,8.25877 11.33298,42.50222 c 0.54841,2.05708 2.31533,3.56079 4.43366,3.77175 l 8.77862,0.87963 0.11145,0.17333 -26.72205,84.17809 c -0.36688,1.15575 -1.42572,1.93252 -2.63899,1.93252 l -12.06154,0 c -1.327,0 -2.46954,-0.94518 -2.71884,-2.24794 l -13.98539,-72.71178 c -0.40783,-2.12226 -2.10629,-3.75734 -4.24259,-4.08719 l -25.98917,-4.00277 -18.29896,-41.66255 36.58473,-16.98401 z m -111.31795,53.66199 0,10.23572 27.81067,1.11508 1.26603,34.22568 c -5.70652,6.44009 -23.67815,29.86268 -14.91821,60.79233 l 10.73341,0 c -10.80733,-31.70697 11.81884,-54.11402 12.90564,-55.16357 1.05859,-1.01129 1.63203,-2.42468 1.5772,-3.88727 l -1.51942,-41.07614 c -0.0978,-2.66947 -2.23526,-4.81496 -4.90451,-4.92238 l -32.95081,-1.31945 z m 0,99.4295 0,6.93931 6.39732,0 c -2.53914,-2.22306 -4.66089,-4.57743 -6.39732,-6.93931 z"
         style="opacity:0.8;fill:#ffffff" />
      <path
         style="opacity:0.83999999;fill:#ffffff"
         d="m 320.63313,284.4366 c -0.12996,0.25124 -0.38548,0.39537 -0.65013,0.39537 -0.11308,0 -0.22801,-0.0263 -0.33552,-0.0819 -0.84574,-0.43755 -1.61823,-1.00325 -2.2962,-1.68135 -0.67815,-0.67824 -1.24389,-1.45075 -1.68119,-2.29618 -0.18565,-0.35877 -0.0456,-0.79998 0.31342,-0.98557 0.35882,-0.18559 0.8,-0.0452 0.98549,0.3135 0.36827,0.71161 0.84489,1.3624 1.41654,1.93411 0.57147,0.57156 1.22227,1.04812 1.93417,1.41647 0.35865,0.18557 0.49908,0.62687 0.31342,0.98554 z m 1.22498,-3.54584 c -0.50734,-0.23735 -0.96759,-0.56068 -1.36776,-0.96076 -0.4,-0.40027 -0.72355,-0.86059 -0.96118,-1.36819 -0.17131,-0.36575 -0.60659,-0.52337 -0.97249,-0.35208 -0.36574,0.17127 -0.52338,0.60666 -0.35207,0.97247 0.30987,0.66174 0.73097,1.26115 1.25148,1.78201 0.52084,0.52067 1.1205,0.94177 1.7821,1.25134 0.0996,0.0469 0.20574,0.0692 0.30954,0.0692 0.27511,0 0.53857,-0.15595 0.66295,-0.42157 0.17097,-0.36581 0.0169,-0.8011 -0.35257,-0.97231 z m 18.91493,-17.53716 c -0.2854,-0.28562 -0.74852,-0.28554 -1.03409,0 l -5.1897,5.18965 c -0.28557,0.28559 -0.28557,0.74859 0,1.03419 0.14346,0.14296 0.32995,0.21421 0.51713,0.21421 0.18717,0 0.37434,-0.0714 0.51713,-0.21421 l 5.18953,-5.18963 c 0.28574,-0.28561 0.28574,-0.74859 0,-1.03421 z m 10.0773,10.74111 0,0 -1.33975,1.3398 c -10e-4,0.001 0,0.003 0,0.005 -10e-4,0.001 0,0.003 0,0.005 l -2.86717,2.86702 c -5.1e-4,6.6e-4 -10e-4,10e-4 0,0.003 -6.7e-4,6.6e-4 -10e-4,0.001 0,0.003 l -1.34143,1.34156 c -1.05148,1.05151 -2.76254,1.05142 -3.81401,0 l -2.78009,-2.78002 c -0.50784,-0.50785 -0.78751,-1.18503 -0.78751,-1.90699 0,-0.72194 0.27967,-1.39914 0.78751,-1.90698 l 0.8265,-0.82637 -1.44489,-1.44479 -1.75308,1.75291 c -1.30717,1.307 -3.43376,1.30684 -4.74076,0 l -0.40962,-0.40962 -1.53519,1.53517 c 0.3654,0.78127 0.55781,1.63988 0.55781,2.52795 0,1.59546 -0.62127,3.09543 -1.74954,4.22366 -0.11308,0.1141 -0.23629,0.22672 -0.36321,0.33445 -0.13333,0.11274 -0.30092,0.17381 -0.47324,0.17381 -0.0304,0 -0.0625,-0.003 -0.0928,-0.005 -0.20388,-0.026 -0.38734,-0.13671 -0.50549,-0.30471 -0.33856,-0.48128 -0.69941,-0.95962 -1.08101,-1.43301 -1.31274,0.9944 -3.19645,0.89323 -4.39291,-0.30317 -1.19662,-1.19673 -1.29772,-3.08032 -0.30329,-4.39293 -0.47342,-0.38158 -0.95156,-0.74234 -1.43291,-1.08109 -0.16878,-0.11815 -0.27865,-0.30164 -0.30464,-0.50542 -0.027,-0.20378 0.0354,-0.40913 0.16709,-0.56579 0.10801,-0.12726 0.22076,-0.24969 0.33519,-0.36395 1.1281,-1.1279 2.62767,-1.74893 4.22312,-1.74893 0.8881,0 1.74666,0.19256 2.52793,0.55781 l 1.53536,-1.53507 -0.40979,-0.40971 c -1.30701,-1.30707 -1.30701,-3.43379 0,-4.74086 l 1.75308,-1.75301 -1.4449,-1.44481 -0.82633,0.82646 c -1.05147,1.05145 -2.76236,1.05145 -3.814,0 l -2.78009,-2.78016 c -0.50784,-0.50777 -0.78751,-1.18503 -0.78751,-1.90691 0,-0.72197 0.27967,-1.39924 0.78751,-1.907 l 4.21148,-4.21154 c 0,-0.001 0,-0.005 0,-0.005 0,-0.001 0,-0.005 0,-0.005 l 1.33873,-1.33877 c 0.50785,-0.50786 1.18515,-0.78746 1.90701,-0.78746 0.72202,0 1.39932,0.27968 1.907,0.78755 l 2.77992,2.77998 c 1.05147,1.05146 1.05147,2.76245 0,3.81391 l -0.82633,0.82643 1.44489,1.44482 1.75291,-1.75293 c 0.63106,-0.6311 1.47274,-0.97871 2.3703,-0.97871 0.14683,0 0.2913,0.0101 0.43409,0.0275 l 0.94785,-0.94777 c 1.04489,-1.04487 2.74109,-1.05127 3.79426,-0.0196 0.0354,-0.0795 0.0861,-0.15393 0.15021,-0.21908 0.28574,-0.2856 0.74869,-0.2856 1.03426,0 l 0.40962,0.40952 0.47038,-0.47038 c 0.28557,-0.28562 0.74852,-0.28562 1.03409,0 0.28574,0.28562 0.28574,0.74863 0,1.03421 l -0.47038,0.47042 0.40962,0.40969 c 0.28574,0.28562 0.28574,0.7486 0,1.03421 -0.0658,0.0651 -0.14008,0.11544 -0.21924,0.15105 0.49553,0.50555 0.7681,1.17463 0.7681,1.88714 0,0.72189 -0.27983,1.39916 -0.78768,1.907 l -0.94767,0.9477 c 0.0186,0.14295 0.027,0.2878 0.027,0.43421 0,0.89749 -0.34768,1.73929 -0.97873,2.37041 l -1.75292,1.75291 1.4449,1.44483 0.82633,-0.82648 c 0.50785,-0.50783 1.18498,-0.78744 1.907,-0.78744 0.72186,0 1.39916,0.27969 1.90701,0.78754 l 2.77991,2.78 c 0.50785,0.50776 0.78768,1.18503 0.78768,1.90699 0,0.72197 -0.27966,1.39914 -0.78768,1.90698 z m -6.38616,-4.7334 1.74548,1.7456 1.69925,-1.69927 -0.87275,-0.87286 c -0.23156,-0.23158 -0.5416,-0.35907 -0.87274,-0.35907 -0.33131,0 -0.64118,0.12742 -0.87274,0.35907 l -0.8265,0.82653 z m -1.03426,1.03423 -1.83865,1.83863 1.74565,1.74555 1.83865,-1.83867 -1.74565,-1.74551 z m -3.84321,-14.08778 c 0.15696,0.11055 0.30616,0.23561 0.4449,0.37433 l 3.70649,3.70656 c 0.1384,0.13857 0.26363,0.28739 0.37418,0.44471 l 0.49047,-0.49053 c 0.23156,-0.23166 0.35915,-0.54165 0.35915,-0.87286 0,-0.33119 -0.12827,-0.64118 -0.35915,-0.87276 l -2.77992,-2.78008 c -0.48135,-0.4812 -1.26447,-0.48113 -1.74565,0 l -0.49047,0.49063 z m -10.27358,-2.09738 1.74565,1.74553 0.8265,-0.82638 c 0.48118,-0.48126 0.48118,-1.26432 0,-1.74553 l -0.87291,-0.87283 -1.69924,1.69921 z m -2.77992,-2.77992 1.74583,1.74569 1.69924,-1.69921 -0.87308,-0.87301 c -0.23156,-0.23158 -0.54144,-0.35907 -0.87275,-0.35907 -0.3313,0 -0.64118,0.12759 -0.87274,0.35914 l -0.8265,0.82646 z m -2.87274,2.87288 1.74566,1.74568 1.83865,-1.83854 -1.74566,-1.74579 -1.83865,1.83865 z m 0.71156,2.77983 -1.74582,-1.74561 -0.82633,0.82637 c -0.23173,0.23166 -0.35915,0.54155 -0.35915,0.87277 0,0.33119 0.12827,0.6411 0.35915,0.87268 l 0.87291,0.87301 1.69924,-1.69922 z m 2.77975,2.77991 -1.74565,-1.7456 -1.69924,1.69921 0.87291,0.87294 c 0.48118,0.4811 1.26413,0.4811 1.74548,0 l 0.8265,-0.82655 z m 1.03426,-1.03422 1.83848,-1.83864 -1.74548,-1.74563 -1.83865,1.83858 1.74565,1.74569 z m 2.47899,2.47903 1.83865,-1.83863 -1.4449,-1.44483 -1.83865,1.83865 1.4449,1.44481 z m -5.68135,16.7576 c -0.40709,-0.4572 -0.83308,-0.90844 -1.27679,-1.35215 -0.44355,-0.44368 -0.89486,-0.86979 -1.35207,-1.27688 -0.50886,0.73604 -0.43612,1.75563 0.21856,2.41031 0.65469,0.65465 1.67427,0.72746 2.4103,0.21872 z m 3.75105,-1.86962 c 0,-1.20477 -0.4692,-2.33747 -1.32118,-3.18928 -0.85181,-0.85195 -1.98447,-1.32113 -3.18936,-1.32113 -1.06296,0 -2.06971,0.36516 -2.87697,1.03618 1.16254,0.87268 2.30127,1.86483 3.39393,2.95746 1.09299,1.09304 2.08506,2.23169 2.95746,3.39389 0.67106,-0.80753 1.03612,-1.8142 1.03612,-2.87712 z m 1.40574,-5.0973 -0.81873,-0.81875 -1.30262,1.30262 c 0.14852,0.12236 0.29114,0.2523 0.42869,0.38994 0.1384,0.13755 0.26768,0.28074 0.38988,0.42888 l 1.30278,-1.30269 z m 10.28827,-4.72843 c 0.002,-10e-4 0,-0.005 0,-0.005 0.002,-10e-4 0,-0.005 0,-0.005 l 2.26515,-2.2651 c 0.35493,-0.35492 0.55037,-0.82936 0.55037,-1.33617 0,-0.15915 -0.0202,-0.31519 -0.0574,-0.46535 0,-0.0169 -0.0169,-0.0322 -0.0169,-0.0488 -0.0861,-0.30876 -0.24945,-0.5908 -0.48067,-0.82215 l -3.7065,-3.70656 c -0.23088,-0.23092 -0.51257,-0.39433 -0.82076,-0.48037 -0.0169,-0.005 -0.0354,-0.008 -0.0523,-0.0152 -0.15021,-0.0371 -0.30498,-0.0562 -0.46363,-0.0562 -0.50666,0 -0.98109,0.19541 -1.33603,0.55034 0,0 0,0 0,0 l -2.26599,2.26606 c -0.001,0.001 0,0.003 0,0.005 -0.001,0.001 0,0.003 0,0.005 l -2.86346,2.86336 c 0,0.003 0,0.005 0,0.005 0,0.003 0,0.005 0,0.005 l -2.26464,2.26461 c -0.73671,0.73674 -0.73671,1.93556 0,2.67242 l 0.91747,0.91737 c 0,0.005 0,0.005 0.0169,0.0101 0,0.005 0,0.005 0.0169,0.0101 l 1.84034,1.84027 c 0.001,0.001 0,0.003 0,0.005 0.001,0.001 0,0.003 0,0.005 l 0.92337,0.92347 c 0.73671,0.73685 1.9357,0.73666 2.67241,0 l 2.26295,-2.26288 c 0,-0.003 0,-0.005 0,-0.007 0,-0.003 0,-0.005 0,-0.007 l 2.86059,-2.86093 z m 0.12827,4.82982 1.83865,-1.83865 -1.44473,-1.44481 -1.83882,1.83866 1.4449,1.4448 z m 1.74565,3.81406 -1.74565,-1.74554 -0.8265,0.82638 c -0.23156,0.23165 -0.35916,0.54157 -0.35916,0.87276 0,0.33121 0.12827,0.6412 0.35916,0.87278 l 0.87291,0.87284 1.69924,-1.69922 z m 2.77992,2.77994 -1.74566,-1.7458 -1.69924,1.69929 0.87291,0.87301 c 0.48119,0.48122 1.26431,0.48113 1.74566,0 l 0.82633,-0.8265 z m 2.87291,-2.87281 -1.74583,-1.74578 -1.83864,1.83865 1.74582,1.7457 1.83865,-1.83857 z m 2.21991,-2.73346 c 0,-0.33118 -0.12827,-0.64118 -0.35915,-0.87275 l -0.87291,-0.87301 -1.69941,1.69929 1.74582,1.74579 0.8265,-0.82645 0,0 c 0.23156,-0.23176 0.35915,-0.54165 0.35915,-0.87287 z"
         id="XMLID_2250_-0"
         inkscape:connector-curvature="0" />
      <path
         inkscape:connector-curvature="0"
         id="path5-1-1"
         d="m 1137.7119,55.188081 c -9.27,11.64825 -8.5337,28.699267 2.2383,39.471247 5.6091,5.609132 13.0689,8.695952 21.0015,8.695952 7.9325,0 15.3891,-3.08682 20.9982,-8.695952 10.7716,-10.772183 11.5081,-27.823166 2.2381,-39.471247 l -2.2778,0 c 3.1171,3.532995 5.1987,7.664386 6.2236,12.002241 -1.4835,5.204742 -3.7163,10.011154 -6.6422,14.289955 -0.2722,0.397822 -0.1704,0.940945 0.2274,1.21308 0.1502,0.102953 0.3249,0.151561 0.4945,0.151561 0.2785,0 0.5495,-0.131815 0.7186,-0.379089 2.4044,-3.5161 4.357,-7.376066 5.8281,-11.507778 0.7721,8.028404 -1.9081,16.329785 -8.0432,22.465058 -2.5492,2.54913 -5.5076,4.544033 -8.7224,5.926952 3.8722,-2.552843 7.468,-5.718074 10.598,-9.365111 0.3139,-0.365755 0.2734,-0.919055 -0.093,-1.232861 -0.366,-0.314261 -0.9188,-0.270379 -1.2327,0.09553 -4.4149,5.143627 -10.4937,9.745314 -16.4986,12.503281 -1.2555,0.17045 -2.5284,0.26043 -3.8173,0.26043 -0.9065,0 -1.8087,-0.0437 -2.6998,-0.12861 3.9149,-1.38422 7.6376,-3.250513 11.1025,-5.570934 0.4006,-0.268203 0.5088,-0.809333 0.2405,-1.209789 -0.2682,-0.400439 -0.8088,-0.509063 -1.2098,-0.240641 -4.2827,2.868168 -8.9735,5.018665 -13.9404,6.391744 -1.0976,-0.26034 -2.1744,-0.58864 -3.2272,-0.979037 0.8884,-0.212557 1.773,-0.452607 2.6469,-0.721907 0.4608,-0.142109 0.719,-0.63043 0.5769,-1.091122 -0.1418,-0.460455 -0.6306,-0.718481 -1.0912,-0.57686 -1.6158,0.498008 -3.2683,0.892725 -4.9149,1.183409 -2.5397,-1.274025 -4.8915,-2.947679 -6.9818,-4.984185 0.9936,-0.195527 1.9828,-0.415595 2.957,-0.669164 0.4665,-0.121351 0.7478,-0.598177 0.6263,-1.064743 -0.1215,-0.466565 -0.5973,-0.747645 -1.0648,-0.626312 -1.3004,0.338262 -2.6307,0.624203 -3.959,0.853772 -2.267,-2.560033 -3.9833,-5.44091 -5.149,-8.484977 1.7117,-0.438413 3.4142,-0.969518 5.0732,-1.58886 0.4515,-0.168439 0.6797,-0.672574 0.5109,-1.124084 -0.1687,-0.451511 -0.6697,-0.683156 -1.1208,-0.514245 -1.6464,0.614734 -3.3377,1.142684 -5.0368,1.572388 -0.371,-1.187173 -0.6611,-2.394278 -0.8704,-3.61286 3.7843,-1.222953 7.4171,-2.888202 10.8058,-4.970986 0.4106,-0.252489 0.5392,-0.789181 0.2867,-1.199898 -0.2527,-0.410481 -0.789,-0.539274 -1.1998,-0.286785 -3.1826,1.956202 -6.5899,3.532961 -10.1366,4.703982 -0.173,-1.611831 -0.2081,-3.235696 -0.1012,-4.85232 1.8143,-0.783662 3.5718,-1.680185 5.2282,-2.666801 0.4138,-0.246599 0.55,-0.782413 0.3032,-1.196607 -0.2467,-0.414211 -0.7824,-0.550076 -1.1966,-0.303257 -1.3183,0.784962 -2.7021,1.511274 -4.1304,2.165738 0.244,-1.773536 0.6557,-3.529282 1.2394,-5.238008 2.8203,-1.65875 5.7487,-3.859239 8.1158,-6.022547 0.356,-0.325147 0.3811,-0.876911 0.056,-1.232843 -0.3254,-0.356152 -0.8771,-0.381502 -1.2329,-0.05603 -1.8331,1.675122 -3.7912,3.204438 -5.8346,4.565535 1.103,-2.368438 2.5754,-4.602902 4.3776,-6.645568 l -2.2876,0 z m 13.6604,0 c -2.1223,2.72783 -4.5374,5.252572 -7.1927,7.466378 -0.3701,0.308793 -0.4209,0.85924 -0.1114,1.229569 0.1725,0.207105 0.4224,0.313147 0.6724,0.313147 0.197,0 0.3936,-0.06481 0.5571,-0.20108 3.0971,-2.582092 5.8917,-5.564184 8.2773,-8.808014 l -2.202,0 z m 8.4652,0 c -1.786,3.407374 -4.3869,6.701112 -7.928,10.030984 -0.351,0.330397 -0.3665,0.885047 -0.035,1.236169 0.1718,0.182667 0.4039,0.273586 0.6363,0.273586 0.2143,0 0.4282,-0.07882 0.5966,-0.237333 3.9619,-3.725839 6.8002,-7.428994 8.6829,-11.303406 l -1.9516,0 z m 6.5929,0 c -1.0024,2.199105 -2.1492,4.332083 -3.481,6.368673 -0.264,0.403494 -0.1536,0.945958 0.2504,1.209789 0.1469,0.09654 0.3141,0.141772 0.478,0.141772 0.2847,0 0.5642,-0.139578 0.7318,-0.395561 1.5283,-2.336725 2.8459,-4.783729 3.9556,-7.32464 l -1.9348,0 z m 12.5131,0 c -0.398,1.760995 -0.8611,3.513602 -1.4637,5.231408 -0.1586,0.454784 0.079,0.954447 0.534,1.114193 0.096,0.03359 0.1943,0.04945 0.2902,0.04945 0.3603,0 0.6982,-0.224051 0.8241,-0.583477 0.6689,-1.906447 1.1902,-3.854463 1.6152,-5.811576 l -1.7998,0 z m -57.0807,2.614058 c -2.8437,0 -5.1556,2.315156 -5.1556,5.158885 0,2.843746 2.3119,5.155594 5.1556,5.155594 2.8437,0 5.1588,-2.311848 5.1588,-5.155594 0,-2.843729 -2.3151,-5.158885 -5.1588,-5.158885 z m 0,1.747105 c 1.8812,0 3.4118,1.530666 3.4118,3.41178 0,1.88113 -1.5306,3.411796 -3.4118,3.411796 -1.8812,0 -3.4118,-1.530666 -3.4118,-3.411796 0,-1.881114 1.5306,-3.41178 3.4118,-3.41178 z m 53.6359,6.899391 c -0.3389,-0.02819 -0.6759,0.144472 -0.8439,0.464793 -0.7827,1.493333 -1.6556,2.965248 -2.591,4.374345 -3.3541,5.051762 -7.4959,9.323491 -12.3087,12.691187 -0.3953,0.276489 -0.4908,0.818092 -0.2143,1.21308 0.1697,0.242666 0.4401,0.372489 0.7152,0.372489 0.1727,0 0.3491,-0.05165 0.5011,-0.158144 4.9929,-3.4934 9.2854,-7.918276 12.7605,-13.152688 0.9685,-1.459089 1.8726,-2.983122 2.6832,-4.529265 0.2237,-0.427072 0.057,-0.953147 -0.3691,-1.176827 -0.1063,-0.05587 -0.2201,-0.08945 -0.333,-0.0989 z m -16.5217,0.748287 c -0.2229,0.0135 -0.443,0.11308 -0.6032,0.293383 -0.8811,0.991848 -1.8224,1.961688 -2.7986,2.884354 -0.3502,0.331274 -0.3642,0.88238 -0.032,1.232861 0.1718,0.181772 0.4012,0.273603 0.6329,0.273603 0.2151,0 0.4316,-0.07781 0.6,-0.23735 1.0132,-0.957367 1.9896,-1.966616 2.9042,-2.996438 0.3203,-0.360523 0.2879,-0.912726 -0.073,-1.232861 -0.1803,-0.16 -0.4068,-0.2307 -0.6297,-0.217552 z m 9.3356,0.118649 c -0.2203,0.03781 -0.4279,0.159325 -0.5671,0.356017 -6.5568,9.276892 -15.7771,16.083996 -25.9658,19.171928 -0.4614,0.139915 -0.7233,0.629789 -0.5834,1.091122 0.1148,0.377097 0.4594,0.619713 0.8339,0.619713 0.084,0 0.1695,-0.0135 0.2539,-0.03949 10.5584,-3.199881 20.109,-10.245347 26.8889,-19.837801 0.2781,-0.393687 0.1826,-0.938126 -0.211,-1.216371 -0.1968,-0.139072 -0.4292,-0.18292 -0.6494,-0.144979 z m -18.6248,0.240642 c -0.2225,-0.0189 -0.4522,0.04574 -0.6362,0.20108 -0.725,0.611257 -1.486,1.234902 -2.324,1.902025 -0.3772,0.300286 -0.4387,0.849181 -0.1384,1.226278 0.1722,0.216472 0.4255,0.329637 0.6824,0.329637 0.1905,0 0.3833,-0.06329 0.5439,-0.19119 0.8508,-0.677384 1.6228,-1.309738 2.3602,-1.931696 0.3686,-0.310751 0.4165,-0.860978 0.1046,-1.229569 -0.1552,-0.184084 -0.3708,-0.287662 -0.5932,-0.306565 z m 34.3718,1.789957 c -0.3403,-1.01e-4 -0.6637,0.200894 -0.8044,0.534008 -0.1654,0.389317 -0.3379,0.781789 -0.5143,1.170228 -0.1995,0.439088 0,0.957586 0.4351,1.157046 0.1165,0.05333 0.2387,0.07916 0.3594,0.07916 0.3316,0 0.6482,-0.192574 0.7944,-0.514245 0.1829,-0.402194 0.3634,-0.809569 0.534,-1.213079 0.188,-0.443882 -0.02,-0.95595 -0.4648,-1.143848 -0.1114,-0.04692 -0.226,-0.0692 -0.3394,-0.0692 z m -1.9813,4.308404 c -0.3381,-0.03612 -0.6781,0.128945 -0.8537,0.445013 -1.1932,2.150632 -2.5573,4.241652 -4.0546,6.217044 -5.5057,7.265484 -12.5789,12.787778 -20.451,15.967811 -0.4471,0.180692 -0.6616,0.690346 -0.4812,1.137265 0.1367,0.34 0.4623,0.547207 0.8076,0.547207 0.108,0 0.2228,-0.02278 0.3296,-0.06599 8.1644,-3.298311 15.49,-9.01485 21.1862,-16.531506 1.547,-2.04108 2.9563,-4.201822 4.1897,-6.424707 0.2337,-0.421604 0.083,-0.952776 -0.3396,-1.186717 -0.1046,-0.0584 -0.2203,-0.0935 -0.333,-0.105486 z m -29.104,14.441583 c -0.113,0.0051 -0.2273,0.03089 -0.3362,0.08236 -1.0531,0.500168 -2.1368,0.963932 -3.2205,1.377907 -0.4503,0.172185 -0.6733,0.677164 -0.5011,1.127375 0.1333,0.347848 0.4629,0.560388 0.8141,0.560388 0.103,0 0.2073,-0.01688 0.3099,-0.05603 1.1261,-0.430346 2.255,-0.914109 3.3492,-1.43394 0.4356,-0.20687 0.6189,-0.724979 0.412,-1.160338 -0.1553,-0.326362 -0.4874,-0.512405 -0.8274,-0.497755 z"
         style="opacity:0.7;fill:#ffffff" />
      <path
         inkscape:connector-curvature="0"
         id="path5-6-7"
         d="m 1529.9224,297.4942 c -17.3348,0 -31.4379,14.10303 -31.4379,31.43788 0,17.33483 14.1031,31.43459 31.4379,31.43459 1.7386,0 3.4336,-0.17892 5.0962,-0.45161 l 0,-3.88977 c -1.654,0.31089 -3.3532,0.49446 -5.0962,0.49446 -15.2121,0 -27.5876,-12.37571 -27.5876,-27.58767 0,-1.8665 0.189,-3.69198 0.5439,-5.45556 l 27.0437,0 0,-3.85021 -25.9724,0 c 0.4189,-1.16589 0.9144,-2.29451 1.4801,-3.38212 l 20.7707,0 0,-3.85021 -18.3479,0 c 5.0375,-6.70637 13.0552,-11.05288 22.0695,-11.05288 1.7425,0 3.4426,0.18066 5.0962,0.49117 l 0,-3.88648 c -1.6626,-0.27274 -3.3576,-0.45159 -5.0962,-0.45159 z m -8.5343,46.83543 0,3.8469 13.6305,0 0,-3.8469 -13.6305,0 z m -24.466,7.32791 c -5.1487,0 -9.3387,4.19016 -9.3387,9.33875 0,5.14858 4.19,9.33544 9.3387,9.33544 5.1485,0 9.3354,-4.18659 9.3354,-9.33544 0,-5.14884 -4.1869,-9.33875 -9.3354,-9.33875 z m 0,3.85021 c 3.0258,0 5.4852,2.46257 5.4852,5.48854 0,3.02596 -2.4594,5.48523 -5.4852,5.48523 -3.0263,0 -5.4886,-2.45927 -5.4886,-5.48523 0,-3.02597 2.4626,-5.48854 5.4886,-5.48854 z"
         style="opacity:0.75;fill:#ffffff" />
      <path
         sodipodi:nodetypes="cccccccccccccccccccccccccccccccccccccccccccccccccccccccccccccccccccccccccccccccccccccccccccccccccccccccccccccccccccccccccccccccccccccccccccccccccccccccccccccccccccccccccccccccccccccccccccccccc"
         inkscape:connector-curvature="0"
         id="rect4465-0"
         d="m 902.80631,118.16606 -2.0076,9.09151 -5.63679,-7.52243 4.30835,8.25422 -9.15746,-2.14266 8.60708,3.55682 -8.38953,4.24577 8.8773,-2.80854 -3.69857,8.64321 4.9973,-7.85536 2.72287,8.99921 -1.22295,-9.22996 7.87189,5.14241 -6.87308,-6.28626 9.33553,-1.11748 -9.30261,-0.39887 6.43139,-6.85983 -7.38076,5.67642 z m -516.62367,68.31814 -2.46245,10.15954 -6.15443,-8.57726 4.64135,9.3684 -10.22869,-2.61735 9.57924,4.19305 -9.51662,4.56882 10.03088,-2.94369 -4.35443,9.61893 5.79173,-8.70584 2.8481,10.16615 -1.15713,-10.3903 8.71578,5.95663 -7.56523,-7.21585 10.50565,-1.03838 -10.43308,-0.66258 7.38059,-7.55207 -8.41907,6.20054 z m 96.44318,5.0666 -1.68776,4.18643 -2.09334,-4.04798 1.40101,4.29193 -4.20624,-1.757 3.82717,2.3866 -4.35122,1.36142 4.46987,-0.63291 -2.45907,3.83702 3.0162,-3.35574 0.58346,4.51937 0.15528,-4.50948 3.3524,3.08874 -2.78211,-3.55684 4.55224,0.21428 -4.41722,-0.93619 3.62616,-2.76569 -3.98531,2.12289 z m -21.06092,23.12762 -2.61722,5.94013 -2.82177,-5.91706 1.80962,6.23352 -5.96321,-2.71954 5.39308,3.60958 -6.31932,1.75038 6.45434,-0.69883 -3.71493,5.39952 4.4962,-4.6842 0.62633,6.52689 0.42852,-6.47744 4.67443,4.59519 -3.83055,-5.23799 6.5335,0.51754 -6.30278,-1.54932 5.33705,-3.80736 -5.82481,2.86459 z m 780.9696,6.94224 -3.5073,12.15058 -6.9918,-10.68696 5.1227,11.5605 -12.2263,-3.69198 11.3593,5.56435 -11.7384,5.03033 12.2758,-3.03929 -5.7588,11.39898 7.4498,-10.21886 2.9141,12.43405 -0.8605,-12.61866 10.2255,7.65097 -8.7684,-9.11128 12.7505,-0.71203 -12.5758,-1.34164 9.3124,-8.74209 -10.4991,7.05433 z m 52.4987,121.50578 2.68,9.83649 -9.2958,-4.43038 8.3762,5.81487 -9.9685,2.58109 10.1531,-0.92958 -5.9765,8.38607 7.1829,-7.23892 0.811,10.26172 0.8471,-10.15954 7.2192,7.34111 -5.8808,-8.32673 10.2486,0.98233 -9.8596,-2.59757 8.4817,-5.83796 -9.2201,4.34799 2.7458,-9.92221 -4.2721,9.25632 z m 124.6935,30.85112 -0.9131,5.86102 -3.8832,-4.55893 3.0657,5.07647 -5.9072,-0.99882 5.6138,1.91852 -5.1655,3.0327 5.5314,-2.13937 -2.0076,5.64346 2.8647,-5.19185 2.0898,5.61048 -1.147,-5.81816 5.2082,2.95688 -4.615,-3.72166 5.8874,-1.0845 -5.9269,0.11865 3.814,-4.61499 -4.4666,3.89966 -0.042,-5.98958 z M 212.59686,94.26375 l -2.02414,16.96334 -11.65265,-12.720843 9.3551,14.293243 -17.10498,-2.25475 16.35679,4.93803 -14.55375,9.2662 15.70076,-6.72796 -5.18853,16.45238 7.70042,-15.24919 6.5995,15.94145 -3.89975,-16.6337 15.30194,7.97073 -13.68,-10.23537 16.84455,-3.73153 -17.05889,0.95266 10.50565,-13.683408 -12.45384,11.695658 z m 522.36274,380.30055 -1.96473,5.95991 -3.26666,-5.42919 2.32388,5.82806 -5.99612,-2.06027 5.53131,2.97337 -5.91696,2.27453 6.14447,-1.279 -3.06903,5.54786 3.88658,-4.92815 1.213,6.22033 -0.19123,-6.27307 4.92827,3.98536 -4.17991,-4.6842 6.3389,-0.11544 -6.21367,-0.89992 4.78312,-4.16006 -5.33688,3.29969 0.98566,-6.25988 z m 769.6001,-358.81453 -1.6151,4.89517 -2.6833,-4.46334 1.9086,4.78969 -4.9215,-1.69435 4.5392,2.44263 -4.8589,1.86578 5.0467,-1.04826 -2.5216,4.55565 3.194,-4.048 0.9923,5.10943 -0.1553,-5.15228 4.0481,3.27662 -3.4316,-3.8469 5.2049,-0.0923 -5.1027,-0.74169 3.9292,-3.41838 -4.3841,2.71295 z"
         style="color:#000000;clip-rule:nonzero;display:inline;overflow:visible;visibility:visible;opacity:0.7;isolation:auto;mix-blend-mode:normal;color-interpolation:sRGB;color-interpolation-filters:linearRGB;solid-color:#000000;solid-opacity:1;fill:#ffffff;fill-opacity:1;fill-rule:nonzero;stroke:none;stroke-width:1;stroke-linecap:butt;stroke-linejoin:miter;stroke-miterlimit:4;stroke-dasharray:none;stroke-dashoffset:0;stroke-opacity:1;color-rendering:auto;image-rendering:auto;shape-rendering:auto;text-rendering:auto;enable-background:accumulate" />
      <path
         style="font-style:normal;font-variant:normal;font-weight:300;font-stretch:normal;font-size:medium;line-height:125%;font-family:Lato;-inkscape-font-specification:'Lato Light';text-align:center;letter-spacing:0px;word-spacing:0px;text-anchor:middle;fill:#ffffff;fill-opacity:1;stroke:none;stroke-width:1px;stroke-linecap:butt;stroke-linejoin:miter;stroke-opacity:1"
         d="M 496.96289 247.09375 L 496.96289 258.91602 L 497.74414 258.91602 L 497.74414 252.83789 C 498.10164 252.36122 498.50789 251.99198 498.96289 251.72656 C 499.42331 251.45573 499.91599 251.32031 500.44141 251.32031 C 501.15099 251.32031 501.67873 251.53542 502.02539 251.96875 C 502.37206 252.39667 502.54492 252.98971 502.54492 253.74805 L 502.54492 258.91602 L 503.32617 258.91602 L 503.32617 253.74805 C 503.32617 253.2768 503.26805 252.85422 503.1543 252.48047 C 503.04055 252.10672 502.87248 251.78885 502.65039 251.52344 C 502.42831 251.25802 502.14789 251.0549 501.80664 250.91406 C 501.47081 250.77323 501.08088 250.70117 500.63672 250.70117 C 500.04088 250.70117 499.50161 250.83659 499.01953 251.10742 C 498.54286 251.37826 498.11789 251.74227 497.74414 252.19727 L 497.74414 247.09375 L 496.96289 247.09375 z M 547.72266 247.09375 L 547.72266 258.91602 L 548.50195 258.91602 L 548.50195 247.09375 L 547.72266 247.09375 z M 556.75195 247.09375 L 556.75195 251.88867 C 556.45404 251.49325 556.10592 251.19456 555.70508 250.99414 C 555.30423 250.79372 554.83028 250.69336 554.2832 250.69336 C 553.71448 250.69336 553.21025 250.80286 552.77148 251.01953 C 552.33813 251.2362 551.97174 251.53294 551.67383 251.91211 C 551.37592 252.28586 551.14928 252.72956 550.99219 253.24414 C 550.84055 253.75331 550.76562 254.30411 550.76562 254.89453 C 550.76563 256.27036 551.04126 257.30232 551.59375 257.99023 C 552.14624 258.67815 552.9213 259.02148 553.91797 259.02148 C 554.51383 259.02148 555.04874 258.87888 555.52539 258.5918 C 556.00208 258.30471 556.41987 257.91718 556.77734 257.42969 L 556.85938 258.70508 C 556.88102 258.84591 556.96071 258.91602 557.10156 258.91602 L 557.52539 258.91602 L 557.52539 247.09375 L 556.75195 247.09375 z M 484.71094 247.27344 C 484.3426 247.27344 484.00646 247.332 483.70312 247.45117 C 483.39979 247.56492 483.13854 247.73974 482.92188 247.97266 C 482.70521 248.20558 482.53909 248.49753 482.41992 248.84961 C 482.30075 249.19627 482.24023 249.60013 482.24023 250.06055 L 482.24023 251.08398 L 480.875 251.08398 L 480.875 251.40039 C 480.875 251.51957 480.95185 251.58728 481.10352 251.60352 L 482.24023 251.67773 L 482.24023 258.91602 L 483.01953 258.91602 L 483.01953 251.66016 L 485.62109 251.66016 L 485.62109 251.08398 L 482.99609 251.08398 L 482.99609 250.08398 C 482.99609 249.67773 483.03833 249.33679 483.125 249.06055 C 483.21708 248.77888 483.34531 248.55224 483.50781 248.37891 C 483.67031 248.20557 483.8619 248.07974 484.08398 248.00391 C 484.31148 247.92265 484.5588 247.88281 484.82422 247.88281 C 484.95964 247.88281 485.07873 247.89002 485.18164 247.90625 C 485.28456 247.91707 485.36859 247.92623 485.43359 247.93164 C 485.49859 247.93164 485.54757 247.92489 485.58008 247.91406 C 485.618 247.89781 485.64152 247.86711 485.65234 247.81836 L 485.67773 247.44336 C 485.54232 247.38921 485.38818 247.34936 485.21484 247.32227 C 485.04693 247.28976 484.87885 247.27344 484.71094 247.27344 z M 506.38477 247.32227 C 506.28726 247.32227 506.19604 247.34099 506.10938 247.37891 C 506.02271 247.41682 505.94586 247.4682 505.88086 247.5332 C 505.81586 247.5982 505.76448 247.67744 505.72656 247.76953 C 505.68864 247.8562 505.66992 247.94742 505.66992 248.04492 C 505.66992 248.14242 505.68864 248.23365 505.72656 248.32031 C 505.76448 248.40156 505.81586 248.47601 505.88086 248.54102 C 505.94586 248.60601 506.02271 248.65739 506.10938 248.69531 C 506.19604 248.73323 506.28726 248.75195 506.38477 248.75195 C 506.48226 248.75195 506.57544 248.73323 506.66211 248.69531 C 506.74878 248.6574 506.82367 248.60602 506.88867 248.54102 C 506.95367 248.47601 507.00505 248.40156 507.04297 248.32031 C 507.0863 248.23365 507.10742 248.14242 507.10742 248.04492 C 507.10742 247.94742 507.0863 247.8562 507.04297 247.76953 C 507.00505 247.67744 506.95367 247.5982 506.88867 247.5332 C 506.82367 247.46821 506.74878 247.41683 506.66211 247.37891 C 506.57544 247.34099 506.48226 247.32227 506.38477 247.32227 z M 463.73047 247.99609 C 463.67089 247.99609 463.62431 248.01481 463.5918 248.05273 C 463.55929 248.09065 463.53817 248.13485 463.52734 248.18359 L 463.33203 251.07617 L 461.95117 251.17383 L 461.95117 251.47461 C 461.95117 251.53418 461.96989 251.57882 462.00781 251.61133 C 462.04573 251.64384 462.09472 251.66016 462.1543 251.66016 L 463.31641 251.66016 L 463.31641 257.18555 C 463.31641 257.8193 463.46815 258.28846 463.77148 258.5918 C 464.08024 258.89513 464.5076 259.04688 465.05469 259.04688 C 465.39594 259.04688 465.72294 258.97917 466.03711 258.84375 C 466.35669 258.70292 466.62034 258.51852 466.82617 258.29102 L 466.61523 257.94922 C 466.5719 257.89505 466.52771 257.86719 466.48438 257.86719 C 466.44646 257.86719 466.39508 257.89745 466.33008 257.95703 C 466.26508 258.0112 466.18104 258.07411 466.07812 258.14453 C 465.97521 258.20953 465.85372 258.27245 465.71289 258.33203 C 465.57206 258.3862 465.40398 258.41211 465.20898 258.41211 C 465.0519 258.41211 464.90495 258.38859 464.76953 258.33984 C 464.63411 258.29109 464.51503 258.21425 464.41211 258.11133 C 464.31461 258.00841 464.23732 257.87974 464.17773 257.72266 C 464.12356 257.56015 464.0957 257.36661 464.0957 257.14453 L 464.0957 251.66016 L 466.64648 251.66016 L 466.64648 251.08398 L 464.0957 251.08398 L 464.0957 247.99609 L 463.73047 247.99609 z M 492.29492 247.99609 C 492.23535 247.99609 492.18876 248.01481 492.15625 248.05273 C 492.12374 248.09065 492.10262 248.13485 492.0918 248.18359 L 491.89648 251.07617 L 490.51562 251.17383 L 490.51562 251.47461 C 490.51562 251.53418 490.53435 251.57882 490.57227 251.61133 C 490.61018 251.64384 490.65916 251.66016 490.71875 251.66016 L 491.88086 251.66016 L 491.88086 257.18555 C 491.88086 257.8193 492.03261 258.28846 492.33594 258.5918 C 492.64469 258.89513 493.07205 259.04688 493.61914 259.04688 C 493.96039 259.04688 494.2874 258.97917 494.60156 258.84375 C 494.92115 258.70292 495.18479 258.51852 495.39062 258.29102 L 495.17969 257.94922 C 495.13635 257.89505 495.09216 257.86719 495.04883 257.86719 C 495.01091 257.86719 494.95953 257.89745 494.89453 257.95703 C 494.82953 258.0112 494.7455 258.07411 494.64258 258.14453 C 494.53966 258.20953 494.41818 258.27245 494.27734 258.33203 C 494.13651 258.3862 493.96844 258.41211 493.77344 258.41211 C 493.61635 258.41211 493.4694 258.38859 493.33398 258.33984 C 493.19857 258.29109 493.07948 258.21425 492.97656 258.11133 C 492.87906 258.00841 492.80177 257.87974 492.74219 257.72266 C 492.68802 257.56015 492.66016 257.36661 492.66016 257.14453 L 492.66016 251.66016 L 495.21094 251.66016 L 495.21094 251.08398 L 492.66016 251.08398 L 492.66016 247.99609 L 492.29492 247.99609 z M 545.17969 250.69336 C 544.8655 250.69336 544.57835 250.74234 544.31836 250.83984 C 544.06378 250.93193 543.83039 251.06734 543.61914 251.24609 C 543.41331 251.42485 543.22891 251.6443 543.06641 251.9043 C 542.90931 252.15888 542.76911 252.45083 542.64453 252.78125 L 542.58789 251.08398 C 542.57707 250.99191 542.55159 250.92659 542.51367 250.88867 C 542.47575 250.85075 542.41043 250.83203 542.31836 250.83203 L 541.9043 250.83203 L 541.9043 258.91602 L 542.68555 258.91602 L 542.68555 253.68359 C 542.80472 253.32068 542.9334 253.00086 543.07422 252.72461 C 543.22045 252.44294 543.38852 252.20716 543.57812 252.01758 C 543.77314 251.82799 543.99017 251.68779 544.22852 251.5957 C 544.47223 251.4982 544.75222 251.44922 545.06641 251.44922 C 545.28306 251.44922 545.45594 251.46794 545.58594 251.50586 C 545.72138 251.54378 545.82174 251.5625 545.88672 251.5625 C 545.9624 251.5625 546.01376 251.52026 546.04102 251.43359 L 546.10547 250.89648 C 545.98089 250.82066 545.83828 250.76928 545.67578 250.74219 C 545.51328 250.70968 545.3476 250.69336 545.17969 250.69336 z M 448.05078 250.70117 C 447.4712 250.70117 446.95065 250.80154 446.49023 251.00195 C 446.03523 251.19695 445.64771 251.47693 445.32812 251.83984 C 445.01396 252.20276 444.77338 252.64166 444.60547 253.15625 C 444.44297 253.66542 444.36133 254.23539 444.36133 254.86914 C 444.36133 255.50289 444.44297 256.07482 444.60547 256.58398 C 444.77338 257.09315 445.01396 257.52966 445.32812 257.89258 C 445.64771 258.2555 446.03523 258.53352 446.49023 258.72852 C 446.95065 258.92352 447.4712 259.02148 448.05078 259.02148 C 448.63036 259.02148 449.14656 258.92352 449.60156 258.72852 C 450.06198 258.53352 450.4495 258.2555 450.76367 257.89258 C 451.07784 257.52966 451.31602 257.09315 451.47852 256.58398 C 451.64643 256.07482 451.73047 255.50289 451.73047 254.86914 C 451.73047 254.23539 451.64643 253.66542 451.47852 253.15625 C 451.31602 252.64166 451.07784 252.20276 450.76367 251.83984 C 450.4495 251.47693 450.06198 251.19695 449.60156 251.00195 C 449.14656 250.80154 448.63036 250.70117 448.05078 250.70117 z M 476.01172 250.70117 C 475.43214 250.70117 474.91159 250.80154 474.45117 251.00195 C 473.99617 251.19695 473.6106 251.47693 473.29102 251.83984 C 472.97685 252.20276 472.73432 252.64166 472.56641 253.15625 C 472.4039 253.66542 472.32227 254.23539 472.32227 254.86914 C 472.32227 255.50289 472.4039 256.07482 472.56641 256.58398 C 472.73432 257.09315 472.97685 257.52966 473.29102 257.89258 C 473.6106 258.2555 473.99617 258.53352 474.45117 258.72852 C 474.91159 258.92352 475.43214 259.02148 476.01172 259.02148 C 476.5913 259.02148 477.10945 258.92352 477.56445 258.72852 C 478.02487 258.53352 478.4124 258.2555 478.72656 257.89258 C 479.04073 257.52966 479.27891 257.09315 479.44141 256.58398 C 479.60932 256.07482 479.69336 255.50289 479.69336 254.86914 C 479.69336 254.23539 479.60932 253.66542 479.44141 253.15625 C 479.27891 252.64166 479.04073 252.20276 478.72656 251.83984 C 478.4124 251.47693 478.02487 251.19695 477.56445 251.00195 C 477.10945 250.80154 476.5913 250.70117 476.01172 250.70117 z M 511.7832 250.70117 C 511.37153 250.70117 511.00034 250.76169 510.66992 250.88086 C 510.3395 251.00002 510.05713 251.15896 509.82422 251.35938 C 509.59672 251.55979 509.42146 251.79318 509.29688 252.05859 C 509.17229 252.32401 509.10938 252.59963 509.10938 252.88672 C 509.10937 253.22255 509.17469 253.50492 509.30469 253.73242 C 509.43469 253.9545 509.60516 254.1437 509.81641 254.30078 C 510.02766 254.45786 510.26583 254.58849 510.53125 254.69141 C 510.80209 254.79432 511.07771 254.8899 511.35938 254.97656 C 511.64105 255.06323 511.91429 255.14967 512.17969 255.23633 C 512.45054 255.323 512.69305 255.42815 512.9043 255.55273 C 513.11554 255.67732 513.28602 255.82906 513.41602 256.00781 C 513.54601 256.18656 513.61133 256.41081 513.61133 256.68164 C 513.61133 256.92539 513.56473 257.15877 513.47266 257.38086 C 513.38599 257.59752 513.25536 257.78672 513.08203 257.94922 C 512.90871 258.11172 512.69167 258.24234 512.43164 258.33984 C 512.17165 258.43193 511.87249 258.47656 511.53125 258.47656 C 511.16833 258.47656 510.86245 258.43432 510.61328 258.34766 C 510.36953 258.26099 510.16206 258.16781 509.99414 258.07031 C 509.82622 257.9674 509.6908 257.87378 509.58789 257.78711 C 509.49039 257.70044 509.40635 257.65625 509.33594 257.65625 C 509.27636 257.65625 509.22933 257.66781 509.19141 257.68945 C 509.15892 257.71112 509.12866 257.74378 509.10156 257.78711 L 508.92188 258.0625 C 509.24688 258.355 509.61568 258.59317 510.02734 258.77734 C 510.43901 258.95609 510.92931 259.04688 511.49805 259.04688 C 511.95305 259.04688 512.35688 258.98156 512.70898 258.85156 C 513.06105 258.72156 513.35541 258.54435 513.59375 258.32227 C 513.8375 258.10018 514.0219 257.83849 514.14648 257.53516 C 514.27107 257.23182 514.33398 256.90482 514.33398 256.55273 C 514.33398 256.22774 514.26867 255.95016 514.13867 255.72266 C 514.00868 255.49516 513.8382 255.30357 513.62695 255.14648 C 513.42112 254.9894 513.18296 254.85878 512.91211 254.75586 C 512.6413 254.64753 512.36566 254.54956 512.08398 254.46289 C 511.80772 254.37622 511.53257 254.28979 511.26172 254.20312 C 510.99091 254.11646 510.75031 254.01369 510.53906 253.89453 C 510.33323 253.77536 510.16515 253.63276 510.03516 253.46484 C 509.90515 253.29693 509.83984 253.08466 509.83984 252.83008 C 509.83984 252.62425 509.88643 252.43026 509.97852 252.24609 C 510.0706 252.05651 510.20123 251.89083 510.36914 251.75 C 510.54247 251.60917 510.74799 251.49726 510.98633 251.41602 C 511.23008 251.32935 511.49852 251.28711 511.79102 251.28711 C 512.11602 251.28711 512.39166 251.32216 512.61914 251.39258 C 512.84666 251.45758 513.03586 251.53247 513.1875 251.61914 C 513.34459 251.70039 513.47039 251.77724 513.5625 251.84766 C 513.65457 251.91266 513.7295 251.94531 513.78906 251.94531 C 513.87031 251.94531 513.93323 251.90786 513.97656 251.83203 L 514.13867 251.5625 C 513.82449 251.27 513.47442 251.0549 513.08984 250.91406 C 512.71068 250.77323 512.27612 250.70117 511.7832 250.70117 z M 536.0293 250.70117 C 535.44971 250.70117 534.92916 250.80154 534.46875 251.00195 C 534.01375 251.19695 533.62624 251.47693 533.30664 251.83984 C 532.99246 252.20276 532.7519 252.64166 532.58398 253.15625 C 532.42148 253.66542 532.33984 254.23539 532.33984 254.86914 C 532.33984 255.50289 532.42148 256.07482 532.58398 256.58398 C 532.7519 257.09315 532.99246 257.52966 533.30664 257.89258 C 533.62624 258.2555 534.01375 258.53352 534.46875 258.72852 C 534.92916 258.92352 535.44971 259.02148 536.0293 259.02148 C 536.60888 259.02148 537.12508 258.92352 537.58008 258.72852 C 538.04049 258.53352 538.42804 258.2555 538.74219 257.89258 C 539.05637 257.52966 539.29453 257.09315 539.45703 256.58398 C 539.62495 256.07482 539.70898 255.50289 539.70898 254.86914 C 539.70898 254.23539 539.62495 253.66542 539.45703 253.15625 C 539.29453 252.64166 539.05637 252.20276 538.74219 251.83984 C 538.42804 251.47693 538.04049 251.19695 537.58008 251.00195 C 537.12508 250.80154 536.60888 250.70117 536.0293 250.70117 z M 525.25 250.79102 C 525.13624 250.79102 525.06136 250.85154 525.02344 250.9707 L 522.86133 257.4043 C 522.81788 257.52888 522.78044 257.65232 522.74805 257.77148 C 522.71546 257.88524 522.68278 257.99758 522.65039 258.11133 C 522.63392 257.99758 522.6128 257.88524 522.58594 257.77148 C 522.55872 257.65232 522.52848 257.52888 522.49609 257.4043 L 520.45703 251.02734 C 520.44076 250.9786 520.40812 250.9344 520.35938 250.89648 C 520.31063 250.85315 520.24772 250.83203 520.17188 250.83203 L 519.58789 250.83203 L 522.28516 258.91602 L 522.83789 258.91602 C 522.9355 258.91602 522.99886 258.85985 523.03125 258.74609 L 525.27539 252.17969 C 525.32939 252.01719 525.36923 251.85586 525.39648 251.69336 C 525.41268 251.77461 525.4314 251.85625 525.45312 251.9375 C 525.47461 252.01875 525.50009 252.09844 525.52734 252.17969 L 527.73633 258.74609 C 527.7688 258.85985 527.83171 258.91602 527.92383 258.91602 L 528.5 258.91602 L 531.19727 250.83203 L 530.63672 250.83203 C 530.57174 250.83203 530.51554 250.85075 530.4668 250.88867 C 530.41809 250.92117 530.38305 250.96776 530.36133 251.02734 L 528.30469 257.4043 C 528.26693 257.52888 528.23429 257.64797 528.20703 257.76172 C 528.18542 257.87547 528.1643 257.98977 528.14258 258.10352 C 528.1154 257.98977 528.08512 257.87547 528.05273 257.76172 C 528.02023 257.64797 527.98519 257.52888 527.94727 257.4043 L 525.80273 250.9707 C 525.76481 250.85154 525.68558 250.79102 525.56641 250.79102 L 525.25 250.79102 z M 453.83789 250.83203 L 453.83789 256 C 453.83789 256.47125 453.89406 256.89383 454.00781 257.26758 C 454.12156 257.64133 454.28963 257.96115 454.51172 258.22656 C 454.7338 258.49198 455.01182 258.6951 455.34766 258.83594 C 455.68349 258.97677 456.07776 259.04688 456.52734 259.04688 C 457.12859 259.04688 457.67266 258.90471 458.16016 258.62305 C 458.65307 258.34138 459.08524 257.96779 459.45898 257.50195 L 459.5332 258.70508 C 459.55487 258.84591 459.63216 258.91602 459.76758 258.91602 L 460.19922 258.91602 L 460.19922 250.83203 L 459.41797 250.83203 L 459.41797 256.91016 C 459.06047 257.38682 458.65182 257.76042 458.19141 258.03125 C 457.73641 258.29667 457.24612 258.42969 456.7207 258.42969 C 456.01112 258.42969 455.48338 258.21502 455.13672 257.78711 C 454.79005 257.35377 454.61719 256.75833 454.61719 256 L 454.61719 250.83203 L 453.83789 250.83203 z M 506.00391 250.83203 L 506.00391 258.91602 L 506.77539 258.91602 L 506.77539 250.83203 L 506.00391 250.83203 z M 554.4375 251.30273 C 554.91956 251.30273 555.34695 251.39831 555.7207 251.58789 C 556.0999 251.77747 556.44322 252.10448 556.75195 252.57031 L 556.75195 256.82031 C 556.41612 257.31865 556.03056 257.70617 555.5918 257.98242 C 555.15307 258.25867 554.66756 258.39648 554.13672 258.39648 C 553.30256 258.39648 552.66293 258.11411 552.21875 257.55078 C 551.77998 256.98203 551.56055 256.09703 551.56055 254.89453 C 551.56055 254.36369 551.62106 253.8782 551.74023 253.43945 C 551.86482 252.99529 552.04486 252.6169 552.2832 252.30273 C 552.52696 251.98315 552.82803 251.73583 553.18555 251.5625 C 553.54302 251.38917 553.96081 251.30273 554.4375 251.30273 z M 448.05078 251.31055 C 448.53287 251.31055 448.95305 251.39459 449.31055 251.5625 C 449.67346 251.73042 449.9726 251.97294 450.21094 252.28711 C 450.45469 252.59586 450.63669 252.96945 450.75586 253.4082 C 450.87502 253.84695 450.93555 254.33289 450.93555 254.86914 C 450.93555 255.4108 450.87502 255.90109 450.75586 256.33984 C 450.63669 256.77318 450.45469 257.14438 450.21094 257.45312 C 449.9726 257.76188 449.67346 258.00005 449.31055 258.16797 C 448.95305 258.33047 448.53287 258.41211 448.05078 258.41211 C 447.5687 258.41211 447.14612 258.33047 446.7832 258.16797 C 446.4257 258.00005 446.12461 257.76188 445.88086 257.45312 C 445.64252 257.14438 445.46052 256.77318 445.33594 256.33984 C 445.21677 255.90109 445.1582 255.4108 445.1582 254.86914 C 445.1582 254.33289 445.21677 253.84695 445.33594 253.4082 C 445.46052 252.96945 445.64252 252.59586 445.88086 252.28711 C 446.12461 251.97294 446.4257 251.73042 446.7832 251.5625 C 447.14612 251.39459 447.5687 251.31055 448.05078 251.31055 z M 476.01172 251.31055 C 476.4938 251.31055 476.91398 251.39459 477.27148 251.5625 C 477.6344 251.73042 477.93549 251.97294 478.17383 252.28711 C 478.41758 252.59586 478.59763 252.96945 478.7168 253.4082 C 478.83596 253.84695 478.89648 254.33289 478.89648 254.86914 C 478.89648 255.4108 478.83596 255.90109 478.7168 256.33984 C 478.59763 256.77318 478.41758 257.14438 478.17383 257.45312 C 477.93549 257.76188 477.6344 258.00005 477.27148 258.16797 C 476.91398 258.33047 476.4938 258.41211 476.01172 258.41211 C 475.52964 258.41211 475.10706 258.33047 474.74414 258.16797 C 474.38664 258.00005 474.08555 257.76188 473.8418 257.45312 C 473.60346 257.14438 473.42341 256.77318 473.29883 256.33984 C 473.17966 255.90109 473.11914 255.4108 473.11914 254.86914 C 473.11914 254.33289 473.17966 253.84695 473.29883 253.4082 C 473.42341 252.96945 473.60346 252.59586 473.8418 252.28711 C 474.08555 251.97294 474.38664 251.73042 474.74414 251.5625 C 475.10706 251.39459 475.52964 251.31055 476.01172 251.31055 z M 536.0293 251.31055 C 536.51135 251.31055 536.93155 251.39459 537.28906 251.5625 C 537.65199 251.73042 537.95111 251.97294 538.18945 252.28711 C 538.43317 252.59586 538.6152 252.96945 538.73438 253.4082 C 538.85355 253.84695 538.91406 254.33289 538.91406 254.86914 C 538.91406 255.4108 538.85355 255.90109 538.73438 256.33984 C 538.6152 256.77318 538.43317 257.14438 538.18945 257.45312 C 537.95111 257.76188 537.65199 258.00005 537.28906 258.16797 C 536.93155 258.33047 536.51135 258.41211 536.0293 258.41211 C 535.5472 258.41211 535.12464 258.33047 534.76172 258.16797 C 534.40424 258.00005 534.10313 257.76188 533.85938 257.45312 C 533.62103 257.14438 533.43904 256.77318 533.31445 256.33984 C 533.19528 255.90109 533.13672 255.4108 533.13672 254.86914 C 533.13672 254.33289 533.19528 253.84695 533.31445 253.4082 C 533.43904 252.96945 533.62103 252.59586 533.85938 252.28711 C 534.10313 251.97294 534.40424 251.73042 534.76172 251.5625 C 535.12464 251.39459 535.5472 251.31055 536.0293 251.31055 z "
         transform="matrix(1.6877633,0,0,1.6877633,137.55064,55.188012)"
         id="path4754" />
      <g
         style="display:inline;fill:#ffffff"
         id="g7470-1-2"
         transform="matrix(0.7543974,0,0,0.7543974,689.71606,-233.63662)">
        <g
           id="g4747">
          <path
             inkscape:connector-curvature="0"
             id="path4194-8-2"
             transform="translate(-197.67863,495.82222)"
             d="m 387.59375,169.42383 -80.46289,46.65234 0.17187,93.00977 12.47461,7.17187 c -23.49199,30.81926 -50.19452,50.89969 -79.87304,64.75781 -35.33706,16.50038 -72.89324,21.85931 -104.8418,23.6504 24.00547,5.1289 69.80646,2.60093 109.09961,-9.06836 39.2508,-11.65679 80.2838,-34.06558 115.66016,-77.0918 l 0.01,20.58984 -0.71094,-0.21875 28.81446,16.56446 80.46289,-46.65235 -0.17188,-93.00781 -80.63281,-46.35742 z"
             style="color:#000000;clip-rule:nonzero;display:inline;overflow:visible;visibility:visible;opacity:1;isolation:auto;mix-blend-mode:normal;color-interpolation:sRGB;color-interpolation-filters:linearRGB;solid-color:#000000;solid-opacity:1;fill:#ffffff;fill-opacity:1;fill-rule:nonzero;stroke:none;stroke-width:1;stroke-linecap:butt;stroke-linejoin:miter;stroke-miterlimit:4;stroke-dasharray:none;stroke-dashoffset:0;stroke-opacity:1;color-rendering:auto;image-rendering:auto;shape-rendering:auto;text-rendering:auto;enable-background:accumulate" />
          <path
             d="m -126.81218,828.3963 0,-140.625 117.2790532,0 q 13.1835937,0 21.2402348,2.19727 8.05664,2.10571 12.359619,6.31714 4.394531,4.11987 5.859375,10.34545 1.464843,6.22559 1.464843,14.28223 0,5.85938 -1.00708,10.34546 -1.00708,4.48608 -2.655029,7.78198 -1.647949,3.2959 -3.753662,5.58472 -2.105713,2.19726 -4.302979,3.66211 -5.126953,3.479 -11.7187496,3.93677 8.2397466,0.45776 14.6484376,4.02832 2.746582,1.55639 5.310059,3.93676 2.655029,2.28882 4.669189,5.76783 2.105713,3.38745 3.387451,8.05664 1.281738,4.57763 1.281738,10.62011 0,7.32422 -0.732421,13.45826 -0.64087,6.04248 -2.746582,10.89477 -2.105713,4.8523 -6.042481,8.51441 -3.936768,3.66211 -10.528564,6.13403 -6.500245,2.38037 -16.0217289,3.57056 -9.4299316,1.19018 -22.6135251,1.19018 l -105.377198,0 z m 99.517823,-14.64844 q 10.253906,0 17.7612302,-0.27465 7.5073242,-0.36622 12.72583,-1.3733 5.2185059,-1.09863 8.4228518,-3.02124 3.204346,-2.01416 4.943847,-5.2185 1.831055,-3.2959 2.471924,-7.96509 0.640869,-4.66919 0.640869,-11.26099 0,-5.12695 -0.640869,-8.88061 -0.640869,-3.84522 -2.471924,-6.40869 -1.739501,-2.65503 -4.943847,-4.21143 -3.2043459,-1.64795 -8.4228518,-2.56347 -5.2185058,-0.91553 -12.72583,-1.19019 -7.5073242,-0.36621 -17.7612302,-0.36621 l -81.939693,0 0,52.73437 81.939693,0 z m 0,-67.38281 q 8.972168,0 15.472412,-0.36621 6.500244,-0.36621 11.07788067,-1.37329 4.57763673,-1.00708 7.41577153,-2.74658 2.8381347,-1.83106 4.3945308,-4.66919 1.64795,-2.83814 2.197266,-6.7749 0.549316,-4.02832 0.549316,-9.52149 0,-5.85937 -1.281738,-9.52148 -1.281738,-3.66211 -4.5776366,-5.58472 -3.2958984,-2.01416 -8.9721679,-2.65503 -5.5847168,-0.73242 -14.3737795,-0.73242 l -93.841548,0 0,43.94531 81.939693,0 z"
             style="font-style:normal;font-variant:normal;font-weight:normal;font-stretch:normal;font-size:187.5px;line-height:125%;font-family:Michroma;-inkscape-font-specification:Michroma;text-align:center;letter-spacing:0px;word-spacing:0px;text-anchor:middle;fill:#ffffff;fill-opacity:1;stroke:none;stroke-width:1px;stroke-linecap:butt;stroke-linejoin:miter;stroke-opacity:1"
             id="path4726"
             inkscape:connector-curvature="0" />
          <path
             d="m 432.71152,754.23859 82.67212,74.15771 -24.90235,0 -70.03784,-62.80517 -67.65747,62.80517 -24.90234,0 79.92553,-74.15771 -74.06616,-66.46729 24.90235,0 61.34033,55.11475 59.41772,-55.11475 24.90235,0 -71.59424,66.46729 z"
             style="font-style:normal;font-variant:normal;font-weight:normal;font-stretch:normal;font-size:187.5px;line-height:125%;font-family:Michroma;-inkscape-font-specification:Michroma;text-align:center;letter-spacing:0px;word-spacing:0px;text-anchor:middle;fill:#ffffff;fill-opacity:1;stroke:none;stroke-width:1px;stroke-linecap:butt;stroke-linejoin:miter;stroke-opacity:1"
             id="path4723"
             inkscape:connector-curvature="0" />
          <path
             id="path4729"
             transform="matrix(2.2372337,0,0,2.2372337,-731.92912,382.85476)"
             d="M 331.57812 82.5 C 329.52946 82.5 327.74954 82.575242 326.23633 82.726562 C 324.72311 82.877883 323.42433 83.105559 322.3418 83.408203 C 321.27091 83.699205 320.39184 84.065489 319.70508 84.507812 C 319.01831 84.950139 318.4778 85.456979 318.08203 86.027344 C 317.68627 86.586069 317.41304 87.213702 317.26172 87.912109 C 317.12204 88.610517 317.05078 89.366831 317.05078 90.181641 C 317.05078 90.961526 317.09829 91.690106 317.19141 92.365234 C 317.28453 93.02872 317.48251 93.634554 317.78516 94.181641 C 318.09944 94.728727 318.55284 95.217754 319.14648 95.648438 C 319.74013 96.067482 320.53207 96.421888 321.52148 96.712891 C 322.51089 96.992253 323.73249 97.208054 325.1875 97.359375 C 326.65415 97.510699 328.41228 97.585938 330.46094 97.585938 L 335.07031 97.585938 C 336.93273 97.585937 338.43943 97.667118 339.5918 97.830078 C 340.74417 97.981399 341.63511 98.242751 342.26367 98.615234 C 342.90388 98.987718 343.32954 99.48862 343.53906 100.11719 C 343.76022 100.74575 343.87109 101.53176 343.87109 102.47461 C 343.87109 103.41746 343.71272 104.22128 343.39844 104.88477 C 343.08415 105.53661 342.54364 106.06525 341.77539 106.47266 C 341.00714 106.88006 339.9776 107.17704 338.68555 107.36328 C 337.39349 107.54952 335.76804 107.64258 333.8125 107.64258 L 329.34375 107.64258 C 327.66757 107.64258 326.25987 107.60695 325.11914 107.53711 C 323.99005 107.45563 323.07536 107.26952 322.37695 106.97852 C 321.67855 106.67587 321.17764 106.22841 320.875 105.63477 C 320.57236 105.04112 320.42188 104.22144 320.42188 103.17383 L 317.06836 103.17383 C 317.06836 104.01192 317.13962 104.78011 317.2793 105.47852 C 317.41898 106.16528 317.66252 106.78104 318.01172 107.32812 C 318.37256 107.86357 318.84971 108.33479 319.44336 108.74219 C 320.03701 109.13795 320.78738 109.47056 321.69531 109.73828 C 322.60324 109.99436 323.68623 110.18641 324.94336 110.31445 C 326.20049 110.4425 327.66757 110.50586 329.34375 110.50586 L 333.8125 110.50586 C 335.67492 110.50586 337.30037 110.41874 338.68555 110.24414 C 340.08236 110.08118 341.27426 109.83764 342.26367 109.51172 C 343.25308 109.1858 344.06878 108.78982 344.70898 108.32422 C 345.34919 107.85861 345.85603 107.32802 346.22852 106.73438 C 346.601 106.14073 346.85641 105.48934 346.99609 104.7793 C 347.14742 104.05761 347.22266 103.28942 347.22266 102.47461 C 347.22266 101.6598 347.17711 100.90349 347.08398 100.20508 C 347.0025 99.506671 346.81444 98.877085 346.52344 98.318359 C 346.23243 97.747994 345.8206 97.243107 345.28516 96.800781 C 344.74971 96.358458 344.02707 95.990221 343.11914 95.699219 C 342.22285 95.396574 341.11807 95.170852 339.80273 95.019531 C 338.4874 94.86821 336.90945 94.792969 335.07031 94.792969 L 330.46094 94.792969 C 328.971 94.792969 327.68409 94.763281 326.60156 94.705078 C 325.53067 94.635239 324.62387 94.524368 323.87891 94.373047 C 323.13394 94.221723 322.53404 94.029677 322.08008 93.796875 C 321.62611 93.564073 321.27171 93.278969 321.01562 92.941406 C 320.77118 92.592204 320.60687 92.190294 320.52539 91.736328 C 320.44391 91.282363 320.4043 90.763645 320.4043 90.181641 C 320.4043 89.238789 320.56665 88.454737 320.89258 87.826172 C 321.2185 87.197604 321.80058 86.696703 322.63867 86.324219 C 323.47676 85.951735 324.61717 85.690383 326.06055 85.539062 C 327.50392 85.376102 329.34322 85.292969 331.57812 85.292969 L 334.93164 85.292969 C 336.60782 85.292969 338.01552 85.334537 339.15625 85.416016 C 340.29698 85.485858 341.21566 85.671968 341.91406 85.974609 C 342.61247 86.265615 343.11337 86.707137 343.41602 87.300781 C 343.71866 87.894428 343.87109 88.71606 343.87109 89.763672 L 347.22266 89.763672 C 347.22266 88.925583 347.15335 88.16333 347.01367 87.476562 C 346.87399 86.789795 346.62256 86.178022 346.26172 85.642578 C 345.91252 85.095492 345.43536 84.630217 344.83008 84.246094 C 344.23643 83.850328 343.48605 83.523659 342.57812 83.267578 C 341.6702 82.999855 340.58721 82.807809 339.33008 82.691406 C 338.07295 82.563367 336.60782 82.5 334.93164 82.5 L 331.57812 82.5 z M 450.01172 82.5 C 447.96306 82.5 446.23268 82.628684 444.82422 82.884766 C 443.4274 83.129207 442.27512 83.507366 441.36719 84.019531 C 440.45926 84.520057 439.75638 85.153626 439.25586 85.921875 C 438.76697 86.690121 438.40663 87.592936 438.17383 88.628906 C 437.95267 89.664879 437.82398 90.834979 437.78906 92.138672 C 437.75414 93.442365 437.73633 94.885694 437.73633 96.46875 C 437.73633 98.051806 437.75414 99.495135 437.78906 100.79883 C 437.82398 102.10252 437.95267 103.27262 438.17383 104.30859 C 438.40663 105.34456 438.76697 106.24542 439.25586 107.01367 C 439.75638 107.78192 440.45926 108.42338 441.36719 108.93555 C 442.27512 109.43607 443.4274 109.80829 444.82422 110.05273 C 446.23268 110.30882 447.96306 110.43555 450.01172 110.43555 L 457.84961 110.43555 C 459.52579 110.43555 460.99287 110.35437 462.25 110.19141 C 463.50713 110.04009 464.59012 109.80249 465.49805 109.47656 C 466.40598 109.139 467.15635 108.71334 467.75 108.20117 C 468.34364 107.68901 468.81486 107.08317 469.16406 106.38477 C 469.52491 105.67472 469.77633 104.87285 469.91602 103.97656 C 470.0557 103.06863 470.125 102.05495 470.125 100.9375 L 466.77344 100.9375 C 466.77344 101.86871 466.73187 102.68441 466.65039 103.38281 C 466.56891 104.06958 466.41249 104.66354 466.17969 105.16406 C 465.95852 105.65295 465.64373 106.05884 465.23633 106.38477 C 464.82892 106.71069 464.29239 106.96805 463.62891 107.1543 C 462.96542 107.34054 462.16355 107.46727 461.2207 107.53711 C 460.27785 107.60695 459.1533 107.64258 457.84961 107.64258 L 450.01172 107.64258 C 448.52178 107.64258 447.26456 107.60101 446.24023 107.51953 C 445.22754 107.42641 444.3881 107.24624 443.72461 106.97852 C 443.06112 106.71079 442.55029 106.32669 442.18945 105.82617 C 441.84025 105.32565 441.58288 104.66239 441.41992 103.83594 C 441.25696 103.00949 441.15797 101.99776 441.12305 100.79883 C 441.09977 99.588256 441.08789 98.144927 441.08789 96.46875 C 441.08789 94.792573 441.09977 93.355183 441.12305 92.15625 C 441.14633 90.945678 441.23938 89.926059 441.40234 89.099609 C 441.56531 88.27316 441.82861 87.609898 442.18945 87.109375 C 442.55029 86.608849 443.06112 86.224755 443.72461 85.957031 C 444.3881 85.689308 445.22754 85.515072 446.24023 85.433594 C 447.26456 85.340473 448.52178 85.292969 450.01172 85.292969 L 457.84961 85.292969 C 459.52579 85.292969 460.9295 85.35235 462.05859 85.46875 C 463.19933 85.585153 464.118 85.85244 464.81641 86.271484 C 465.51481 86.690529 466.01572 87.30824 466.31836 88.123047 C 466.621 88.937857 466.77344 90.042639 466.77344 91.439453 L 470.125 91.439453 C 470.125 90.415123 470.0557 89.484573 469.91602 88.646484 C 469.77633 87.808396 469.52491 87.05802 469.16406 86.394531 C 468.81486 85.731045 468.34364 85.154899 467.75 84.666016 C 467.15635 84.177129 466.40598 83.775221 465.49805 83.460938 C 464.59012 83.135014 463.50713 82.895461 462.25 82.744141 C 460.99287 82.58118 459.52579 82.5 457.84961 82.5 L 450.01172 82.5 z M 357.2793 83.058594 L 357.2793 109.87695 L 360.63281 109.87695 L 360.63281 99.261719 L 375.14258 99.261719 C 377.19124 99.261719 378.91373 99.180541 380.31055 99.017578 C 381.719 98.854618 382.87723 98.615065 383.78516 98.300781 C 384.70473 97.986497 385.4076 97.596464 385.89648 97.130859 C 386.39701 96.653615 386.75931 96.10716 386.98047 95.490234 C 387.21327 94.861666 387.34594 94.162778 387.38086 93.394531 C 387.42742 92.626282 387.45117 91.788787 387.45117 90.880859 C 387.45117 90.00785 387.43336 89.20997 387.39844 88.488281 C 387.37516 87.766595 387.27023 87.115211 387.08398 86.533203 C 386.89774 85.951199 386.60076 85.444356 386.19336 85.013672 C 385.79759 84.582985 385.22739 84.222643 384.48242 83.931641 C 383.73745 83.640638 382.78909 83.424838 381.63672 83.285156 C 380.49599 83.133835 379.09423 83.058594 377.42969 83.058594 L 357.2793 83.058594 z M 409.80078 83.058594 L 394.15625 109.87695 L 398.06641 109.87695 L 401.41992 103.73242 L 422.65039 103.73242 L 426.00391 109.87695 L 429.91406 109.87695 L 414.26953 83.058594 L 409.80078 83.058594 z M 480.19922 83.058594 L 480.19922 109.87695 L 507.01758 109.87695 L 507.01758 107.08398 L 483.55273 107.08398 L 483.55273 97.585938 L 505.90039 97.585938 L 505.90039 94.792969 L 483.55273 94.792969 L 483.55273 85.851562 L 507.01758 85.851562 L 507.01758 83.058594 L 480.19922 83.058594 z M 412.03516 85.292969 L 420.97461 100.9375 L 403.0957 100.9375 L 412.03516 85.292969 z M 360.63281 85.851562 L 375.14258 85.851562 C 376.63251 85.851563 377.8838 85.869379 378.89648 85.904297 C 379.92081 85.939218 380.76425 86.020395 381.42773 86.148438 C 382.09122 86.264837 382.60205 86.435087 382.96289 86.65625 C 383.32373 86.877413 383.58704 87.174391 383.75 87.546875 C 383.92461 87.919359 384.0236 88.378695 384.04688 88.925781 C 384.0818 89.472865 384.09961 90.124249 384.09961 90.880859 C 384.09961 91.695666 384.0818 92.400494 384.04688 92.994141 C 384.0236 93.576145 383.9246 94.077049 383.75 94.496094 C 383.58704 94.915138 383.32373 95.251728 382.96289 95.507812 C 382.60205 95.763894 382.09122 95.961881 381.42773 96.101562 C 380.76425 96.241244 379.92081 96.340235 378.89648 96.398438 C 377.8838 96.444998 376.63251 96.46875 375.14258 96.46875 L 360.63281 96.46875 L 360.63281 85.851562 z "
             style="font-style:normal;font-variant:normal;font-weight:normal;font-stretch:normal;font-size:medium;line-height:125%;font-family:Michroma;-inkscape-font-specification:Michroma;text-align:center;letter-spacing:10px;word-spacing:0px;text-anchor:middle;fill:#ffffff;fill-opacity:1;stroke:none;stroke-width:1px;stroke-linecap:butt;stroke-linejoin:miter;stroke-opacity:1" />
        </g>
      </g>
    </g>
  </g>
  <g
     inkscape:groupmode="layer"
     id="layer3"
     inkscape:label="logo"
     style="display:inline" />
</svg>
