<?xml version="1.0" encoding="UTF-8" standalone="no"?>
<!-- Created with Inkscape (http://www.inkscape.org/) -->

<svg
   xmlns:dc="http://purl.org/dc/elements/1.1/"
   xmlns:cc="http://creativecommons.org/ns#"
   xmlns:rdf="http://www.w3.org/1999/02/22-rdf-syntax-ns#"
   xmlns:svg="http://www.w3.org/2000/svg"
   xmlns="http://www.w3.org/2000/svg"
   xmlns:xlink="http://www.w3.org/1999/xlink"
   xmlns:sodipodi="http://sodipodi.sourceforge.net/DTD/sodipodi-0.dtd"
   xmlns:inkscape="http://www.inkscape.org/namespaces/inkscape"
   width="1500"
   height="380"
   viewBox="0 0 1500 380.00003"
   id="svg10440"
   version="1.1"
   inkscape:version="0.91 r"
   sodipodi:docname="spacebox_banner_twitter.svg">
  <defs
     id="defs10442">
    <linearGradient
       gradientTransform="matrix(2.0158729,0,0,0.97559712,-571.42866,602.8385)"
       inkscape:collect="always"
       xlink:href="#linearGradient6117"
       id="linearGradient6123-8"
       x1="333.75439"
       y1="388.49979"
       x2="333.75439"
       y2="0"
       gradientUnits="userSpaceOnUse" />
    <linearGradient
       inkscape:collect="always"
       id="linearGradient6117">
      <stop
         style="stop-color:#040a22;stop-opacity:1"
         offset="0"
         id="stop6119" />
      <stop
         style="stop-color:#091a51;stop-opacity:1"
         offset="1"
         id="stop6121" />
    </linearGradient>
  </defs>
  <sodipodi:namedview
     id="base"
     pagecolor="#ffffff"
     bordercolor="#666666"
     borderopacity="1.0"
     inkscape:pageopacity="0.0"
     inkscape:pageshadow="2"
     inkscape:zoom="0.86738432"
     inkscape:cx="793.16106"
     inkscape:cy="127.66672"
     inkscape:document-units="px"
     inkscape:current-layer="layer1"
     showgrid="false"
     fit-margin-top="0"
     fit-margin-left="0"
     fit-margin-right="0"
     fit-margin-bottom="0"
     units="px"
     inkscape:window-width="1368"
     inkscape:window-height="713"
     inkscape:window-x="0"
     inkscape:window-y="30"
     inkscape:window-maximized="1" />
  <metadata
     id="metadata10445">
    <rdf:RDF>
      <cc:Work
         rdf:about="">
        <dc:format>image/svg+xml</dc:format>
        <dc:type
           rdf:resource="http://purl.org/dc/dcmitype/StillImage" />
        <dc:title />
      </cc:Work>
    </rdf:RDF>
  </metadata>
  <g
     inkscape:label="Capa 1"
     inkscape:groupmode="layer"
     id="layer1"
     transform="translate(571.42859,-602.83851)">
    <g
       id="g11085"
       inkscape:export-xdpi="120"
       inkscape:export-ydpi="120">
      <rect
         y="602.8385"
         x="-571.42865"
         height="380.00003"
         width="1500.0001"
         id="rect5503-1"
         style="color:#000000;clip-rule:nonzero;display:inline;overflow:visible;visibility:visible;opacity:1;isolation:auto;mix-blend-mode:normal;color-interpolation:sRGB;color-interpolation-filters:linearRGB;solid-color:#000000;solid-opacity:1;fill:url(#linearGradient6123-8);fill-opacity:1;fill-rule:nonzero;stroke:none;stroke-width:1;stroke-linecap:butt;stroke-linejoin:miter;stroke-miterlimit:4;stroke-dasharray:none;stroke-dashoffset:0;stroke-opacity:1;color-rendering:auto;image-rendering:auto;shape-rendering:auto;text-rendering:auto;enable-background:accumulate" />
      <path
         inkscape:connector-curvature="0"
         id="path5-3"
         d="m -523.23501,754.4494 c -17.0291,0 -33.28421,3.33281 -48.19364,9.32897 l 0,8.25675 c 4.29861,-1.85648 8.71092,-3.49919 13.24726,-4.85808 0.37427,0.52093 0.62674,1.12652 0.69824,1.79696 0.0678,0.62856 0.0288,1.79232 -0.88361,2.83608 -0.72672,0.82949 -1.28128,1.79374 -1.79366,2.7699 l -11.26823,21.46093 0,11.77122 c 2.12744,-1.12196 3.92348,-2.8497 5.07988,-5.05332 l 12.75082,-24.2937 c 0.36462,-0.69521 0.76178,-1.37417 1.25417,-1.98558 1.8799,-2.3285 2.76046,-5.28594 2.43566,-8.31631 -0.11183,-1.04473 -0.37311,-2.04264 -0.74468,-2.98831 8.81495,-2.03232 17.9942,-3.10745 27.41779,-3.10746 23.1639,0 44.83776,6.49017 63.30385,17.74786 l -12.94278,-0.36071 c -7.62822,-0.2019 -14.92926,3.2931 -19.5349,9.3786 l -11.69843,15.46113 c -0.41038,0.54189 -0.71604,1.16903 -0.80737,1.84328 -0.22959,1.68853 0.64352,3.24132 2.06831,3.95465 l 12.32722,6.16192 c 0,0 -15.39538,6.3136 -15.53721,6.39361 -2.81704,1.60089 -4.4289,4.75285 -3.97448,8.08797 0.29042,2.1323 1.51426,4.03025 3.21321,5.35116 l 6.66175,5.1824 c 2.11796,1.64851 4.90367,2.12452 7.4493,1.27409 l 14.465,-4.81837 28.55606,14.925 c 0.27907,0.14573 0.41293,0.46589 0.32431,0.76778 0,0 -2.54359,8.79386 -2.58459,9.11385 l -36.38931,-6.61532 c -0.77314,-0.14096 -1.57,-0.0394 -2.28333,0.29122 l -31.73301,14.73307 c -1.88006,0.87329 -2.71641,3.09005 -1.88312,4.98714 l 15.97079,36.36276 c 0.5239,1.19235 1.62135,2.03571 2.90891,2.23379 l 18.77377,2.88904 9.90817,51.52933 c 0.87514,4.55036 4.87352,7.85631 9.50762,7.85631 l 8.98473,0 c 4.23796,0 7.94355,-2.71537 9.22635,-6.75425 l 19.90885,-62.70494 c 0.81533,-2.56754 0.2489,-5.36228 -1.56526,-7.43936 -1.33144,-1.52471 -3.26082,-2.39925 -5.27508,-2.60112 l -3.6634,-0.36732 -6.16852,-23.12551 c 12.56613,16.47467 14.2566,16.49031 16.16598,16.49031 1.67234,0 3.40637,-0.53846 11.94987,-7.72393 3.06563,-2.57802 4.92081,-6.34979 5.09312,-10.35155 0.17232,-3.99987 -1.35313,-7.91828 -4.18628,-10.74866 l -0.0796,-0.0795 13.55174,0.77437 c 1.29128,7.10071 1.96903,14.41053 1.96903,21.87789 0,40.6004 -19.95578,76.60756 -50.55322,98.79303 l 12.32061,0 c 28.02064,-23.79101 45.85066,-59.23811 45.85066,-98.78972 0,-71.46135 -58.13806,-129.59943 -129.59945,-129.59943 z m 70.87227,30.37623 c 2.08474,1.49328 4.11765,3.05142 6.10244,4.66943 l -9.4878,9.11386 -4.77203,-5.51 c -6.9e-4,6.9e-4 7.96591,-7.63236 8.15739,-8.27329 z m -20.723,2.2437 7.62805,0.21512 -2.94532,2.72026 c -1.51036,1.39519 -1.64015,3.7364 -0.29448,5.29158 l 9.8121,11.3311 c 0.68385,0.78949 1.6642,1.26619 2.70708,1.3138 1.0456,0.0505 2.05952,-0.33614 2.81283,-1.05898 l 12.87654,-12.37023 c 17.14888,15.86138 29.74618,36.57016 35.59175,59.9284 l -21.42462,-1.21782 c -1.58085,-0.0895 -3.0475,0.80185 -3.69305,2.24372 -0.64573,1.44281 -0.3348,3.13538 0.78433,4.25248 l 7.15142,7.14811 c 1.34465,1.34471 2.04002,3.13024 1.95903,5.03017 -0.0813,1.9009 -0.92986,3.62342 -2.38601,4.84815 -3.47888,2.92562 -5.5084,4.45807 -6.65497,5.25519 -2.3828,-2.47612 -7.55028,-8.78113 -15.0938,-18.92268 l 2.20388,-7.51213 c 1.10964,-3.77797 -0.61743,-7.84277 -4.10681,-9.66652 l -29.98561,-15.67623 c -0.91716,-0.47905 -1.98852,-0.56492 -2.96853,-0.23826 l -16.00383,5.33129 c -0.122,0.0399 -0.25602,0.0182 -0.36075,-0.0629 l -6.86015,-5.3346 c -0.0441,-0.0353 -0.16604,-0.12571 -0.15249,-0.33424 0,-0.11522 0.0542,-0.1897 0.1,-0.23827 l 22.52324,-9.21975 c 1.3838,-0.56663 2.30673,-1.8879 2.36281,-3.38212 0.0559,-1.49424 -0.76518,-2.88236 -2.10135,-3.5509 l -15.73257,-7.86624 9.00134,-11.897 c 3.12373,-4.12652 8.0974,-6.50145 13.25047,-6.36052 z m -15.42131,76.56103 33.83114,6.15202 8.44203,31.66023 c 0.40851,1.53234 1.72471,2.65247 3.30267,2.80961 l 6.53925,0.65524 0.083,0.12912 -19.90546,62.7049 c -0.2733,0.86096 -1.06204,1.43954 -1.96581,1.43954 l -8.98473,0 c -0.9885,0 -1.83958,-0.70405 -2.02529,-1.67446 l -10.41783,-54.1636 c -0.30379,-1.58089 -1.56899,-2.79887 -3.16034,-3.04458 l -19.35953,-2.98169 -13.63103,-31.03476 27.25225,-12.65152 z m -82.9216,39.97323 0,7.62467 20.71638,0.83063 0.94308,25.495 c -4.25084,4.79728 -17.63804,22.24494 -11.1127,45.28464 l 7.99541,0 c -8.05047,-23.61876 8.80394,-40.30991 9.61351,-41.09176 0.78855,-0.75333 1.21571,-1.80618 1.17487,-2.89567 l -1.13183,-30.59792 c -0.0729,-1.98851 -1.66506,-3.5867 -3.65341,-3.66672 l -24.54531,-0.98287 z m 0,74.06583 0,5.16911 4.76541,0 c -1.89142,-1.65593 -3.47193,-3.40978 -4.76541,-5.16911 z"
         style="opacity:0.8;fill:#ffffff" />
      <path
         style="opacity:0.83999999;fill:#ffffff"
         d="m -429.23716,760.60001 c -0.10624,0.2054 -0.31514,0.32323 -0.5315,0.32323 -0.0924,0 -0.1864,-0.0215 -0.2743,-0.067 -0.69141,-0.35771 -1.32294,-0.82018 -1.8772,-1.37455 -0.5544,-0.55448 -1.01691,-1.18602 -1.37442,-1.87719 -0.15177,-0.2933 -0.0372,-0.654 0.25623,-0.80572 0.29335,-0.15172 0.65402,-0.0369 0.80566,0.25629 0.30107,0.58176 0.69072,1.1138 1.15807,1.58119 0.46718,0.46726 0.99923,0.85686 1.58123,1.158 0.29321,0.15171 0.40801,0.51248 0.25623,0.8057 z m 1.00145,-2.89881 c -0.41476,-0.19404 -0.79102,-0.45837 -1.11818,-0.78545 -0.32701,-0.32723 -0.59152,-0.70356 -0.78579,-1.11853 -0.14005,-0.29901 -0.4959,-0.42787 -0.79503,-0.28783 -0.299,0.14002 -0.42788,0.49596 -0.28783,0.79502 0.25333,0.54098 0.59759,1.03102 1.02312,1.45684 0.4258,0.42566 0.91603,0.76991 1.45691,1.023 0.0814,0.0383 0.1682,0.0566 0.25305,0.0566 0.22492,0 0.4403,-0.12749 0.54199,-0.34464 0.13977,-0.29906 0.0138,-0.65492 -0.28824,-0.79489 z m 15.46345,-14.33708 c -0.23333,-0.23351 -0.61193,-0.23344 -0.8454,0 l -4.24271,4.24267 c -0.23346,0.23348 -0.23346,0.61199 0,0.84547 0.11728,0.11688 0.26974,0.17513 0.42277,0.17513 0.15301,0 0.30603,-0.0583 0.42276,-0.17513 l 4.24258,-4.24265 c 0.2336,-0.2335 0.2336,-0.612 0,-0.84549 z m 8.23845,8.78113 0,0 -1.09527,1.09532 c -7.7e-4,7.6e-4 0,0.002 0,0.004 -7.7e-4,7.6e-4 0,0.002 0,0.004 l -2.344,2.34386 c -4.1e-4,5.4e-4 -7.6e-4,7.6e-4 0,0.002 -5.4e-4,5.4e-4 -7.6e-4,7.6e-4 0,0.002 l -1.09665,1.09676 c -0.85961,0.85963 -2.25844,0.85956 -3.11805,0 l -2.2728,-2.27274 c -0.41517,-0.41518 -0.64381,-0.9688 -0.64381,-1.55902 0,-0.5902 0.22864,-1.14383 0.64381,-1.559 l 0.67569,-0.67558 -1.18124,-1.18116 -1.43318,1.43306 c -1.06865,1.0685 -2.8072,1.06837 -3.8757,0 l -0.33487,-0.33488 -1.25506,1.25504 c 0.29872,0.63871 0.45603,1.34064 0.45603,2.06667 0,1.30433 -0.50791,2.53059 -1.4303,3.45295 -0.0924,0.0933 -0.19317,0.18535 -0.29694,0.27342 -0.109,0.0922 -0.246,0.14209 -0.38688,0.14209 -0.0248,0 -0.0511,-0.002 -0.0759,-0.004 -0.16667,-0.0213 -0.31666,-0.11176 -0.41325,-0.24911 -0.27678,-0.39345 -0.57179,-0.78451 -0.88376,-1.17152 -1.07319,0.81295 -2.61317,0.73024 -3.59131,-0.24785 -0.97827,-0.97836 -1.06092,-2.51824 -0.24795,-3.59133 -0.38703,-0.31196 -0.77792,-0.60689 -1.17144,-0.88382 -0.13798,-0.0966 -0.2278,-0.2466 -0.24905,-0.4132 -0.0221,-0.1666 0.0289,-0.33447 0.1366,-0.46255 0.0883,-0.10403 0.18048,-0.20413 0.27402,-0.29753 0.92226,-0.92209 2.14819,-1.4298 3.45251,-1.4298 0.72605,0 1.42794,0.15742 2.06665,0.45603 l 1.2552,-1.25496 -0.33501,-0.33495 c -1.06852,-1.06857 -1.06852,-2.80722 0,-3.87578 l 1.43318,-1.43313 -1.18124,-1.18117 -0.67555,0.67565 c -0.8596,0.85959 -2.25829,0.85959 -3.11804,0 l -2.2728,-2.27285 c -0.41517,-0.41512 -0.64381,-0.9688 -0.64381,-1.55895 0,-0.59023 0.22864,-1.14392 0.64381,-1.55902 l 3.443,-3.44305 c 0,-7.6e-4 0,-0.004 0,-0.004 0,-7.7e-4 0,-0.004 0,-0.004 l 1.09444,-1.09448 c 0.41518,-0.41519 0.9689,-0.64378 1.55904,-0.64378 0.59026,0 1.14398,0.22866 1.55902,0.64385 l 2.27266,2.2727 c 0.8596,0.8596 0.8596,2.25838 0,3.11798 l -0.67555,0.67563 1.18123,1.18117 1.43305,-1.43306 c 0.51591,-0.51594 1.20401,-0.80013 1.93778,-0.80013 0.12004,0 0.23815,0.008 0.35489,0.0225 l 0.77488,-0.77483 c 0.85423,-0.8542 2.24092,-0.85944 3.10191,-0.016 0.029,-0.065 0.0704,-0.12584 0.1228,-0.1791 0.2336,-0.23348 0.61208,-0.23348 0.84554,0 l 0.33488,0.33479 0.38454,-0.38455 c 0.23346,-0.2335 0.61194,-0.2335 0.8454,0 0.23359,0.23351 0.23359,0.61203 0,0.84549 l -0.38455,0.38459 0.33487,0.33493 c 0.23361,0.2335 0.23361,0.612 0,0.8455 -0.0538,0.0532 -0.11452,0.0944 -0.17923,0.12348 0.40511,0.4133 0.62794,0.96029 0.62794,1.54279 0,0.59016 -0.22877,1.14385 -0.64395,1.55902 l -0.77474,0.77477 c 0.0152,0.11687 0.0221,0.23528 0.0221,0.35498 0,0.73372 -0.28424,1.42191 -0.80014,1.93787 l -1.43306,1.43304 1.18124,1.18119 0.67555,-0.67567 c 0.41518,-0.41516 0.96875,-0.64375 1.55903,-0.64375 0.59013,0 1.14384,0.22866 1.55902,0.64384 l 2.27265,2.27272 c 0.41518,0.4151 0.64395,0.96879 0.64395,1.55901 0,0.59023 -0.22863,1.14384 -0.64395,1.55901 z m -5.22085,-3.86968 1.42698,1.42708 1.38918,-1.3892 -0.7135,-0.71359 c -0.1893,-0.18932 -0.44277,-0.29354 -0.71348,-0.29354 -0.27086,0 -0.52419,0.10416 -0.7135,0.29354 l -0.67568,0.67571 z m -0.84553,0.84551 -1.50314,1.50313 1.42711,1.42703 1.50314,-1.50316 -1.42711,-1.427 z m -3.14193,-11.51713 c 0.12832,0.0904 0.2503,0.19262 0.36372,0.30603 l 3.03015,3.03021 c 0.11314,0.11329 0.21552,0.23494 0.3059,0.36356 l 0.40098,-0.40102 c 0.1893,-0.18939 0.29361,-0.44281 0.29361,-0.71358 0,-0.27076 -0.10486,-0.52419 -0.29361,-0.71351 l -2.27266,-2.27278 c -0.39352,-0.3934 -1.03374,-0.39334 -1.42711,0 l -0.40098,0.40109 z m -8.39892,-1.71466 1.42712,1.42702 0.67568,-0.67559 c 0.39338,-0.39344 0.39338,-1.03361 0,-1.42701 l -0.71363,-0.71356 -1.38917,1.38914 z m -2.27265,-2.27265 1.42726,1.42714 1.38917,-1.38914 -0.71376,-0.71371 c -0.18931,-0.18933 -0.44265,-0.29355 -0.7135,-0.29355 -0.27085,0 -0.52418,0.1043 -0.71349,0.2936 l -0.67568,0.67566 z m -2.34854,2.34865 1.42712,1.42714 1.50315,-1.50305 -1.42713,-1.42723 -1.50314,1.50314 z m 0.58171,2.27259 -1.42725,-1.42709 -0.67554,0.67558 c -0.18945,0.18939 -0.29362,0.44274 -0.29362,0.71352 0,0.27075 0.10487,0.52411 0.29362,0.71344 l 0.71362,0.7137 1.38917,-1.38915 z m 2.27252,2.27264 -1.42711,-1.42707 -1.38917,1.38914 0.71363,0.71366 c 0.39337,0.39331 1.03346,0.39331 1.42697,0 l 0.67568,-0.67573 z m 0.84554,-0.8455 1.50301,-1.50313 -1.42698,-1.4271 -1.50314,1.50309 1.42711,1.42714 z m 2.02664,2.02667 1.50314,-1.50313 -1.18124,-1.18118 -1.50314,1.50314 1.18124,1.18117 z m -4.64465,13.69978 c -0.33281,-0.37378 -0.68107,-0.74267 -1.04381,-1.10542 -0.36262,-0.36272 -0.73157,-0.71108 -1.10536,-1.04388 -0.416,0.60173 -0.35654,1.43527 0.17869,1.97049 0.53522,0.53519 1.36875,0.59471 1.97048,0.17881 z m 3.06657,-1.52847 c 0,-0.98493 -0.38358,-1.91094 -1.08009,-2.60731 -0.69638,-0.6965 -1.62236,-1.08006 -2.60738,-1.08006 -0.869,0 -1.69205,0.29853 -2.35201,0.8471 0.95041,0.71344 1.88136,1.52455 2.77464,2.4178 0.89354,0.89359 1.70459,1.82447 2.41779,2.7746 0.54861,-0.66018 0.84705,-1.48316 0.84705,-2.35213 z m 1.14923,-4.16718 -0.66933,-0.66934 -1.06492,1.06493 c 0.12142,0.10002 0.23801,0.20626 0.35046,0.31878 0.11315,0.11245 0.21884,0.22951 0.31874,0.35062 l 1.06505,-1.06499 z m 8.41093,-3.86561 c 0.002,-7.6e-4 0,-0.004 0,-0.004 0.002,-7.6e-4 0,-0.004 0,-0.004 l 1.85183,-1.85178 c 0.29016,-0.29016 0.44994,-0.67802 0.44994,-1.09236 0,-0.1301 -0.0165,-0.25767 -0.0469,-0.38043 0,-0.0138 -0.0138,-0.0264 -0.0138,-0.0399 -0.0704,-0.25242 -0.20393,-0.483 -0.39296,-0.67213 l -3.03016,-3.03021 c -0.18875,-0.18878 -0.41904,-0.32237 -0.671,-0.39272 -0.0138,-0.004 -0.0289,-0.007 -0.0427,-0.0124 -0.1228,-0.0303 -0.24934,-0.0459 -0.37904,-0.0459 -0.4142,0 -0.80206,0.15975 -1.09223,0.44992 0,0 0,0 0,0 l -1.85251,1.85256 c -7.6e-4,7.6e-4 0,0.002 0,0.004 -7.6e-4,7.6e-4 0,0.002 0,0.004 l -2.34095,2.34086 c 0,0.002 0,0.004 0,0.004 0,0.002 0,0.004 0,0.004 l -1.85141,1.85137 c -0.60227,0.60231 -0.60227,1.58237 0,2.18477 l 0.75006,0.74998 c 0,0.004 0,0.004 0.0138,0.008 0,0.004 0,0.004 0.0138,0.008 l 1.50453,1.50447 c 7.6e-4,7.6e-4 0,0.002 0,0.004 7.6e-4,7.6e-4 0,0.002 0,0.004 l 0.75488,0.75495 c 0.60227,0.6024 1.58248,0.60224 2.18476,0 l 1.85002,-1.84996 c 0,-0.002 0,-0.004 0,-0.006 0,-0.002 0,-0.004 0,-0.006 l 2.33861,-2.33889 z m 0.10487,3.9485 1.50315,-1.50314 -1.18111,-1.18116 -1.50329,1.50315 1.18125,1.18115 z m 1.42711,3.1181 -1.42711,-1.42703 -0.67569,0.67559 c -0.18931,0.18938 -0.29362,0.44275 -0.29362,0.71351 0,0.27077 0.10486,0.52419 0.29362,0.71352 l 0.71363,0.71356 1.38917,-1.38915 z m 2.27266,2.27268 -1.42712,-1.42724 -1.38918,1.38921 0.71363,0.71371 c 0.39338,0.39341 1.03361,0.39334 1.42713,0 l 0.67554,-0.67568 z m 2.34868,-2.3486 -1.42726,-1.42722 -1.50314,1.50314 1.42726,1.42715 1.50314,-1.50307 z m 1.81483,-2.23468 c 0,-0.27075 -0.10486,-0.52418 -0.29361,-0.71349 l -0.71363,-0.71371 -1.38931,1.38921 1.42725,1.42723 0.67569,-0.67564 0,0 c 0.1893,-0.18948 0.29361,-0.44281 0.29361,-0.7136 z"
         id="XMLID_2250_-0"
         inkscape:connector-curvature="0" />
      <path
         inkscape:connector-curvature="0"
         id="path5-1-1"
         d="m 502.11436,602.83873 c -9.95014,12.50289 -9.15982,30.80493 2.40252,42.36725 6.02064,6.02068 14.02777,9.33398 22.54238,9.33398 8.51451,0 16.5182,-3.3133 22.53884,-9.33398 11.56191,-11.56253 12.35244,-29.86455 2.40231,-42.36725 l -2.44493,0 c 3.3458,3.79222 5.58013,8.22673 6.68023,12.88285 -1.59235,5.58661 -3.98897,10.74567 -7.12954,15.33841 -0.29217,0.42701 -0.1829,1.00998 0.24408,1.30208 0.16123,0.11051 0.34874,0.16268 0.53079,0.16268 0.29893,0 0.58981,-0.14148 0.77132,-0.4069 2.58081,-3.77408 4.67667,-7.91725 6.25571,-12.3521 0.82875,8.61744 -2.0481,17.5279 -8.63333,24.11331 -2.73624,2.73616 -5.91169,4.87743 -9.36236,6.36182 4.1563,-2.74015 8.01592,-6.13761 11.37557,-10.05223 0.33693,-0.39259 0.29346,-0.98649 -0.0998,-1.32332 -0.39286,-0.33732 -0.98621,-0.29022 -1.32315,0.10254 -4.73882,5.52101 -11.26362,10.46033 -17.7091,13.42065 -1.34761,0.18295 -2.7139,0.27953 -4.09737,0.27953 -0.97301,0 -1.94141,-0.0469 -2.89789,-0.13804 4.20214,-1.48578 8.19797,-3.48901 11.91709,-5.97968 0.43,-0.28788 0.54613,-0.86871 0.25815,-1.29855 -0.28788,-0.42982 -0.86814,-0.54641 -1.29856,-0.25829 -4.59692,3.0786 -9.63189,5.38688 -14.96321,6.8607 -1.17813,-0.27944 -2.33393,-0.63183 -3.46398,-1.05087 0.95358,-0.22815 1.90309,-0.48581 2.8411,-0.77487 0.49461,-0.15254 0.77176,-0.67668 0.61923,-1.17118 -0.1522,-0.49424 -0.67687,-0.77119 -1.17126,-0.61918 -1.73435,0.53454 -3.50809,0.95822 -5.27551,1.27023 -2.72603,-1.3675 -5.25038,-3.16395 -7.49405,-5.34987 1.0665,-0.20987 2.12828,-0.44609 3.17396,-0.71826 0.50072,-0.13026 0.80266,-0.64207 0.67225,-1.14286 -0.13042,-0.5008 -0.64113,-0.8025 -1.14293,-0.67227 -1.39581,0.36308 -2.82371,0.67 -4.24947,0.91641 -2.43333,-2.74786 -4.27555,-5.8401 -5.52678,-9.10751 1.83729,-0.47058 3.6647,-1.04066 5.44542,-1.70544 0.48463,-0.1808 0.72957,-0.72192 0.54838,-1.20656 -0.18107,-0.48463 -0.71883,-0.73328 -1.20303,-0.55197 -1.76719,0.65984 -3.58259,1.22652 -5.40635,1.68775 -0.39822,-1.27427 -0.7096,-2.56994 -0.93426,-3.87793 4.06195,-1.31268 7.96129,-3.10011 11.59862,-5.33571 0.44073,-0.27101 0.57876,-0.84708 0.30774,-1.28793 -0.27124,-0.4406 -0.84689,-0.57884 -1.28783,-0.30783 -3.41611,2.09973 -7.0734,3.79217 -10.88032,5.04911 -0.1857,-1.73009 -0.22337,-3.4731 -0.10863,-5.20833 1.94742,-0.84116 3.83386,-1.80346 5.61179,-2.86247 0.44416,-0.26469 0.59036,-0.83981 0.32545,-1.2844 -0.2648,-0.4446 -0.83981,-0.59043 -1.2844,-0.3255 -1.41502,0.84255 -2.90035,1.62215 -4.43344,2.32463 0.2619,-1.90366 0.70381,-3.78822 1.33033,-5.62232 3.02723,-1.78045 6.17048,-4.14239 8.71126,-6.46442 0.38212,-0.349 0.40906,-0.94125 0.0601,-1.32329 -0.34928,-0.38229 -0.94146,-0.4095 -1.32336,-0.0602 -1.9676,1.79803 -4.06936,3.43955 -6.26269,4.90051 1.18393,-2.54221 2.76436,-4.94061 4.69879,-7.13315 l -2.45544,0 z m 14.66266,0 c -2.27801,2.92798 -4.87031,5.63796 -7.72043,8.01419 -0.39725,0.33145 -0.45178,0.92228 -0.11957,1.31978 0.18516,0.2223 0.45339,0.33613 0.72173,0.33613 0.21146,0 0.42248,-0.0696 0.59798,-0.21584 3.32433,-2.77154 6.32397,-5.97243 8.8846,-9.45426 l -2.36356,0 z m 9.08629,0 c -1.91704,3.65738 -4.70877,7.19278 -8.50968,10.76696 -0.37675,0.35464 -0.39339,0.94998 -0.0376,1.32687 0.1844,0.19607 0.43353,0.29366 0.68298,0.29366 0.23003,0 0.45962,-0.0846 0.64037,-0.25475 4.25259,-3.9992 7.29913,-7.97406 9.31997,-12.13274 l -2.09479,0 z m 7.07662,0 c -1.07594,2.36046 -2.30688,4.64993 -3.7364,6.83595 -0.28337,0.4331 -0.16487,1.01536 0.26877,1.29855 0.15768,0.10362 0.33715,0.15217 0.51307,0.15217 0.30559,0 0.6056,-0.14982 0.7855,-0.42458 1.64043,-2.50817 3.0547,-5.13471 4.24582,-7.86205 l -2.07676,0 z m 13.43119,0 c -0.4272,1.8902 -0.92428,3.7714 -1.57109,5.61524 -0.17024,0.48815 0.0848,1.02448 0.57317,1.19594 0.10305,0.0361 0.20856,0.0531 0.3115,0.0531 0.38673,0 0.74942,-0.24049 0.88456,-0.62629 0.71798,-2.04632 1.27753,-4.13726 1.73371,-6.23797 l -1.93185,0 z m -61.26871,2.80586 c -3.05234,0 -5.53386,2.48501 -5.53386,5.53739 0,3.05239 2.48152,5.53386 5.53386,5.53386 3.05234,0 5.5373,-2.48147 5.5373,-5.53386 0,-3.05238 -2.48496,-5.53739 -5.5373,-5.53739 z m 0,1.87529 c 2.01922,0 3.66212,1.64297 3.66212,3.6621 0,2.01915 -1.6429,3.66212 -3.66212,3.66212 -2.01922,0 -3.66212,-1.64297 -3.66212,-3.66212 0,-2.01913 1.6429,-3.6621 3.66212,-3.6621 z m 57.57116,7.40559 c -0.36376,-0.0303 -0.72549,0.15508 -0.90581,0.4989 -0.84013,1.6029 -1.77708,3.18281 -2.78111,4.69529 -3.60019,5.42241 -8.04587,10.00755 -13.21178,13.62234 -0.42431,0.29677 -0.52681,0.87811 -0.23003,1.30208 0.18215,0.26047 0.47239,0.39982 0.76768,0.39982 0.18537,0 0.37471,-0.0554 0.53786,-0.16975 5.35923,-3.74971 9.96667,-8.49924 13.69674,-14.1177 1.03956,-1.56614 2.00999,-3.20199 2.88007,-4.86157 0.24011,-0.45841 0.0612,-1.02308 -0.39619,-1.26317 -0.11409,-0.06 -0.23624,-0.096 -0.35743,-0.10616 z m -17.73389,0.80319 c -0.23926,0.0145 -0.47551,0.12138 -0.64746,0.31491 -0.94575,1.06462 -1.95611,2.10562 -3.00393,3.09598 -0.3759,0.35558 -0.39092,0.94712 -0.0344,1.32332 0.1844,0.19511 0.43064,0.29367 0.67933,0.29367 0.23089,0 0.46327,-0.0835 0.64403,-0.25476 1.08754,-1.02761 2.13557,-2.11091 3.11728,-3.21629 0.3438,-0.38697 0.30902,-0.97969 -0.0784,-1.32331 -0.19353,-0.17174 -0.43665,-0.24763 -0.6759,-0.23352 z m 10.02055,0.12736 c -0.23646,0.0406 -0.4593,0.17101 -0.60871,0.38214 -7.03787,9.95753 -16.93466,17.26407 -27.87091,20.57857 -0.49525,0.15018 -0.77637,0.67599 -0.6262,1.17117 0.12322,0.40477 0.4931,0.66518 0.89508,0.66518 0.0902,0 0.18194,-0.0145 0.27253,-0.0424 11.33307,-3.43466 21.5844,-10.99705 28.86174,-21.2933 0.2985,-0.42257 0.19599,-1.00696 -0.22648,-1.30562 -0.21124,-0.14927 -0.4607,-0.19634 -0.69705,-0.15561 z m -19.9913,0.2583 c -0.23883,-0.0203 -0.48538,0.0491 -0.68288,0.21583 -0.77819,0.6561 -1.59503,1.32551 -2.49451,2.04158 -0.40488,0.32231 -0.47089,0.91148 -0.14856,1.31625 0.18484,0.23235 0.45672,0.35382 0.73247,0.35382 0.20448,0 0.41143,-0.0679 0.58381,-0.20522 0.91322,-0.72708 1.74186,-1.40583 2.53337,-2.07342 0.39564,-0.33356 0.44705,-0.92415 0.11227,-1.31979 -0.16659,-0.19759 -0.398,-0.30876 -0.63672,-0.32905 z m 36.89365,1.92128 c -0.36526,-1.1e-4 -0.71239,0.21564 -0.86341,0.57319 -0.17754,0.41788 -0.3627,0.83915 -0.55204,1.25609 -0.21414,0.4713 0,1.02784 0.46702,1.24194 0.12505,0.0572 0.25622,0.085 0.38577,0.085 0.35593,0 0.69576,-0.2067 0.85269,-0.55197 0.19632,-0.4317 0.39006,-0.86897 0.57318,-1.30208 0.20179,-0.47645 -0.0215,-1.02609 -0.4989,-1.22778 -0.11958,-0.0504 -0.24259,-0.0743 -0.36431,-0.0743 z m -2.12666,4.62451 c -0.36291,-0.0388 -0.72786,0.13841 -0.91634,0.47767 -1.28074,2.30842 -2.74493,4.55286 -4.35208,6.67318 -5.90966,7.79856 -13.50182,13.72602 -21.95149,17.13937 -0.47991,0.19395 -0.71014,0.741 -0.51651,1.22071 0.14673,0.36494 0.49622,0.58735 0.86686,0.58735 0.11592,0 0.23914,-0.0245 0.35378,-0.0708 8.76342,-3.54031 16.6265,-9.67627 22.74063,-17.74442 1.6605,-2.19083 3.1732,-4.51011 4.4971,-6.89609 0.25084,-0.45253 0.0891,-1.02268 -0.36452,-1.27378 -0.11228,-0.0627 -0.23646,-0.10036 -0.35743,-0.11323 z m -31.23936,15.50116 c -0.12129,0.005 -0.24398,0.0332 -0.36087,0.0884 -1.13036,0.53686 -2.29357,1.03465 -3.45679,1.479 -0.48333,0.18482 -0.7227,0.72685 -0.53786,1.21009 0.14308,0.37337 0.49686,0.6015 0.87383,0.6015 0.11056,0 0.22251,-0.0181 0.33264,-0.0601 1.20872,-0.46192 2.42045,-0.98117 3.59493,-1.53915 0.46756,-0.22204 0.66431,-0.77817 0.44223,-1.24547 -0.1667,-0.3503 -0.52317,-0.55 -0.88811,-0.53427 z"
         style="opacity:0.7;fill:#ffffff" />
      <path
         inkscape:connector-curvature="0"
         id="path5-6-7"
         d="m 923.1013,767.5965 c -18.60665,0 -33.74449,15.13777 -33.74449,33.74447 0,18.60669 15.13784,33.74095 33.74449,33.74095 1.86616,0 3.68553,-0.19205 5.47011,-0.48475 l 0,-4.17516 c -1.77535,0.3337 -3.59922,0.53074 -5.47011,0.53074 -16.32821,0 -29.6117,-13.28372 -29.6117,-29.61178 0,-2.00344 0.20287,-3.96286 0.58381,-5.85583 l 29.02789,0 0,-4.1327 -27.87799,0 c 0.44964,-1.25143 0.98149,-2.46286 1.5887,-3.63027 l 22.29464,0 0,-4.13269 -19.69408,0 c 5.4071,-7.19842 14.01306,-11.86383 23.68873,-11.86383 1.87035,0 3.69519,0.19391 5.47011,0.5272 l 0,-4.17163 c -1.78458,-0.29275 -3.60395,-0.48472 -5.47011,-0.48472 z m -9.16046,50.27174 0,4.12915 14.63057,0 0,-4.12915 -14.63057,0 z m -26.26107,7.86556 c -5.52645,0 -10.02387,4.49759 -10.02387,10.02393 0,5.52633 4.49742,10.02038 10.02387,10.02038 5.52625,0 10.02034,-4.49376 10.02034,-10.02038 0,-5.52661 -4.49409,-10.02393 -10.02034,-10.02393 z m 0,4.1327 c 3.24781,0 5.88765,2.64325 5.88765,5.89123 0,3.24798 -2.63984,5.88768 -5.88765,5.88768 -3.24833,0 -5.89129,-2.6397 -5.89129,-5.88768 0,-3.24798 2.64328,-5.89123 5.89129,-5.89123 z"
         style="opacity:0.75;fill:#ffffff" />
      <path
         sodipodi:nodetypes="cccccccccccccccccccccccccccccccccccccccccccccccccccccccccccccccccccccccccccccccccccccccccccccccccccccccccccccccccccccccccccccccccccccccccccccccccccccccccccccccccccccccccccccccccccccccccccccccc"
         inkscape:connector-curvature="0"
         id="rect4465-0"
         d="m 249.97377,655.11107 -2.1549,9.75856 -6.05036,-8.07435 4.62445,8.85983 -9.82934,-2.29987 9.23858,3.81778 -9.00507,4.55729 9.52863,-3.01461 -3.96993,9.27736 5.36395,-8.4317 2.92264,9.65948 -1.31267,-9.90716 8.44945,5.51971 -7.37736,-6.74749 10.02048,-1.19947 -9.98515,-0.42813 6.90327,-7.36314 -7.92229,6.0929 z m -554.5283,133.33065 -2.64312,10.90494 -6.60598,-9.20657 4.98189,10.05576 -10.97917,-2.80939 10.28207,4.5007 -10.21486,4.90403 10.76685,-3.15967 -4.67392,10.32467 6.21667,-9.34458 3.05707,10.91203 -1.24203,-11.15263 9.35526,6.39367 -8.12029,-7.74528 11.27644,-1.11457 -11.19855,-0.71119 7.9221,-8.10616 -9.03677,6.65547 z m 103.51921,5.43833 -1.81159,4.49359 -2.24693,-4.34498 1.5038,4.60683 -4.51485,-1.88591 4.10797,2.5617 -4.67047,1.46131 4.79782,-0.67935 -2.63949,4.11855 3.2375,-3.60195 0.62627,4.85095 0.16667,-4.84034 3.59837,3.31536 -2.98624,-3.8178 4.88624,0.23 -4.74131,-1.00488 3.89221,-2.96861 -4.27771,2.27865 z m -22.60616,24.82449 -2.80924,6.37596 -3.02881,-6.35119 1.94239,6.69087 -6.40073,-2.91907 5.78877,3.87441 -6.78296,1.87881 6.92789,-0.75011 -3.98749,5.79569 4.82608,-5.02788 0.67229,7.00576 0.45996,-6.95269 5.01739,4.93234 -4.1116,-5.6223 7.01286,0.55551 -6.76521,-1.66299 5.72863,-4.0867 -6.25218,3.07476 z m 838.26926,-132.54841 -3.76463,13.04206 -7.50479,-11.47106 5.49856,12.40869 -13.12335,-3.96286 12.19273,5.97261 -12.59964,5.3994 13.17647,-3.26228 -6.18132,12.23532 7.99639,-10.96861 3.12791,13.34633 -0.92364,-13.54449 10.97575,8.21232 -9.41174,-9.77977 13.686,-0.76427 -13.49848,-1.44008 9.99565,-9.38349 -11.26942,7.5719 z m 56.35053,130.42064 2.87663,10.55819 -9.97783,-4.75543 8.99076,6.2415 -10.69989,2.77047 10.89803,-0.99778 -6.41499,9.00135 7.7099,-7.77004 0.87051,11.01462 0.90925,-10.90494 7.74887,7.87973 -6.31227,-8.93767 11.00054,1.05441 -10.583,-2.78816 9.104,-6.26629 -9.89658,4.66701 2.94726,-10.65021 -4.58554,9.93546 z m 133.84225,33.11467 -0.9801,6.29104 -4.16811,-4.89342 3.29063,5.44893 -6.34061,-1.0721 6.02569,2.05928 -5.5445,3.25521 5.93724,-2.29634 -2.1549,6.05752 3.07489,-5.57277 2.24313,6.02212 -1.23116,-6.24504 5.59032,3.17383 -4.9536,-3.99472 6.31936,-1.16407 -6.36176,0.12735 4.09384,-4.95359 -4.79432,4.18578 -0.0451,-6.42904 z m -1295.69684,-220.23639 -2.17265,18.20794 -12.5076,-13.65417 10.04148,15.34194 -18.35997,-2.42018 17.55688,5.30033 -15.62155,9.94606 16.85272,-7.22159 -5.56921,17.65949 8.2654,-16.36802 7.0837,17.11107 -4.18587,-17.85411 16.42464,8.55554 -14.6837,-10.98634 18.08043,-4.00531 -18.3105,1.02256 11.27645,-14.68736 -13.36758,12.55376 z m 560.688442,308.20317 -2.108882,6.39718 -3.506334,-5.82753 2.494383,6.25567 -6.436055,-2.21143 5.937142,3.19152 -6.351087,2.44141 6.595289,-1.37284 -3.294204,5.95491 4.171738,-5.28973 1.301997,6.67672 -0.20526,-6.73333 5.289856,4.27777 -4.486589,-5.02788 6.803984,-0.12391 -6.669566,-0.96595 5.134057,-4.46528 -5.728446,3.54179 1.057977,-6.71917 z M 895.87774,652.5175 l -1.73359,5.25433 -2.88018,-4.79082 2.04864,5.14111 -5.28259,-1.81866 4.87224,2.62184 -5.2154,2.00267 5.41697,-1.12517 -2.7066,4.8899 3.42834,-4.345 1.0651,5.48431 -0.16669,-5.5303 4.34511,3.51702 -3.68338,-4.12915 5.58678,-0.0991 -5.47708,-0.7961 4.21749,-3.66919 -4.70577,2.912 z"
         style="color:#000000;clip-rule:nonzero;display:inline;overflow:visible;visibility:visible;opacity:0.7;isolation:auto;mix-blend-mode:normal;color-interpolation:sRGB;color-interpolation-filters:linearRGB;solid-color:#000000;solid-opacity:1;fill:#ffffff;fill-opacity:1;fill-rule:nonzero;stroke:none;stroke-width:1;stroke-linecap:butt;stroke-linejoin:miter;stroke-miterlimit:4;stroke-dasharray:none;stroke-dashoffset:0;stroke-opacity:1;color-rendering:auto;image-rendering:auto;shape-rendering:auto;text-rendering:auto;enable-background:accumulate" />
      <path
         style="font-style:normal;font-variant:normal;font-weight:300;font-stretch:normal;font-size:medium;line-height:125%;font-family:Lato;-inkscape-font-specification:'Lato Light';text-align:center;letter-spacing:0px;word-spacing:0px;text-anchor:middle;fill:#ffffff;fill-opacity:1;stroke:none;stroke-width:1px;stroke-linecap:butt;stroke-linejoin:miter;stroke-opacity:1"
         d="M 820.15234 298.07227 L 820.15234 313.78711 L 821.18945 313.78711 L 821.18945 305.70898 C 821.66467 305.07536 822.20572 304.58134 822.81055 304.22852 C 823.42257 303.8685 824.07696 303.68945 824.77539 303.68945 C 825.71864 303.68945 826.42004 303.97671 826.88086 304.55273 C 827.34168 305.12156 827.57227 305.90993 827.57227 306.91797 L 827.57227 313.78711 L 828.60938 313.78711 L 828.60938 306.91797 C 828.60937 306.29154 828.53402 305.73119 828.38281 305.23438 C 828.23161 304.73756 828.0081 304.3118 827.71289 303.95898 C 827.41768 303.60617 827.04346 303.33564 826.58984 303.14844 C 826.14342 302.96123 825.62558 302.86914 825.03516 302.86914 C 824.24312 302.86914 823.52559 303.04819 822.88477 303.4082 C 822.25114 303.76822 821.68627 304.25064 821.18945 304.85547 L 821.18945 298.07227 L 820.15234 298.07227 z M 887.62695 298.07227 L 887.62695 313.78711 L 888.66406 313.78711 L 888.66406 298.07227 L 887.62695 298.07227 z M 899.63086 298.07227 L 899.63086 304.44531 C 899.23485 303.91969 898.76915 303.52423 898.23633 303.25781 C 897.70351 302.9914 897.07489 302.85742 896.34766 302.85742 C 895.59162 302.85742 894.92112 303.00105 894.33789 303.28906 C 893.76186 303.57708 893.27687 303.97449 892.88086 304.47852 C 892.48484 304.97534 892.18146 305.56402 891.97266 306.24805 C 891.77105 306.92488 891.66992 307.65657 891.66992 308.44141 C 891.66992 310.27029 892.03706 311.6422 892.77148 312.55664 C 893.50592 313.47108 894.53647 313.92773 895.86133 313.92773 C 896.65336 313.92773 897.36637 313.73709 898 313.35547 C 898.63363 312.97386 899.18689 312.45858 899.66211 311.81055 L 899.77148 313.50781 C 899.80028 313.69502 899.90654 313.78711 900.09375 313.78711 L 900.65625 313.78711 L 900.65625 298.07227 L 899.63086 298.07227 z M 803.86523 298.31055 C 803.37561 298.31055 802.92861 298.39042 802.52539 298.54883 C 802.12217 298.70003 801.77629 298.93062 801.48828 299.24023 C 801.20027 299.54985 800.97677 299.93823 800.81836 300.40625 C 800.65995 300.86707 800.58203 301.4036 800.58203 302.01562 L 800.58203 303.37695 L 798.76758 303.37695 L 798.76758 303.79688 C 798.76758 303.95528 798.86871 304.04481 799.07031 304.06641 L 800.58203 304.16406 L 800.58203 313.78711 L 801.61914 313.78711 L 801.61914 304.14258 L 805.07422 304.14258 L 805.07422 303.37695 L 801.58594 303.37695 L 801.58594 302.04688 C 801.58594 301.50685 801.64261 301.05471 801.75781 300.6875 C 801.88022 300.31309 802.04962 300.00971 802.26562 299.7793 C 802.48163 299.54889 802.73799 299.38401 803.0332 299.2832 C 803.33562 299.1752 803.66281 299.12109 804.01562 299.12109 C 804.19563 299.12109 804.35538 299.13074 804.49219 299.15234 C 804.62899 299.16674 804.73977 299.17835 804.82617 299.18555 C 804.91258 299.18555 804.97633 299.17846 805.01953 299.16406 C 805.06993 299.14246 805.10279 299.09996 805.11719 299.03516 L 805.15039 298.53711 C 804.97038 298.4651 804.76556 298.411 804.53516 298.375 C 804.31194 298.3318 804.08844 298.31055 803.86523 298.31055 z M 832.67773 298.375 C 832.54813 298.375 832.42379 298.40077 832.30859 298.45117 C 832.19339 298.50158 832.09422 298.56985 832.00781 298.65625 C 831.92141 298.74266 831.85313 298.84634 831.80273 298.96875 C 831.75233 299.08395 831.72656 299.20633 831.72656 299.33594 C 831.72656 299.46554 831.75233 299.58792 831.80273 299.70312 C 831.85314 299.81112 831.92141 299.90969 832.00781 299.99609 C 832.09422 300.0825 832.19339 300.15077 832.30859 300.20117 C 832.42379 300.25157 832.54813 300.27539 832.67773 300.27539 C 832.80734 300.27539 832.92972 300.25157 833.04492 300.20117 C 833.16013 300.15077 833.2593 300.0825 833.3457 299.99609 C 833.43211 299.90969 833.50038 299.81112 833.55078 299.70312 C 833.60838 299.58792 833.63867 299.46554 833.63867 299.33594 C 833.63867 299.20633 833.60838 299.08395 833.55078 298.96875 C 833.50038 298.84634 833.43211 298.74266 833.3457 298.65625 C 833.2593 298.56984 833.16013 298.50157 833.04492 298.45117 C 832.92972 298.40077 832.80734 298.375 832.67773 298.375 z M 775.97656 299.27148 C 775.89736 299.27148 775.83617 299.29726 775.79297 299.34766 C 775.74977 299.39806 775.72143 299.45473 775.70703 299.51953 L 775.44727 303.36523 L 773.61133 303.49414 L 773.61133 303.89453 C 773.61133 303.97374 773.6371 304.03493 773.6875 304.07812 C 773.73791 304.12132 773.80166 304.14258 773.88086 304.14258 L 775.42578 304.14258 L 775.42578 311.48633 C 775.42578 312.32877 775.62803 312.95226 776.03125 313.35547 C 776.44166 313.75869 777.00909 313.96094 777.73633 313.96094 C 778.18995 313.96094 778.6273 313.87141 779.04492 313.69141 C 779.46974 313.50419 779.81819 313.25749 780.0918 312.95508 L 779.81055 312.50195 C 779.75294 312.42995 779.69627 312.39453 779.63867 312.39453 C 779.58827 312.39453 779.52 312.43447 779.43359 312.51367 C 779.34719 312.58567 779.23446 312.66811 779.09766 312.76172 C 778.96085 312.84812 778.79853 312.93056 778.61133 313.00977 C 778.42412 313.08177 778.20062 313.11719 777.94141 313.11719 C 777.7326 313.11719 777.53939 313.08628 777.35938 313.02148 C 777.17937 312.95668 777.02157 312.85556 776.88477 312.71875 C 776.75516 312.58195 776.64951 312.40803 776.57031 312.19922 C 776.49831 311.98321 776.46289 311.72881 776.46289 311.43359 L 776.46289 304.14258 L 779.85352 304.14258 L 779.85352 303.37695 L 776.46289 303.37695 L 776.46289 299.27148 L 775.97656 299.27148 z M 813.94727 299.27148 C 813.86806 299.27148 813.80687 299.29726 813.76367 299.34766 C 813.72047 299.39806 813.69213 299.45473 813.67773 299.51953 L 813.41797 303.36523 L 811.58203 303.49414 L 811.58203 303.89453 C 811.58203 303.97374 811.6078 304.03493 811.6582 304.07812 C 811.7086 304.12132 811.77236 304.14258 811.85156 304.14258 L 813.39648 304.14258 L 813.39648 311.48633 C 813.39648 312.32877 813.59873 312.95226 814.00195 313.35547 C 814.41237 313.75869 814.9798 313.96094 815.70703 313.96094 C 816.16065 313.96094 816.59605 313.87141 817.01367 313.69141 C 817.43849 313.50419 817.78889 313.25749 818.0625 312.95508 L 817.78125 312.50195 C 817.72365 312.42995 817.66697 312.39453 817.60938 312.39453 C 817.55897 312.39453 817.48874 312.43447 817.40234 312.51367 C 817.31594 312.58567 817.20517 312.66811 817.06836 312.76172 C 816.93155 312.84812 816.76924 312.93056 816.58203 313.00977 C 816.39482 313.08177 816.17132 313.11719 815.91211 313.11719 C 815.7033 313.11719 815.51008 313.08628 815.33008 313.02148 C 815.15007 312.95668 814.99032 312.85556 814.85352 312.71875 C 814.72391 312.58195 814.62022 312.40803 814.54102 312.19922 C 814.46902 311.98321 814.43359 311.72881 814.43359 311.43359 L 814.43359 304.14258 L 817.82422 304.14258 L 817.82422 303.37695 L 814.43359 303.37695 L 814.43359 299.27148 L 813.94727 299.27148 z M 884.24609 302.85742 C 883.82847 302.85742 883.44718 302.92313 883.10156 303.05273 C 882.76315 303.17514 882.45269 303.35418 882.17188 303.5918 C 881.89826 303.8294 881.65351 304.12118 881.4375 304.4668 C 881.22869 304.80522 881.04061 305.19359 880.875 305.63281 L 880.80078 303.37695 C 880.78638 303.25455 880.75352 303.16759 880.70312 303.11719 C 880.65273 303.06679 880.56577 303.04102 880.44336 303.04102 L 879.89258 303.04102 L 879.89258 313.78711 L 880.92969 313.78711 L 880.92969 306.83203 C 881.08809 306.34961 881.26201 305.92581 881.44922 305.55859 C 881.64363 305.18418 881.86518 304.8692 882.11719 304.61719 C 882.3764 304.36517 882.66561 304.17904 882.98242 304.05664 C 883.30644 303.92703 883.67613 303.86133 884.09375 303.86133 C 884.38176 303.86133 884.61235 303.8871 884.78516 303.9375 C 884.96516 303.9879 885.09914 304.01367 885.18555 304.01367 C 885.28635 304.01367 885.35463 303.95505 885.39062 303.83984 L 885.47656 303.12695 C 885.31096 303.02615 885.1203 302.95787 884.9043 302.92188 C 884.68828 302.87868 884.4693 302.85742 884.24609 302.85742 z M 755.13281 302.86914 C 754.36238 302.86914 753.67257 303.00117 753.06055 303.26758 C 752.45572 303.52679 751.94044 303.89844 751.51562 304.38086 C 751.09801 304.86328 750.7779 305.44683 750.55469 306.13086 C 750.33868 306.80769 750.23047 307.56576 750.23047 308.4082 C 750.23047 309.25064 750.33868 310.01067 750.55469 310.6875 C 750.7779 311.36433 751.09801 311.94531 751.51562 312.42773 C 751.94044 312.91015 752.45572 313.27985 753.06055 313.53906 C 753.67257 313.79828 754.36238 313.92773 755.13281 313.92773 C 755.90325 313.92773 756.59244 313.79828 757.19727 313.53906 C 757.80929 313.27985 758.32261 312.91015 758.74023 312.42773 C 759.15785 311.94531 759.4754 311.36433 759.69141 310.6875 C 759.91462 310.01067 760.02539 309.25064 760.02539 308.4082 C 760.02539 307.56576 759.91462 306.80769 759.69141 306.13086 C 759.4754 305.44683 759.15785 304.86328 758.74023 304.38086 C 758.32261 303.89844 757.80929 303.52679 757.19727 303.26758 C 756.59244 303.00117 755.90325 302.86914 755.13281 302.86914 z M 792.30273 302.86914 C 791.5323 302.86914 790.84054 303.00117 790.22852 303.26758 C 789.62369 303.52679 789.10841 303.89844 788.68359 304.38086 C 788.26598 304.86328 787.94587 305.44683 787.72266 306.13086 C 787.50665 306.80769 787.39844 307.56576 787.39844 308.4082 C 787.39844 309.25064 787.50665 310.01067 787.72266 310.6875 C 787.94587 311.36433 788.26598 311.94531 788.68359 312.42773 C 789.10841 312.91015 789.62369 313.27985 790.22852 313.53906 C 790.84054 313.79828 791.5323 313.92773 792.30273 313.92773 C 793.07317 313.92773 793.76041 313.79828 794.36523 313.53906 C 794.97726 313.27985 795.49254 312.91015 795.91016 312.42773 C 796.32778 311.94531 796.64337 311.36433 796.85938 310.6875 C 797.08258 310.01067 797.19531 309.25064 797.19531 308.4082 C 797.19531 307.56576 797.08258 306.80769 796.85938 306.13086 C 796.64337 305.44683 796.32778 304.86328 795.91016 304.38086 C 795.49254 303.89844 794.97726 303.52679 794.36523 303.26758 C 793.76041 303.00117 793.07317 302.86914 792.30273 302.86914 z M 839.85156 302.86914 C 839.30434 302.86914 838.81031 302.94706 838.37109 303.10547 C 837.93187 303.26388 837.55766 303.47773 837.24805 303.74414 C 836.94563 304.01055 836.71248 304.31906 836.54688 304.67188 C 836.38127 305.02469 836.29883 305.39182 836.29883 305.77344 C 836.29883 306.21986 836.38383 306.59407 836.55664 306.89648 C 836.72945 307.1917 836.95747 307.44354 837.23828 307.65234 C 837.51909 307.86116 837.83469 308.03507 838.1875 308.17188 C 838.54751 308.30868 838.91464 308.43363 839.28906 308.54883 C 839.66348 308.66403 840.02805 308.77932 840.38086 308.89453 C 840.74088 309.00974 841.06098 309.1508 841.3418 309.31641 C 841.6226 309.48201 841.85062 309.68427 842.02344 309.92188 C 842.19624 310.15949 842.28125 310.45835 842.28125 310.81836 C 842.28125 311.14237 842.22006 311.45088 842.09766 311.74609 C 841.98245 312.03411 841.81048 312.28595 841.58008 312.50195 C 841.34966 312.71797 841.06046 312.89188 840.71484 313.02148 C 840.36923 313.14389 839.9712 313.20508 839.51758 313.20508 C 839.03515 313.20508 838.62809 313.14646 838.29688 313.03125 C 837.97286 312.91604 837.69782 312.79367 837.47461 312.66406 C 837.2514 312.52726 837.07235 312.40231 836.93555 312.28711 C 836.80595 312.1719 836.69517 312.11328 836.60156 312.11328 C 836.52236 312.11328 836.45665 312.12745 836.40625 312.15625 C 836.36305 312.18506 836.32311 312.22951 836.28711 312.28711 L 836.05078 312.6543 C 836.48279 313.04312 836.9723 313.35871 837.51953 313.60352 C 838.06676 313.84113 838.71663 313.96094 839.47266 313.96094 C 840.07748 313.96094 840.61401 313.87398 841.08203 313.70117 C 841.55006 313.52837 841.94295 313.29521 842.25977 313 C 842.58378 312.70479 842.82853 312.35439 842.99414 311.95117 C 843.15975 311.54795 843.24219 311.11255 843.24219 310.64453 C 843.24219 310.21252 843.15718 309.84538 842.98438 309.54297 C 842.81157 309.24056 842.58355 308.9842 842.30273 308.77539 C 842.02912 308.56658 841.71353 308.39462 841.35352 308.25781 C 840.9935 308.11381 840.62637 307.98435 840.25195 307.86914 C 839.88473 307.75394 839.52017 307.63864 839.16016 307.52344 C 838.80014 307.40823 838.48003 307.27169 838.19922 307.11328 C 837.92561 306.95487 837.7021 306.76422 837.5293 306.54102 C 837.35649 306.3178 837.26953 306.03568 837.26953 305.69727 C 837.26953 305.42365 837.33072 305.16474 837.45312 304.91992 C 837.57552 304.66792 837.74944 304.44893 837.97266 304.26172 C 838.20306 304.07451 838.47616 303.92636 838.79297 303.81836 C 839.11699 303.70315 839.47447 303.64648 839.86328 303.64648 C 840.2953 303.64648 840.66243 303.6935 840.96484 303.78711 C 841.26726 303.87351 841.5191 303.97464 841.7207 304.08984 C 841.92952 304.19785 842.0944 304.29703 842.2168 304.39062 C 842.3392 304.47703 842.44032 304.52148 842.51953 304.52148 C 842.62754 304.52148 842.70998 304.46995 842.76758 304.36914 L 842.98438 304.01367 C 842.56676 303.62485 842.10106 303.33564 841.58984 303.14844 C 841.08582 302.96123 840.50679 302.86914 839.85156 302.86914 z M 872.08203 302.86914 C 871.3116 302.86914 870.61984 303.00117 870.00781 303.26758 C 869.40299 303.52679 868.88966 303.89844 868.46484 304.38086 C 868.04722 304.86328 867.72516 305.44683 867.50195 306.13086 C 867.28594 306.80769 867.17969 307.56576 867.17969 308.4082 C 867.17969 309.25064 867.28594 310.01067 867.50195 310.6875 C 867.72516 311.36433 868.04722 311.94531 868.46484 312.42773 C 868.88966 312.91015 869.40299 313.27985 870.00781 313.53906 C 870.61984 313.79828 871.3116 313.92773 872.08203 313.92773 C 872.85246 313.92773 873.5397 313.79828 874.14453 313.53906 C 874.75656 313.27985 875.27183 312.91015 875.68945 312.42773 C 876.10707 311.94531 876.42461 311.36433 876.64062 310.6875 C 876.86383 310.01067 876.97461 309.25064 876.97461 308.4082 C 876.97461 307.56576 876.86383 306.80769 876.64062 306.13086 C 876.42461 305.44683 876.10707 304.86328 875.68945 304.38086 C 875.27183 303.89844 874.75656 303.52679 874.14453 303.26758 C 873.5397 303.00117 872.85246 302.86914 872.08203 302.86914 z M 857.75391 302.98633 C 857.6027 302.98633 857.50157 303.0662 857.45117 303.22461 L 854.57812 311.7793 C 854.52052 311.9449 854.47093 312.10722 854.42773 312.26562 L 854.29883 312.71875 C 854.27723 312.56754 854.24694 312.41683 854.21094 312.26562 C 854.17494 312.10722 854.135 311.9449 854.0918 311.7793 L 851.38086 303.30078 C 851.35926 303.23598 851.31675 303.17735 851.25195 303.12695 C 851.18715 303.06935 851.10471 303.04102 851.00391 303.04102 L 850.22656 303.04102 L 853.8125 313.78711 L 854.54688 313.78711 C 854.67648 313.78711 854.76149 313.71175 854.80469 313.56055 L 857.78711 304.83398 C 857.85912 304.61798 857.91322 304.40156 857.94922 304.18555 C 857.97082 304.29355 857.99464 304.40176 858.02344 304.50977 C 858.05224 304.61777 858.08509 304.72598 858.12109 304.83398 L 861.05859 313.56055 C 861.1018 313.71175 861.18424 313.78711 861.30664 313.78711 L 862.07422 313.78711 L 865.66016 303.04102 L 864.91406 303.04102 C 864.82766 303.04102 864.7523 303.06679 864.6875 303.11719 C 864.62269 303.16039 864.57567 303.22158 864.54688 303.30078 L 861.81445 311.7793 C 861.76405 311.9449 861.72155 312.1027 861.68555 312.25391 L 861.59961 312.70703 C 861.5636 312.55582 861.52367 312.40511 861.48047 312.25391 C 861.43726 312.1027 861.39024 311.9449 861.33984 311.7793 L 858.48828 303.22461 C 858.43788 303.0662 858.33419 302.98633 858.17578 302.98633 L 857.75391 302.98633 z M 762.82617 303.04102 L 762.82617 309.91016 C 762.82617 310.53658 762.90153 311.09888 763.05273 311.5957 C 763.20394 312.09252 763.42744 312.51633 763.72266 312.86914 C 764.01787 313.22195 764.38756 313.49247 764.83398 313.67969 C 765.2804 313.86689 765.80276 313.96094 766.40039 313.96094 C 767.19962 313.96094 767.92229 313.77286 768.57031 313.39844 C 769.22555 313.02402 769.80201 312.52743 770.29883 311.9082 L 770.39648 313.50781 C 770.42529 313.69502 770.52898 313.78711 770.70898 313.78711 L 771.28125 313.78711 L 771.28125 303.04102 L 770.24609 303.04102 L 770.24609 311.11914 C 769.77087 311.75277 769.22726 312.25131 768.61523 312.61133 C 768.01041 312.96414 767.35859 313.14062 766.66016 313.14062 C 765.71692 313.14062 765.01355 312.85593 764.55273 312.28711 C 764.09191 311.71108 763.86133 310.9182 763.86133 309.91016 L 763.86133 303.04102 L 762.82617 303.04102 z M 832.16992 303.04102 L 832.16992 313.78711 L 833.19531 313.78711 L 833.19531 303.04102 L 832.16992 303.04102 z M 896.55273 303.66797 C 897.19356 303.66797 897.76099 303.79291 898.25781 304.04492 C 898.76184 304.29693 899.22045 304.73234 899.63086 305.35156 L 899.63086 311.00195 C 899.18444 311.66438 898.66916 312.1777 898.08594 312.54492 C 897.50271 312.91214 896.85798 313.0957 896.15234 313.0957 C 895.0435 313.0957 894.19394 312.72149 893.60352 311.97266 C 893.02029 311.21662 892.72852 310.03987 892.72852 308.44141 C 892.72852 307.73577 892.80839 307.09104 892.9668 306.50781 C 893.1324 305.91739 893.37264 305.41371 893.68945 304.99609 C 894.01347 304.57127 894.41345 304.24408 894.88867 304.01367 C 895.36389 303.78326 895.91911 303.66797 896.55273 303.66797 z M 755.13281 303.67773 C 755.77365 303.67773 756.33142 303.79046 756.80664 304.01367 C 757.28906 304.23688 757.68905 304.55699 758.00586 304.97461 C 758.32987 305.38502 758.57206 305.88162 758.73047 306.46484 C 758.88888 307.04807 758.9668 307.69537 758.9668 308.4082 C 758.9668 309.12823 758.88888 309.78005 758.73047 310.36328 C 758.57206 310.93931 758.32987 311.43333 758.00586 311.84375 C 757.68905 312.25416 757.28906 312.57171 756.80664 312.79492 C 756.33142 313.01093 755.77365 313.11719 755.13281 313.11719 C 754.49199 313.11719 753.93164 313.01093 753.44922 312.79492 C 752.974 312.57171 752.57401 312.25416 752.25 311.84375 C 751.93319 311.43333 751.691 310.93931 751.52539 310.36328 C 751.36698 309.78005 751.28906 309.12823 751.28906 308.4082 C 751.28906 307.69537 751.36698 307.04807 751.52539 306.46484 C 751.691 305.88162 751.93319 305.38502 752.25 304.97461 C 752.57401 304.55699 752.974 304.23688 753.44922 304.01367 C 753.93164 303.79046 754.49199 303.67773 755.13281 303.67773 z M 792.30273 303.67773 C 792.94356 303.67773 793.50134 303.79046 793.97656 304.01367 C 794.45899 304.23688 794.85897 304.55699 795.17578 304.97461 C 795.49979 305.38502 795.74003 305.88162 795.89844 306.46484 C 796.05684 307.04807 796.13672 307.69537 796.13672 308.4082 C 796.13672 309.12823 796.05684 309.78005 795.89844 310.36328 C 795.74003 310.93931 795.49979 311.43333 795.17578 311.84375 C 794.85897 312.25416 794.45899 312.57171 793.97656 312.79492 C 793.50134 313.01093 792.94356 313.11719 792.30273 313.11719 C 791.66191 313.11719 791.09961 313.01093 790.61719 312.79492 C 790.14197 312.57171 789.74198 312.25416 789.41797 311.84375 C 789.10116 311.43333 788.86093 310.93931 788.69531 310.36328 C 788.53691 309.78005 788.45703 309.12823 788.45703 308.4082 C 788.45703 307.69537 788.53691 307.04807 788.69531 306.46484 C 788.86093 305.88162 789.10116 305.38502 789.41797 304.97461 C 789.74198 304.55699 790.14197 304.23688 790.61719 304.01367 C 791.09961 303.79046 791.66191 303.67773 792.30273 303.67773 z M 872.08203 303.67773 C 872.72286 303.67773 873.28064 303.79046 873.75586 304.01367 C 874.23828 304.23688 874.63826 304.55699 874.95508 304.97461 C 875.27909 305.38502 875.52128 305.88162 875.67969 306.46484 C 875.8381 307.04807 875.91602 307.69537 875.91602 308.4082 C 875.91602 309.12823 875.8381 309.78005 875.67969 310.36328 C 875.52128 310.93931 875.27909 311.43333 874.95508 311.84375 C 874.63826 312.25416 874.23828 312.57171 873.75586 312.79492 C 873.28064 313.01093 872.72286 313.11719 872.08203 313.11719 C 871.4412 313.11719 870.87891 313.01093 870.39648 312.79492 C 869.92126 312.57171 869.52323 312.25416 869.19922 311.84375 C 868.88241 311.43333 868.64022 310.93931 868.47461 310.36328 C 868.3162 309.78005 868.23828 309.12823 868.23828 308.4082 C 868.23828 307.69537 868.3162 307.04807 868.47461 306.46484 C 868.64022 305.88162 868.88241 305.38502 869.19922 304.97461 C 869.52323 304.55699 869.92126 304.23688 870.39648 304.01367 C 870.87891 303.79046 871.4412 303.67773 872.08203 303.67773 z "
         transform="translate(-571.42865,602.83851)"
         id="path4829" />
      <g
         style="display:inline;fill:#ffffff"
         id="g7470-1-2"
         transform="matrix(0.46919081,0,0,0.46919081,87.414404,447.88043)">
        <g
           id="g4822">
          <path
             inkscape:connector-curvature="0"
             id="path4194-8-2"
             transform="translate(-197.67863,495.82222)"
             d="m 387.59375,169.42383 -80.46289,46.65234 0.17187,93.00977 12.47461,7.17187 c -23.49199,30.81926 -50.19452,50.89969 -79.87304,64.75781 -35.33706,16.50038 -72.89324,21.85931 -104.8418,23.6504 24.00547,5.1289 69.80646,2.60093 109.09961,-9.06836 39.2508,-11.65679 80.2838,-34.06558 115.66016,-77.0918 l 0.01,20.58984 -0.71094,-0.21875 28.81446,16.56446 80.46289,-46.65235 -0.17188,-93.00781 -80.63281,-46.35742 z"
             style="color:#000000;clip-rule:nonzero;display:inline;overflow:visible;visibility:visible;opacity:1;isolation:auto;mix-blend-mode:normal;color-interpolation:sRGB;color-interpolation-filters:linearRGB;solid-color:#000000;solid-opacity:1;fill:#ffffff;fill-opacity:1;fill-rule:nonzero;stroke:none;stroke-width:1;stroke-linecap:butt;stroke-linejoin:miter;stroke-miterlimit:4;stroke-dasharray:none;stroke-dashoffset:0;stroke-opacity:1;color-rendering:auto;image-rendering:auto;shape-rendering:auto;text-rendering:auto;enable-background:accumulate" />
          <path
             d="m -126.81218,828.3963 0,-140.625 117.2790532,0 q 13.1835937,0 21.2402348,2.19727 8.05664,2.10571 12.359619,6.31714 4.394531,4.11987 5.859375,10.34545 1.464843,6.22559 1.464843,14.28223 0,5.85938 -1.00708,10.34546 -1.00708,4.48608 -2.655029,7.78198 -1.647949,3.2959 -3.753662,5.58472 -2.105713,2.19726 -4.302979,3.66211 -5.126953,3.479 -11.7187496,3.93677 8.2397466,0.45776 14.6484376,4.02832 2.746582,1.55639 5.310059,3.93676 2.655029,2.28882 4.669189,5.76783 2.105713,3.38745 3.387451,8.05664 1.281738,4.57763 1.281738,10.62011 0,7.32422 -0.732421,13.45826 -0.64087,6.04248 -2.746582,10.89477 -2.105713,4.8523 -6.042481,8.51441 -3.936768,3.66211 -10.528564,6.13403 -6.500245,2.38037 -16.0217289,3.57056 -9.4299316,1.19018 -22.6135251,1.19018 l -105.377198,0 z m 99.517823,-14.64844 q 10.253906,0 17.7612302,-0.27465 7.5073242,-0.36622 12.72583,-1.3733 5.2185059,-1.09863 8.4228518,-3.02124 3.204346,-2.01416 4.943847,-5.2185 1.831055,-3.2959 2.471924,-7.96509 0.640869,-4.66919 0.640869,-11.26099 0,-5.12695 -0.640869,-8.88061 -0.640869,-3.84522 -2.471924,-6.40869 -1.739501,-2.65503 -4.943847,-4.21143 -3.2043459,-1.64795 -8.4228518,-2.56347 -5.2185058,-0.91553 -12.72583,-1.19019 -7.5073242,-0.36621 -17.7612302,-0.36621 l -81.939693,0 0,52.73437 81.939693,0 z m 0,-67.38281 q 8.972168,0 15.472412,-0.36621 6.500244,-0.36621 11.07788067,-1.37329 4.57763673,-1.00708 7.41577153,-2.74658 2.8381347,-1.83106 4.3945308,-4.66919 1.64795,-2.83814 2.197266,-6.7749 0.549316,-4.02832 0.549316,-9.52149 0,-5.85937 -1.281738,-9.52148 -1.281738,-3.66211 -4.5776366,-5.58472 -3.2958984,-2.01416 -8.9721679,-2.65503 -5.5847168,-0.73242 -14.3737795,-0.73242 l -93.841548,0 0,43.94531 81.939693,0 z"
             style="font-style:normal;font-variant:normal;font-weight:normal;font-stretch:normal;font-size:187.5px;line-height:125%;font-family:Michroma;-inkscape-font-specification:Michroma;text-align:center;letter-spacing:0px;word-spacing:0px;text-anchor:middle;fill:#ffffff;fill-opacity:1;stroke:none;stroke-width:1px;stroke-linecap:butt;stroke-linejoin:miter;stroke-opacity:1"
             id="path4809"
             inkscape:connector-curvature="0" />
          <path
             d="m 432.71152,754.23859 82.67212,74.15771 -24.90235,0 -70.03784,-62.80517 -67.65747,62.80517 -24.90234,0 79.92553,-74.15771 -74.06616,-66.46729 24.90235,0 61.34033,55.11475 59.41772,-55.11475 24.90235,0 -71.59424,66.46729 z"
             style="font-style:normal;font-variant:normal;font-weight:normal;font-stretch:normal;font-size:187.5px;line-height:125%;font-family:Michroma;-inkscape-font-specification:Michroma;text-align:center;letter-spacing:0px;word-spacing:0px;text-anchor:middle;fill:#ffffff;fill-opacity:1;stroke:none;stroke-width:1px;stroke-linecap:butt;stroke-linejoin:miter;stroke-opacity:1"
             id="path4812"
             inkscape:connector-curvature="0" />
          <path
             id="path4798"
             transform="matrix(2.1313292,0,0,2.1313292,-1404.2113,330.26666)"
             d="M 663.48242 111.27344 C 661.33196 111.27344 659.46341 111.35288 657.875 111.51172 C 656.28659 111.67056 654.92343 111.90888 653.78711 112.22656 C 652.66301 112.53202 651.74042 112.91656 651.01953 113.38086 C 650.29864 113.84516 649.73184 114.3759 649.31641 114.97461 C 648.90098 115.5611 648.61392 116.22197 648.45508 116.95508 C 648.30846 117.68819 648.23438 118.48259 648.23438 119.33789 C 648.23438 120.15653 648.28311 120.92023 648.38086 121.62891 C 648.47861 122.32536 648.68622 122.96089 649.00391 123.53516 C 649.33381 124.10943 649.81045 124.62213 650.43359 125.07422 C 651.05674 125.51409 651.88721 125.88594 652.92578 126.19141 C 653.96435 126.48465 655.24808 126.71225 656.77539 126.87109 C 658.31492 127.02994 660.16009 127.10938 662.31055 127.10938 L 667.14844 127.10938 C 669.1034 127.10938 670.6849 127.19418 671.89453 127.36523 C 673.10416 127.52407 674.03942 127.79846 674.69922 128.18945 C 675.37124 128.58045 675.81718 129.10582 676.03711 129.76562 C 676.26926 130.42542 676.38672 131.25053 676.38672 132.24023 C 676.38672 133.22993 676.22052 134.07308 675.89062 134.76953 C 675.56073 135.45377 674.99197 136.00985 674.18555 136.4375 C 673.37913 136.86515 672.29961 137.1756 670.94336 137.37109 C 669.5871 137.56659 667.88083 137.66602 665.82812 137.66602 L 661.13672 137.66602 C 659.37725 137.66602 657.89859 137.628 656.70117 137.55469 C 655.51598 137.46916 654.55733 137.27421 653.82422 136.96875 C 653.09111 136.65107 652.56573 136.17979 652.24805 135.55664 C 651.93037 134.9335 651.77148 134.07232 651.77148 132.97266 L 648.25195 132.97266 C 648.25195 133.85239 648.32603 134.65947 648.47266 135.39258 C 648.61928 136.11347 648.87563 136.76167 649.24219 137.33594 C 649.62096 137.89799 650.12295 138.39267 650.74609 138.82031 C 651.36924 139.23574 652.15633 139.58421 653.10938 139.86523 C 654.06242 140.13404 655.19798 140.33435 656.51758 140.46875 C 657.83718 140.60315 659.37725 140.67188 661.13672 140.67188 L 665.82812 140.67188 C 667.78309 140.67188 669.48936 140.57976 670.94336 140.39648 C 672.40958 140.22542 673.66065 139.96907 674.69922 139.62695 C 675.73779 139.28483 676.59361 138.8696 677.26562 138.38086 C 677.93764 137.89212 678.46838 137.33603 678.85938 136.71289 C 679.25037 136.08975 679.51939 135.40548 679.66602 134.66016 C 679.82486 133.90261 679.9043 133.09553 679.9043 132.24023 C 679.9043 131.38494 679.85556 130.59053 679.75781 129.85742 C 679.67228 129.12431 679.47734 128.46539 679.17188 127.87891 C 678.86641 127.2802 678.43315 126.74751 677.87109 126.2832 C 677.30904 125.8189 676.5507 125.43437 675.59766 125.12891 C 674.65683 124.81122 673.49593 124.5729 672.11523 124.41406 C 670.73454 124.25522 669.07896 124.17578 667.14844 124.17578 L 662.31055 124.17578 C 660.74658 124.17578 659.39609 124.14508 658.25977 124.08398 C 657.13566 124.01067 656.18238 123.89517 655.40039 123.73633 C 654.61841 123.57749 653.99019 123.37523 653.51367 123.13086 C 653.03715 122.88649 652.66334 122.58676 652.39453 122.23242 C 652.13794 121.86587 651.96639 121.44527 651.88086 120.96875 C 651.79533 120.49223 651.75391 119.94881 651.75391 119.33789 C 651.75391 118.34819 651.92351 117.52308 652.26562 116.86328 C 652.60774 116.20348 653.21988 115.6781 654.09961 115.28711 C 654.97934 114.89612 656.17631 114.62173 657.69141 114.46289 C 659.2065 114.29183 661.13647 114.20508 663.48242 114.20508 L 667.00195 114.20508 C 668.76142 114.20508 670.24009 114.24846 671.4375 114.33398 C 672.63491 114.4073 673.60087 114.60224 674.33398 114.91992 C 675.06709 115.22539 675.59247 115.68936 675.91016 116.3125 C 676.22784 116.93564 676.38672 117.79877 676.38672 118.89844 L 679.9043 118.89844 C 679.9043 118.0187 679.83217 117.21699 679.68555 116.49609 C 679.53892 115.7752 679.27526 115.13432 678.89648 114.57227 C 678.52993 113.99799 678.02989 113.50868 677.39453 113.10547 C 676.77139 112.69004 675.98234 112.34888 675.0293 112.08008 C 674.07625 111.79905 672.94069 111.5968 671.62109 111.47461 C 670.30149 111.34021 668.76142 111.27344 667.00195 111.27344 L 663.48242 111.27344 z M 787.80078 111.27344 C 785.65032 111.27344 783.83586 111.40698 782.35742 111.67578 C 780.8912 111.93237 779.68156 112.32957 778.72852 112.86719 C 777.77547 113.39258 777.03516 114.05881 776.50977 114.86523 C 775.99659 115.67165 775.61937 116.61958 775.375 117.70703 C 775.14285 118.79448 775.00736 120.02215 774.9707 121.39062 C 774.93405 122.7591 774.91602 124.27383 774.91602 125.93555 C 774.91602 127.59726 774.93405 129.112 774.9707 130.48047 C 775.00736 131.84894 775.14285 133.07662 775.375 134.16406 C 775.61937 135.25151 775.99659 136.19944 776.50977 137.00586 C 777.03516 137.81228 777.77547 138.48387 778.72852 139.02148 C 779.68156 139.54688 780.8912 139.93872 782.35742 140.19531 C 783.83586 140.46412 785.65032 140.59766 787.80078 140.59766 L 796.0293 140.59766 C 797.78876 140.59766 799.32884 140.51286 800.64844 140.3418 C 801.96804 140.18296 803.1036 139.93196 804.05664 139.58984 C 805.00969 139.23551 805.79873 138.78957 806.42188 138.25195 C 807.04502 137.71434 807.53969 137.07881 807.90625 136.3457 C 808.28502 135.60037 808.54674 134.75723 808.69336 133.81641 C 808.83998 132.86336 808.91406 131.79993 808.91406 130.62695 L 805.39453 130.62695 C 805.39453 131.60443 805.35311 132.46025 805.26758 133.19336 C 805.18205 133.91425 805.01585 134.5371 804.77148 135.0625 C 804.53933 135.57568 804.2089 136.00358 803.78125 136.3457 C 803.3536 136.68782 802.79216 136.95685 802.0957 137.15234 C 801.39925 137.34784 800.5561 137.48138 799.56641 137.55469 C 798.57671 137.628 797.39777 137.66602 796.0293 137.66602 L 787.80078 137.66602 C 786.23681 137.66602 784.91703 137.62264 783.8418 137.53711 C 782.77879 137.43936 781.89958 137.24978 781.20312 136.96875 C 780.50667 136.68772 779.96862 136.28516 779.58984 135.75977 C 779.22329 135.23437 778.95426 134.53744 778.7832 133.66992 C 778.61214 132.80241 778.50736 131.73897 778.4707 130.48047 C 778.44627 129.20974 778.43555 127.69501 778.43555 125.93555 C 778.43555 124.17608 778.44627 122.66671 778.4707 121.4082 C 778.49514 120.13748 778.59457 119.06869 778.76562 118.20117 C 778.93669 117.33366 779.21107 116.63672 779.58984 116.11133 C 779.96862 115.58593 780.50667 115.18337 781.20312 114.90234 C 781.89958 114.62132 782.77879 114.43709 783.8418 114.35156 C 784.91703 114.25381 786.23681 114.20508 787.80078 114.20508 L 796.0293 114.20508 C 797.78876 114.20508 799.26207 114.26649 800.44727 114.38867 C 801.64468 114.51086 802.60869 114.79256 803.3418 115.23242 C 804.07491 115.67229 804.60029 116.32049 804.91797 117.17578 C 805.23565 118.03108 805.39453 119.19003 805.39453 120.65625 L 808.91406 120.65625 C 808.91406 119.58102 808.83998 118.60434 808.69336 117.72461 C 808.54674 116.84488 808.28502 116.05779 807.90625 115.36133 C 807.53969 114.66487 807.04502 114.06005 806.42188 113.54688 C 805.79873 113.0337 805.00969 112.61115 804.05664 112.28125 C 803.1036 111.93913 801.96804 111.68814 800.64844 111.5293 C 799.32884 111.35824 797.78876 111.27344 796.0293 111.27344 L 787.80078 111.27344 z M 690.46094 111.85938 L 690.46094 140.01172 L 693.98047 140.01172 L 693.98047 128.86719 L 709.21094 128.86719 C 711.3614 128.86719 713.1705 128.78239 714.63672 128.61133 C 716.11516 128.44027 717.33016 128.18928 718.2832 127.85938 C 719.24847 127.52947 719.98682 127.12155 720.5 126.63281 C 721.02539 126.13185 721.40457 125.55578 721.63672 124.9082 C 721.88109 124.2484 722.02194 123.5154 722.05859 122.70898 C 722.10747 121.90256 722.13281 121.02335 722.13281 120.07031 C 722.13281 119.15392 722.11283 118.3181 722.07617 117.56055 C 722.05174 116.803 721.94159 116.11874 721.74609 115.50781 C 721.5506 114.89689 721.24015 114.36419 720.8125 113.91211 C 720.39707 113.46002 719.79761 113.08085 719.01562 112.77539 C 718.23364 112.46993 717.23893 112.24428 716.0293 112.09766 C 714.83188 111.93882 713.35858 111.85938 711.61133 111.85938 L 690.46094 111.85938 z M 745.5918 111.85938 L 729.16992 140.01172 L 733.27539 140.01172 L 736.79492 133.56055 L 759.08008 133.56055 L 762.59961 140.01172 L 766.70508 140.01172 L 750.2832 111.85938 L 745.5918 111.85938 z M 819.48828 111.85938 L 819.48828 140.01172 L 847.64062 140.01172 L 847.64062 137.07812 L 823.00781 137.07812 L 823.00781 127.10938 L 846.4668 127.10938 L 846.4668 124.17578 L 823.00781 124.17578 L 823.00781 114.79297 L 847.64062 114.79297 L 847.64062 111.85938 L 819.48828 111.85938 z M 747.9375 114.20508 L 757.32031 130.62695 L 738.55273 130.62695 L 747.9375 114.20508 z M 693.98047 114.79297 L 709.21094 114.79297 C 710.77491 114.79297 712.08738 114.811 713.15039 114.84766 C 714.22562 114.88431 715.11214 114.96911 715.80859 115.10352 C 716.50505 115.2257 717.0431 115.40261 717.42188 115.63477 C 717.80065 115.86692 718.07503 116.17932 718.24609 116.57031 C 718.42938 116.9613 718.53416 117.44331 718.55859 118.01758 C 718.59525 118.59185 718.61328 119.27611 718.61328 120.07031 C 718.61328 120.92561 718.59525 121.66592 718.55859 122.28906 C 718.53416 122.89999 718.42937 123.42537 718.24609 123.86523 C 718.07503 124.3051 717.80065 124.65893 717.42188 124.92773 C 717.0431 125.19654 716.50505 125.40416 715.80859 125.55078 C 715.11214 125.6974 714.22562 125.80023 713.15039 125.86133 C 712.08738 125.9102 710.77491 125.93555 709.21094 125.93555 L 693.98047 125.93555 L 693.98047 114.79297 z "
             style="font-style:normal;font-variant:normal;font-weight:normal;font-stretch:normal;font-size:medium;line-height:125%;font-family:Michroma;-inkscape-font-specification:Michroma;text-align:center;letter-spacing:10px;word-spacing:0px;text-anchor:middle;fill:#ffffff;fill-opacity:1;stroke:none;stroke-width:1px;stroke-linecap:butt;stroke-linejoin:miter;stroke-opacity:1" />
        </g>
      </g>
    </g>
  </g>
</svg>
