<!-- Created with Inkscape (http://www.inkscape.org/) -->
<svg xmlns:rdf="http://www.w3.org/1999/02/22-rdf-syntax-ns#" xmlns="http://www.w3.org/2000/svg" height="135.13mm" width="221.24mm" version="1.1" xmlns:cc="http://creativecommons.org/ns#" xmlns:dc="http://purl.org/dc/elements/1.1/" viewBox="0 0 783.92869 478.79434">
 <g transform="translate(197.68 -495.82)">
  <g fill="#fff">
   <path style="color-rendering:auto;color:#000000;isolation:auto;mix-blend-mode:normal;shape-rendering:auto;solid-color:#000000;image-rendering:auto" d="m189.92 665.25-80.463 46.652 0.17187 93.01 12.475 7.1719c-23.492 30.819-50.195 50.9-79.873 64.758-35.337 16.5-72.893 21.859-104.84 23.65 24.005 5.1289 69.806 2.6009 109.1-9.0684 39.251-11.657 80.284-34.066 115.66-77.092l0.01 20.59-0.71094-0.21875 28.814 16.564 80.463-46.652-0.17188-93.008-80.633-46.357z"/>
   <path d="m-126.81 828.4v-140.62h117.28q13.184 0 21.24 2.1973 8.0566 2.1057 12.36 6.3171 4.3945 4.1199 5.8594 10.345 1.4648 6.2256 1.4648 14.282 0 5.8594-1.0071 10.345-1.0071 4.4861-2.655 7.782t-3.7537 5.5847q-2.1057 2.1973-4.303 3.6621-5.127 3.479-11.719 3.9368 8.2397 0.45776 14.648 4.0283 2.7466 1.5564 5.3101 3.9368 2.655 2.2888 4.6692 5.7678 2.1057 3.3874 3.3875 8.0566 1.2817 4.5776 1.2817 10.62 0 7.3242-0.73242 13.458-0.64087 6.0425-2.7466 10.895-2.1057 4.8523-6.0425 8.5144t-10.529 6.134q-6.5002 2.3804-16.022 3.5706-9.4299 1.1902-22.614 1.1902h-105.38zm99.518-14.648q10.254 0 17.761-0.27465 7.5073-0.36622 12.726-1.3733 5.2185-1.0986 8.4229-3.0212 3.2043-2.0142 4.9438-5.2185 1.8311-3.2959 2.4719-7.9651 0.64087-4.6692 0.64087-11.261 0-5.127-0.64087-8.8806-0.64087-3.8452-2.4719-6.4087-1.7395-2.655-4.9438-4.2114-3.2043-1.648-8.4229-2.5635-5.2185-0.91553-12.726-1.1902-7.5073-0.36621-17.761-0.36621h-81.94v52.734h81.94zm0-67.383q8.9722 0 15.472-0.36621 6.5002-0.36621 11.078-1.3733 4.5776-1.0071 7.4158-2.7466 2.8381-1.8311 4.3945-4.6692 1.648-2.8381 2.1973-6.7749 0.54932-4.0283 0.54932-9.5215 0-5.8594-1.2817-9.5215t-4.5776-5.5847q-3.2959-2.0142-8.9722-2.655-5.5847-0.73242-14.374-0.73242h-93.842v43.945h81.94z"/>
   <path d="m432.71 754.24 82.672 74.158h-24.902l-70.038-62.805-67.657 62.805h-24.902l79.926-74.158-74.066-66.467h24.902l61.34 55.115 59.418-55.115h24.902l-71.594 66.467z"/>
   <path d="m207.57 71.604c-4.58 0-8.57 0.169-11.95 0.507-3.39 0.339-6.29 0.847-8.72 1.524-2.39 0.651-4.36 1.471-5.89 2.461-1.54 0.989-2.75 2.122-3.64 3.398-0.88 1.25-1.49 2.656-1.83 4.219-0.32 1.562-0.47 3.255-0.47 5.078 0 1.745 0.1 3.372 0.31 4.883 0.21 1.484 0.65 2.838 1.33 4.062 0.7 1.224 1.72 2.314 3.05 3.284 1.32 0.94 3.09 1.73 5.31 2.38 2.21 0.63 4.95 1.11 8.2 1.45 3.28 0.33 7.22 0.5 11.8 0.5h10.31c4.17 0 7.54 0.19 10.12 0.55 2.58 0.34 4.57 0.92 5.97 1.76 1.44 0.83 2.39 1.95 2.86 3.36 0.49 1.4 0.74 3.16 0.74 5.27s-0.35 3.91-1.06 5.39c-0.7 1.46-1.91 2.64-3.63 3.56-1.72 0.91-4.02 1.57-6.91 1.99s-6.53 0.62-10.9 0.62h-10c-3.75 0-6.9-0.07-9.45-0.23-2.53-0.18-4.58-0.6-6.14-1.25-1.56-0.68-2.68-1.68-3.36-3.01-0.67-1.33-1.01-3.16-1.01-5.51h-7.5c0 1.88 0.15 3.6 0.47 5.16 0.31 1.54 0.86 2.92 1.64 4.14 0.8 1.2 1.87 2.25 3.2 3.16 1.33 0.89 3.01 1.63 5.04 2.23 2.03 0.57 4.45 1 7.26 1.29 2.82 0.29 6.1 0.43 9.85 0.43h10c4.17 0 7.8-0.2 10.9-0.59 3.12-0.36 5.79-0.91 8-1.64 2.22-0.73 4.04-1.61 5.47-2.65 1.44-1.04 2.57-2.23 3.4-3.56 0.84-1.33 1.41-2.78 1.72-4.37 0.34-1.62 0.51-3.34 0.51-5.16s-0.11-3.51-0.31-5.08c-0.19-1.56-0.6-2.97-1.25-4.22-0.66-1.27-1.58-2.4-2.78-3.39s-2.81-1.81-4.84-2.47c-2.01-0.67-4.48-1.18-7.42-1.519-2.95-0.338-6.47-0.507-10.59-0.507h-10.31c-3.33 0-6.21-0.066-8.63-0.196-2.4-0.156-4.43-0.403-6.1-0.742-1.66-0.339-3.01-0.768-4.02-1.289-1.02-0.521-1.81-1.159-2.38-1.914-0.55-0.781-0.92-1.68-1.1-2.695-0.18-1.016-0.27-2.175-0.27-3.477 0-2.109 0.36-3.867 1.09-5.273 0.73-1.407 2.03-2.526 3.91-3.36 1.87-0.833 4.43-1.419 7.65-1.758 3.23-0.364 7.35-0.546 12.35-0.546h7.5c3.75 0 6.9 0.091 9.45 0.273 2.55 0.156 4.61 0.573 6.17 1.25 1.57 0.651 2.69 1.641 3.36 2.969 0.68 1.328 1.02 3.164 1.02 5.508h7.5c0-1.875-0.16-3.581-0.47-5.118-0.31-1.536-0.87-2.903-1.68-4.101-0.78-1.224-1.85-2.266-3.2-3.125-1.33-0.886-3.01-1.615-5.04-2.188-2.03-0.599-4.46-1.028-7.27-1.289-2.81-0.286-6.09-0.429-9.84-0.429h-7.5zm264.96 0c-4.58 0-8.45 0.286-11.6 0.859-3.13 0.547-5.71 1.393-7.74 2.539-2.03 1.12-3.6 2.539-4.72 4.258-1.1 1.719-1.9 3.737-2.43 6.054-0.49 2.318-0.78 4.935-0.85 7.852-0.08 2.917-0.12 6.146-0.12 9.684 0 3.55 0.04 6.77 0.12 9.69 0.07 2.92 0.36 5.53 0.85 7.85 0.53 2.32 1.33 4.34 2.43 6.06 1.12 1.72 2.69 3.15 4.72 4.29 2.03 1.12 4.61 1.96 7.74 2.5 3.15 0.58 7.02 0.86 11.6 0.86h17.54c3.75 0 7.03-0.18 9.84-0.54 2.81-0.34 5.24-0.88 7.27-1.6 2.03-0.76 3.71-1.71 5.04-2.86 1.32-1.14 2.38-2.5 3.16-4.06 0.81-1.59 1.37-3.38 1.68-5.39 0.31-2.03 0.47-4.3 0.47-6.8h-7.5c0 2.09-0.09 3.91-0.27 5.47-0.19 1.54-0.54 2.87-1.06 3.99-0.49 1.09-1.2 2-2.11 2.73s-2.11 1.3-3.59 1.72c-1.49 0.42-3.28 0.7-5.39 0.86s-4.62 0.23-7.54 0.23h-17.54c-3.33 0-6.15-0.09-8.44-0.27-2.26-0.21-4.14-0.61-5.62-1.21-1.49-0.6-2.63-1.46-3.44-2.58-0.78-1.12-1.35-2.6-1.72-4.45-0.36-1.85-0.59-4.12-0.66-6.8-0.06-2.71-0.08-5.94-0.08-9.69 0-3.746 0.02-6.963 0.08-9.645 0.05-2.708 0.26-4.987 0.62-6.836 0.37-1.849 0.95-3.333 1.76-4.453s1.95-1.979 3.44-2.578c1.48-0.599 3.36-0.99 5.62-1.172 2.29-0.208 5.11-0.312 8.44-0.312h17.54c3.75 0 6.89 0.13 9.41 0.39 2.55 0.261 4.61 0.86 6.17 1.797 1.57 0.938 2.69 2.318 3.36 4.141 0.68 1.823 1.02 4.297 1.02 7.422h7.5c0-2.292-0.16-4.375-0.47-6.25s-0.87-3.555-1.68-5.04c-0.78-1.484-1.84-2.773-3.16-3.867-1.33-1.093-3.01-1.992-5.04-2.695-2.03-0.729-4.46-1.263-7.27-1.602-2.81-0.364-6.09-0.546-9.84-0.546h-17.54zm-207.46 1.25v59.996h7.5v-23.75h32.46c4.58 0 8.44-0.18 11.56-0.54 3.15-0.37 5.74-0.9 7.78-1.6 2.05-0.71 3.63-1.58 4.72-2.62 1.12-1.07 1.93-2.29 2.42-3.67 0.52-1.41 0.82-2.973 0.9-4.691 0.11-1.719 0.16-3.594 0.16-5.625 0-1.954-0.04-3.737-0.12-5.352-0.05-1.615-0.29-3.073-0.7-4.375-0.42-1.302-1.08-2.435-1.99-3.398-0.89-0.964-2.17-1.771-3.83-2.422-1.67-0.651-3.79-1.133-6.37-1.446-2.55-0.338-5.69-0.507-9.41-0.507h-45.08zm117.5 0l-35 59.996h8.75l7.5-13.75h47.5l7.5 13.75h8.75l-35-59.996h-10zm157.5 0v59.996h60v-6.25h-52.5v-21.25h50v-6.246h-50v-20h52.5v-6.25h-60zm-152.5 5l20 34.996h-40l20-34.996zm-115 1.25h32.46c3.33 0 6.13 0.039 8.4 0.117 2.29 0.078 4.18 0.26 5.66 0.547 1.49 0.26 2.63 0.638 3.44 1.132 0.81 0.495 1.39 1.159 1.76 1.993 0.39 0.833 0.61 1.862 0.66 3.086 0.08 1.223 0.12 2.682 0.12 4.375 0 1.822-0.04 3.398-0.12 4.726-0.05 1.302-0.27 2.422-0.66 3.359-0.37 0.938-0.95 1.691-1.76 2.271-0.81 0.57-1.95 1.01-3.44 1.32-1.48 0.32-3.37 0.54-5.66 0.67-2.27 0.1-5.07 0.15-8.4 0.15h-32.46v-23.746z" transform="translate(-197.68 495.82)"/>
  </g>
 </g>
</svg>
