<?xml version="1.0" encoding="UTF-8" standalone="no"?>
<!-- Created with Inkscape (http://www.inkscape.org/) -->

<svg
   xmlns:dc="http://purl.org/dc/elements/1.1/"
   xmlns:cc="http://creativecommons.org/ns#"
   xmlns:rdf="http://www.w3.org/1999/02/22-rdf-syntax-ns#"
   xmlns:svg="http://www.w3.org/2000/svg"
   xmlns="http://www.w3.org/2000/svg"
   xmlns:sodipodi="http://sodipodi.sourceforge.net/DTD/sodipodi-0.dtd"
   xmlns:inkscape="http://www.inkscape.org/namespaces/inkscape"
   width="221.2421mm"
   height="135.1264mm"
   viewBox="0 0 783.92869 478.79434"
   id="svg4201"
   version="1.1"
   inkscape:version="0.91 r"
   sodipodi:docname="spacebox_white_logo.svg"
   inkscape:export-filename="/media/Datos/Dropbox/Mergus/mergusprojects/spacebox/spacebox_white_logo.png"
   inkscape:export-xdpi="45.865204"
   inkscape:export-ydpi="45.865204">
  <defs
     id="defs4203" />
  <sodipodi:namedview
     id="base"
     pagecolor="#6d6d6d"
     bordercolor="#666666"
     borderopacity="1.0"
     inkscape:pageopacity="0"
     inkscape:pageshadow="2"
     inkscape:zoom="0.80340567"
     inkscape:cx="391.96434"
     inkscape:cy="239.39717"
     inkscape:document-units="px"
     inkscape:current-layer="layer1"
     showgrid="false"
     fit-margin-top="20"
     fit-margin-left="20"
     fit-margin-right="20"
     fit-margin-bottom="20"
     inkscape:window-width="1368"
     inkscape:window-height="713"
     inkscape:window-x="0"
     inkscape:window-y="30"
     inkscape:window-maximized="1" />
  <metadata
     id="metadata4206">
    <rdf:RDF>
      <cc:Work
         rdf:about="">
        <dc:format>image/svg+xml</dc:format>
        <dc:type
           rdf:resource="http://purl.org/dc/dcmitype/StillImage" />
        <dc:title />
      </cc:Work>
    </rdf:RDF>
  </metadata>
  <g
     inkscape:label="Capa 1"
     inkscape:groupmode="layer"
     id="layer1"
     transform="translate(197.67863,-495.82222)">
    <g
       id="g4186">
      <path
         id="path4194"
         d="m 189.91512,665.24605 -80.46289,46.65234 0.17187,93.00977 12.47461,7.17187 c -23.49199,30.81926 -50.19452,50.89969 -79.87304,64.75781 -35.33706,16.50038 -72.89324,21.85931 -104.8418,23.6504 24.00547,5.1289 69.80646,2.60093 109.09961,-9.06836 39.2508,-11.65679 80.2838,-34.06558 115.66016,-77.0918 l 0.01,20.58984 -0.71094,-0.21875 28.81446,16.56446 80.46289,-46.65235 -0.17188,-93.00781 -80.63281,-46.35742 z"
         style="color:#000000;clip-rule:nonzero;display:inline;overflow:visible;visibility:visible;opacity:1;isolation:auto;mix-blend-mode:normal;color-interpolation:sRGB;color-interpolation-filters:linearRGB;solid-color:#000000;solid-opacity:1;fill:#ffffff;fill-opacity:1;fill-rule:nonzero;stroke:none;stroke-width:1;stroke-linecap:butt;stroke-linejoin:miter;stroke-miterlimit:4;stroke-dasharray:none;stroke-dashoffset:0;stroke-opacity:1;color-rendering:auto;image-rendering:auto;shape-rendering:auto;text-rendering:auto;enable-background:accumulate"
         inkscape:connector-curvature="0" />
      <path
         d="m -126.81218,828.3963 0,-140.625 117.2790532,0 q 13.1835937,0 21.2402348,2.19727 8.05664,2.10571 12.359619,6.31714 4.394531,4.11987 5.859375,10.34545 1.464843,6.22559 1.464843,14.28223 0,5.85938 -1.00708,10.34546 -1.00708,4.48608 -2.655029,7.78198 -1.647949,3.2959 -3.753662,5.58472 -2.105713,2.19726 -4.302979,3.66211 -5.126953,3.479 -11.7187496,3.93677 8.2397466,0.45776 14.6484376,4.02832 2.746582,1.55639 5.310059,3.93676 2.655029,2.28882 4.669189,5.76783 2.105713,3.38745 3.387451,8.05664 1.281738,4.57763 1.281738,10.62011 0,7.32422 -0.732421,13.45826 -0.64087,6.04248 -2.746582,10.89477 -2.105713,4.8523 -6.042481,8.51441 -3.936768,3.66211 -10.528564,6.13403 -6.500245,2.38037 -16.0217289,3.57056 -9.4299316,1.19018 -22.6135251,1.19018 l -105.377198,0 z m 99.517823,-14.64844 q 10.253906,0 17.7612302,-0.27465 7.5073242,-0.36622 12.72583,-1.3733 5.2185059,-1.09863 8.4228518,-3.02124 3.204346,-2.01416 4.943847,-5.2185 1.831055,-3.2959 2.471924,-7.96509 0.640869,-4.66919 0.640869,-11.26099 0,-5.12695 -0.640869,-8.88061 -0.640869,-3.84522 -2.471924,-6.40869 -1.739501,-2.65503 -4.943847,-4.21143 -3.2043459,-1.64795 -8.4228518,-2.56347 -5.2185058,-0.91553 -12.72583,-1.19019 -7.5073242,-0.36621 -17.7612302,-0.36621 l -81.939693,0 0,52.73437 81.939693,0 z m 0,-67.38281 q 8.972168,0 15.472412,-0.36621 6.500244,-0.36621 11.07788067,-1.37329 4.57763673,-1.00708 7.41577153,-2.74658 2.8381347,-1.83106 4.3945308,-4.66919 1.64795,-2.83814 2.197266,-6.7749 0.549316,-4.02832 0.549316,-9.52149 0,-5.85937 -1.281738,-9.52148 -1.281738,-3.66211 -4.5776366,-5.58472 -3.2958984,-2.01416 -8.9721679,-2.65503 -5.5847168,-0.73242 -14.3737795,-0.73242 l -93.841548,0 0,43.94531 81.939693,0 z"
         style="font-style:normal;font-variant:normal;font-weight:normal;font-stretch:normal;font-size:187.5px;line-height:125%;font-family:Michroma;-inkscape-font-specification:Michroma;text-align:center;letter-spacing:0px;word-spacing:0px;text-anchor:middle;fill:#ffffff;fill-opacity:1;stroke:none;stroke-width:1px;stroke-linecap:butt;stroke-linejoin:miter;stroke-opacity:1"
         id="path4163"
         inkscape:connector-curvature="0" />
      <path
         d="m 432.71152,754.23859 82.67212,74.15771 -24.90235,0 -70.03784,-62.80517 -67.65747,62.80517 -24.90234,0 79.92553,-74.15771 -74.06616,-66.46729 24.90235,0 61.34033,55.11475 59.41772,-55.11475 24.90235,0 -71.59424,66.46729 z"
         style="font-style:normal;font-variant:normal;font-weight:normal;font-stretch:normal;font-size:187.5px;line-height:125%;font-family:Michroma;-inkscape-font-specification:Michroma;text-align:center;letter-spacing:0px;word-spacing:0px;text-anchor:middle;fill:#ffffff;fill-opacity:1;stroke:none;stroke-width:1px;stroke-linecap:butt;stroke-linejoin:miter;stroke-opacity:1"
         id="path4160"
         inkscape:connector-curvature="0" />
      <path
         id="path4149"
         transform="translate(-197.67863,495.82222)"
         d="M 207.56836 71.603516 C 202.98503 71.603516 199.00065 71.772788 195.61523 72.111328 C 192.22982 72.449868 189.32617 72.957679 186.9043 73.634766 C 184.50846 74.285806 182.54232 75.106123 181.00586 76.095703 C 179.4694 77.08529 178.25846 78.218101 177.37305 79.494141 C 176.48763 80.744141 175.87565 82.150391 175.53711 83.712891 C 175.22461 85.275391 175.06836 86.968096 175.06836 88.791016 C 175.06836 90.535802 175.17253 92.163408 175.38086 93.673828 C 175.58919 95.158201 176.0319 96.512368 176.70898 97.736328 C 177.41211 98.960288 178.42773 100.05404 179.75586 101.01758 C 181.08398 101.95508 182.85482 102.74935 185.06836 103.40039 C 187.2819 104.02539 190.01628 104.50716 193.27148 104.8457 C 196.55273 105.18425 200.48503 105.35352 205.06836 105.35352 L 215.38086 105.35352 C 219.54753 105.35352 222.91992 105.53581 225.49805 105.90039 C 228.07617 106.23893 230.06836 106.82487 231.47461 107.6582 C 232.9069 108.49154 233.85742 109.61132 234.32617 111.01758 C 234.82096 112.42382 235.06836 114.18164 235.06836 116.29102 C 235.06836 118.40039 234.7168 120.19727 234.01367 121.68164 C 233.31055 123.13997 232.09961 124.32487 230.38086 125.23633 C 228.66211 126.14779 226.35742 126.81185 223.4668 127.22852 C 220.57617 127.64518 216.94336 127.85352 212.56836 127.85352 L 202.56836 127.85352 C 198.81836 127.85352 195.66732 127.77539 193.11523 127.61914 C 190.58919 127.43685 188.54492 127.02018 186.98242 126.36914 C 185.41992 125.69206 184.30013 124.68945 183.62305 123.36133 C 182.94596 122.0332 182.60742 120.19726 182.60742 117.85352 L 175.10742 117.85352 C 175.10742 119.72852 175.26367 121.44727 175.57617 123.00977 C 175.88867 124.54622 176.43555 125.92643 177.2168 127.15039 C 178.02409 128.34831 179.0918 129.403 180.41992 130.31445 C 181.74805 131.19987 183.42773 131.94206 185.45898 132.54102 C 187.49023 133.11393 189.91211 133.54362 192.72461 133.83008 C 195.53711 134.11654 198.81836 134.25977 202.56836 134.25977 L 212.56836 134.25977 C 216.73503 134.25977 220.36784 134.06445 223.4668 133.67383 C 226.5918 133.30924 229.26107 132.76237 231.47461 132.0332 C 233.68815 131.30404 235.51107 130.41862 236.94336 129.37695 C 238.37565 128.33529 239.50846 127.15039 240.3418 125.82227 C 241.17513 124.49414 241.74805 123.03581 242.06055 121.44727 C 242.39909 119.83268 242.56836 118.11393 242.56836 116.29102 C 242.56836 114.4681 242.46419 112.77539 242.25586 111.21289 C 242.07357 109.65039 241.6569 108.24414 241.00586 106.99414 C 240.35482 105.7181 239.43034 104.58529 238.23242 103.5957 C 237.03451 102.60612 235.41992 101.78581 233.38867 101.13477 C 231.38346 100.45768 228.90951 99.949868 225.9668 99.611328 C 223.02409 99.272788 219.49544 99.103516 215.38086 99.103516 L 205.06836 99.103516 C 201.73503 99.103516 198.85742 99.038416 196.43555 98.908203 C 194.03971 98.751956 192.00846 98.504556 190.3418 98.166016 C 188.67513 97.827469 187.33398 97.397786 186.31836 96.876953 C 185.30273 96.35612 184.50846 95.718097 183.93555 94.962891 C 183.38867 94.181644 183.02409 93.283205 182.8418 92.267578 C 182.65951 91.251951 182.56836 90.093096 182.56836 88.791016 C 182.56836 86.681636 182.93294 84.923825 183.66211 83.517578 C 184.39128 82.111325 185.69336 80.991536 187.56836 80.158203 C 189.44336 79.32487 191.99544 78.738931 195.22461 78.400391 C 198.45378 78.035811 202.56836 77.853516 207.56836 77.853516 L 215.06836 77.853516 C 218.81836 77.853516 221.9694 77.944666 224.52148 78.126953 C 227.07357 78.283206 229.13086 78.699873 230.69336 79.376953 C 232.25586 80.028 233.37565 81.017583 234.05273 82.345703 C 234.72982 83.67383 235.06836 85.509762 235.06836 87.853516 L 242.56836 87.853516 C 242.56836 85.978516 242.41211 84.272788 242.09961 82.736328 C 241.78711 81.199868 241.22721 79.832679 240.41992 78.634766 C 239.63867 77.410806 238.57096 76.369139 237.2168 75.509766 C 235.88867 74.624346 234.20898 73.895179 232.17773 73.322266 C 230.14648 72.723306 227.72461 72.293623 224.91211 72.033203 C 222.09961 71.74675 218.81836 71.603516 215.06836 71.603516 L 207.56836 71.603516 z M 472.5293 71.603516 C 467.94596 71.603516 464.07878 71.889977 460.92773 72.462891 C 457.80273 73.009764 455.22461 73.85612 453.19336 75.001953 C 451.16211 76.121746 449.58658 77.541012 448.4668 79.259766 C 447.37304 80.978512 446.56576 82.996746 446.04492 85.314453 C 445.55013 87.632166 445.26367 90.249349 445.18555 93.166016 C 445.10742 96.082682 445.06836 99.311849 445.06836 102.85352 C 445.06836 106.39518 445.10742 109.62435 445.18555 112.54102 C 445.26367 115.45768 445.55013 118.07487 446.04492 120.39258 C 446.56576 122.71028 447.37304 124.72851 448.4668 126.44727 C 449.58658 128.16601 451.16211 129.59831 453.19336 130.74414 C 455.22461 131.86393 457.80273 132.69727 460.92773 133.24414 C 464.07878 133.81706 467.94596 134.10352 472.5293 134.10352 L 490.06836 134.10352 C 493.81836 134.10352 497.09961 133.92123 499.91211 133.55664 C 502.72461 133.2181 505.14649 132.68424 507.17773 131.95508 C 509.20899 131.19987 510.88867 130.24935 512.2168 129.10352 C 513.54492 127.95768 514.59961 126.60352 515.38086 125.04102 C 516.18815 123.45247 516.74805 121.6556 517.06055 119.65039 C 517.37305 117.61914 517.5293 115.35352 517.5293 112.85352 L 510.0293 112.85352 C 510.0293 114.93685 509.93815 116.75977 509.75586 118.32227 C 509.57357 119.85872 509.22201 121.18685 508.70117 122.30664 C 508.20638 123.40039 507.50325 124.31185 506.5918 125.04102 C 505.68034 125.77018 504.48242 126.3431 502.99805 126.75977 C 501.51367 127.17643 499.7168 127.46289 497.60742 127.61914 C 495.49805 127.77539 492.98503 127.85352 490.06836 127.85352 L 472.5293 127.85352 C 469.19596 127.85352 466.38346 127.76237 464.0918 127.58008 C 461.82617 127.37174 459.95117 126.9681 458.4668 126.36914 C 456.98242 125.77018 455.83658 124.9108 455.0293 123.79102 C 454.24804 122.67122 453.67513 121.18685 453.31055 119.33789 C 452.94596 117.48893 452.72461 115.2233 452.64648 112.54102 C 452.59442 109.83268 452.56836 106.60352 452.56836 102.85352 C 452.56836 99.103516 452.59442 95.887371 452.64648 93.205078 C 452.69857 90.496745 452.9069 88.218101 453.27148 86.369141 C 453.63607 84.520181 454.222 83.035802 455.0293 81.916016 C 455.83658 80.796222 456.98242 79.936851 458.4668 79.337891 C 459.95117 78.738931 461.82617 78.348302 464.0918 78.166016 C 466.38346 77.957682 469.19596 77.853516 472.5293 77.853516 L 490.06836 77.853516 C 493.81836 77.853516 496.95638 77.983727 499.48242 78.244141 C 502.03451 78.504561 504.0918 79.103516 505.6543 80.041016 C 507.2168 80.978516 508.33659 82.358727 509.01367 84.181641 C 509.69076 86.004561 510.0293 88.478516 510.0293 91.603516 L 517.5293 91.603516 C 517.5293 89.311849 517.37305 87.228516 517.06055 85.353516 C 516.74805 83.478516 516.18815 81.798833 515.38086 80.314453 C 514.59961 78.83008 513.54492 77.541012 512.2168 76.447266 C 510.88867 75.353512 509.20899 74.45508 507.17773 73.751953 C 505.14649 73.022786 502.72461 72.488931 499.91211 72.150391 C 497.09961 71.785811 493.81836 71.603516 490.06836 71.603516 L 472.5293 71.603516 z M 265.06836 72.853516 L 265.06836 132.85352 L 272.56836 132.85352 L 272.56836 109.10352 L 305.0293 109.10352 C 309.61263 109.10352 313.4668 108.92123 316.5918 108.55664 C 319.74284 108.19206 322.33399 107.6582 324.36523 106.95508 C 326.42253 106.25195 327.99804 105.37956 329.0918 104.33789 C 330.21158 103.27018 331.01888 102.04622 331.51367 100.66602 C 332.03451 99.259762 332.33398 97.697262 332.41211 95.978516 C 332.51628 94.259762 332.56836 92.384762 332.56836 90.353516 C 332.56836 88.400389 332.5293 86.61654 332.45117 85.001953 C 332.39909 83.387373 332.16471 81.92904 331.74805 80.626953 C 331.33138 79.324873 330.66732 78.192056 329.75586 77.228516 C 328.87044 76.264969 327.5944 75.457681 325.92773 74.806641 C 324.26107 74.155601 322.13867 73.673828 319.56055 73.361328 C 317.00846 73.022788 313.87044 72.853516 310.14648 72.853516 L 265.06836 72.853516 z M 382.56836 72.853516 L 347.56836 132.85352 L 356.31836 132.85352 L 363.81836 119.10352 L 411.31836 119.10352 L 418.81836 132.85352 L 427.56836 132.85352 L 392.56836 72.853516 L 382.56836 72.853516 z M 540.06836 72.853516 L 540.06836 132.85352 L 600.06836 132.85352 L 600.06836 126.60352 L 547.56836 126.60352 L 547.56836 105.35352 L 597.56836 105.35352 L 597.56836 99.103516 L 547.56836 99.103516 L 547.56836 79.103516 L 600.06836 79.103516 L 600.06836 72.853516 L 540.06836 72.853516 z M 387.56836 77.853516 L 407.56836 112.85352 L 367.56836 112.85352 L 387.56836 77.853516 z M 272.56836 79.103516 L 305.0293 79.103516 C 308.36263 79.103516 311.16211 79.142583 313.42773 79.220703 C 315.7194 79.29883 317.60742 79.481118 319.0918 79.767578 C 320.57617 80.027991 321.722 80.405597 322.5293 80.900391 C 323.33658 81.395184 323.92252 82.059245 324.28711 82.892578 C 324.67775 83.725911 324.89911 84.754556 324.95117 85.978516 C 325.0293 87.202469 325.06836 88.660802 325.06836 90.353516 C 325.06836 92.176429 325.0293 93.751951 324.95117 95.080078 C 324.89909 96.382158 324.67774 97.501953 324.28711 98.439453 C 323.92252 99.376953 323.33658 100.13216 322.5293 100.70508 C 321.722 101.27799 320.57617 101.7207 319.0918 102.0332 C 317.60742 102.3457 315.7194 102.56705 313.42773 102.69727 C 311.16211 102.80143 308.36263 102.85352 305.0293 102.85352 L 272.56836 102.85352 L 272.56836 79.103516 z "
         style="font-style:normal;font-variant:normal;font-weight:normal;font-stretch:normal;font-size:medium;line-height:125%;font-family:Michroma;-inkscape-font-specification:Michroma;text-align:center;letter-spacing:10px;word-spacing:0px;text-anchor:middle;fill:#ffffff;fill-opacity:1;stroke:none;stroke-width:1px;stroke-linecap:butt;stroke-linejoin:miter;stroke-opacity:1" />
    </g>
  </g>
</svg>
