<svg xmlns="http://www.w3.org/2000/svg" viewBox="0 0 783.929 478.794"><g fill="#fff"><path d="M387.594 169.424l-80.463 46.652.18 93.01 12.48 7.172c-23.49 30.82-50.19 50.9-79.87 64.758-35.33 16.5-72.89 21.86-104.84 23.65 24.01 5.13 69.81 2.6 109.1-9.068 39.25-11.657 80.29-34.066 115.66-77.092l.01 20.59-.71-.22 28.82 16.565 80.47-46.65-.17-93.01-80.63-46.35z" style="isolation:auto;mix-blend-mode:normal" color="#000" overflow="visible" solid-color="#000000"/><path d="M70.866 332.574V191.95h117.28q13.183 0 21.24 2.196 8.056 2.106 12.36 6.317 4.394 4.12 5.86 10.346 1.464 6.22 1.464 14.28 0 5.86-1.008 10.34-1.007 4.48-2.655 7.78-1.647 3.29-3.753 5.58-2.106 2.2-4.303 3.66-5.12 3.48-11.71 3.93 8.24.45 14.65 4.03 2.75 1.55 5.31 3.93 2.66 2.29 4.67 5.77 2.11 3.38 3.39 8.05 1.29 4.58 1.29 10.62 0 7.32-.73 13.46-.64 6.04-2.75 10.89-2.1 4.85-6.04 8.51-3.93 3.66-10.53 6.13-6.5 2.38-16.02 3.57-9.43 1.19-22.61 1.19H70.87zm99.518-14.648q10.254 0 17.762-.275 7.507-.36 12.725-1.37 5.22-1.1 8.43-3.02 3.21-2.01 4.95-5.22 1.83-3.29 2.47-7.96.64-4.67.64-11.26 0-5.13-.64-8.88-.64-3.84-2.47-6.4-1.74-2.65-4.94-4.21-3.2-1.64-8.42-2.56-5.21-.91-12.72-1.19-7.51-.36-17.76-.36H88.45v52.74h81.94zm0-67.383q8.972 0 15.473-.366 6.5-.367 11.078-1.374 4.577-1.007 7.415-2.746 2.838-1.83 4.395-4.67 1.648-2.838 2.197-6.774.55-4.03.55-9.522 0-5.85-1.282-9.52t-4.578-5.58q-3.296-2.01-8.972-2.65-5.585-.73-14.374-.73h-93.84v43.95h81.938zm460.006 7.873l82.672 74.158H688.16l-70.038-62.805-67.657 62.8h-24.903l79.926-74.16-74.066-66.47h24.902l61.34 55.11 59.418-55.12h24.902L630.39 258.4z" style="line-height:125%;-inkscape-font-specification:Michroma;text-align:center" font-size="187.5" font-family="Michroma" letter-spacing="0" word-spacing="0" text-anchor="middle"/><path d="M207.568 71.604c-4.583 0-8.567.17-11.953.507-3.385.34-6.29.85-8.71 1.53-2.397.65-4.363 1.47-5.9 2.46-1.536.99-2.747 2.13-3.632 3.4-.885 1.25-1.497 2.66-1.836 4.22-.312 1.56-.47 3.26-.47 5.08 0 1.75.106 3.38.314 4.89.21 1.49.66 2.84 1.33 4.06.71 1.23 1.72 2.32 3.05 3.28 1.33.94 3.1 1.73 5.31 2.39 2.22.63 4.95 1.11 8.21 1.45 3.29.34 7.22.51 11.8.51h10.32c4.17 0 7.54.19 10.12.55 2.58.34 4.57.93 5.98 1.76 1.43.84 2.38 1.96 2.85 3.36.5 1.41.75 3.17.75 5.28 0 2.11-.35 3.91-1.05 5.39-.7 1.46-1.91 2.65-3.63 3.56-1.71.91-4.02 1.58-6.91 1.99-2.89.42-6.52.62-10.9.62h-10c-3.75 0-6.9-.08-9.45-.23-2.52-.18-4.57-.6-6.13-1.25-1.56-.67-2.68-1.68-3.36-3.01-.68-1.32-1.01-3.16-1.01-5.5h-7.5c0 1.88.16 3.59.47 5.16.32 1.54.86 2.92 1.64 4.14.81 1.2 1.88 2.25 3.21 3.16 1.33.89 3.01 1.63 5.04 2.23 2.03.57 4.45 1 7.27 1.29 2.81.29 6.1.43 9.85.43h10c4.17 0 7.8-.2 10.9-.59 3.13-.36 5.79-.91 8.01-1.64 2.21-.73 4.04-1.61 5.47-2.66 1.43-1.04 2.56-2.23 3.4-3.55.83-1.33 1.4-2.78 1.72-4.37.34-1.62.51-3.34.51-5.16 0-1.82-.1-3.51-.31-5.07-.18-1.56-.6-2.97-1.25-4.22-.65-1.27-1.57-2.4-2.77-3.39-1.19-.99-2.81-1.81-4.84-2.46-2-.68-4.48-1.18-7.42-1.52-2.94-.34-6.47-.51-10.59-.51H205.1c-3.337 0-6.21-.06-8.636-.19-2.397-.15-4.43-.4-6.095-.74-1.67-.34-3.01-.77-4.03-1.29s-1.81-1.16-2.39-1.91c-.55-.78-.91-1.68-1.1-2.69-.18-1.014-.28-2.17-.28-3.475 0-2.11.36-3.864 1.09-5.27.73-1.41 2.03-2.53 3.91-3.36 1.87-.834 4.42-1.42 7.65-1.76 3.23-.364 7.34-.55 12.34-.55h7.5c3.75 0 6.9.09 9.45.28 2.56.16 4.61.57 6.17 1.25 1.56.65 2.68 1.64 3.36 2.97.67 1.33 1.01 3.16 1.01 5.51h7.5c0-1.875-.15-3.58-.46-5.12-.32-1.534-.88-2.9-1.68-4.1-.78-1.223-1.85-2.265-3.21-3.124-1.33-.89-3.01-1.615-5.04-2.19-2.03-.6-4.45-1.03-7.26-1.29-2.81-.284-6.1-.43-9.85-.43h-7.5zm264.96 0c-4.582 0-8.45.286-11.6.86-3.125.546-5.703 1.392-7.735 2.538-2.03 1.12-3.606 2.54-4.726 4.258-1.094 1.72-1.9 3.737-2.422 6.054-.495 2.318-.78 4.935-.86 7.852-.078 2.917-.117 6.146-.117 9.688 0 3.54.04 6.77.118 9.687.078 2.92.364 5.54.86 7.86.52 2.32 1.327 4.34 2.42 6.06 1.12 1.72 2.696 3.15 4.727 4.3 2.032 1.12 4.61 1.96 7.735 2.5 3.15.58 7.018.86 11.6.86h17.54c3.75 0 7.032-.18 9.844-.54 2.813-.34 5.234-.87 7.266-1.6 2.03-.75 3.71-1.7 5.04-2.85 1.327-1.14 2.382-2.5 3.163-4.06.81-1.59 1.37-3.38 1.68-5.39.32-2.03.47-4.29.47-6.79h-7.5c0 2.08-.09 3.91-.27 5.47-.18 1.54-.53 2.87-1.05 3.99-.49 1.09-1.19 2.01-2.11 2.73-.91.73-2.11 1.31-3.59 1.72-1.48.42-3.28.71-5.39.86-2.11.16-4.62.24-7.54.24h-17.54c-3.33 0-6.14-.09-8.43-.27-2.26-.21-4.14-.61-5.62-1.21-1.48-.6-2.63-1.46-3.44-2.58-.78-1.12-1.35-2.6-1.72-4.45-.36-1.85-.58-4.11-.66-6.79-.05-2.71-.08-5.93-.08-9.68s.03-6.97.08-9.65c.06-2.71.26-4.98.63-6.83.37-1.85.96-3.33 1.76-4.45.81-1.12 1.96-1.98 3.44-2.58 1.49-.6 3.36-.99 5.63-1.17 2.29-.21 5.11-.31 8.44-.31h17.54c3.75 0 6.89.13 9.42.39 2.55.26 4.61.86 6.17 1.8 1.56.94 2.68 2.32 3.36 4.14.68 1.83 1.02 4.3 1.02 7.42h7.5c0-2.29-.16-4.37-.47-6.25-.31-1.87-.87-3.55-1.68-5.04-.78-1.48-1.84-2.77-3.16-3.86-1.32-1.09-3-1.99-5.04-2.69-2.03-.73-4.45-1.26-7.26-1.6-2.81-.36-6.09-.55-9.84-.55h-17.54zm-207.46 1.25v60h7.5v-23.75h32.46c4.585 0 8.44-.183 11.564-.547 3.15-.365 5.742-.9 7.773-1.602 2.058-.703 3.633-1.575 4.727-2.617 1.12-1.068 1.927-2.292 2.422-3.672.52-1.406.82-2.97.898-4.687.104-1.72.156-3.6.156-5.63 0-1.96-.04-3.74-.117-5.35-.05-1.62-.28-3.08-.7-4.38s-1.08-2.44-1.99-3.4c-.88-.97-2.16-1.77-3.83-2.43-1.66-.65-3.79-1.14-6.36-1.45-2.55-.34-5.69-.51-9.41-.51h-45.08zm117.5 0l-35 60h8.75l7.5-13.75h47.5l7.5 13.75h8.75l-35-60h-10zm157.5 0v60h60v-6.25h-52.5v-21.25h50v-6.25h-50v-20h52.5v-6.25h-60zm-152.5 5l20 35h-40l20-35zm-115 1.25h32.46c3.335 0 6.134.04 8.4.117 2.29.08 4.18.26 5.664.55 1.484.26 2.63.64 3.437 1.13.8.5 1.39 1.16 1.75 2 .39.84.61 1.86.66 3.09.08 1.23.11 2.68.11 4.38 0 1.82-.04 3.4-.12 4.73-.05 1.31-.27 2.43-.66 3.36-.37.94-.95 1.7-1.76 2.27s-1.96 1.02-3.44 1.33c-1.49.31-3.38.54-5.67.67-2.27.11-5.07.16-8.4.16h-32.46V79.11z" style="line-height:125%;-inkscape-font-specification:Michroma;text-align:center" font-family="Michroma" letter-spacing="10" word-spacing="0" text-anchor="middle"/></g></svg>