<?xml version="1.0" encoding="UTF-8" standalone="no"?>
<!-- Created with Inkscape (http://www.inkscape.org/) -->

<svg
   xmlns:dc="http://purl.org/dc/elements/1.1/"
   xmlns:cc="http://creativecommons.org/ns#"
   xmlns:rdf="http://www.w3.org/1999/02/22-rdf-syntax-ns#"
   xmlns:svg="http://www.w3.org/2000/svg"
   xmlns="http://www.w3.org/2000/svg"
   xmlns:xlink="http://www.w3.org/1999/xlink"
   xmlns:sodipodi="http://sodipodi.sourceforge.net/DTD/sodipodi-0.dtd"
   xmlns:inkscape="http://www.inkscape.org/namespaces/inkscape"
   width="1500"
   height="380"
   viewBox="0 0 1500 380.00003"
   id="svg10440"
   version="1.1"
   inkscape:version="0.91 r"
   sodipodi:docname="spacebox_banner_wide.svg">
  <defs
     id="defs10442">
    <linearGradient
       gradientTransform="matrix(2.0158729,0,0,0.97559712,-571.42866,602.8385)"
       inkscape:collect="always"
       xlink:href="#linearGradient6117"
       id="linearGradient6123-8"
       x1="333.75439"
       y1="388.49979"
       x2="333.75439"
       y2="0"
       gradientUnits="userSpaceOnUse" />
    <linearGradient
       inkscape:collect="always"
       id="linearGradient6117">
      <stop
         style="stop-color:#040a22;stop-opacity:1"
         offset="0"
         id="stop6119" />
      <stop
         style="stop-color:#091a51;stop-opacity:1"
         offset="1"
         id="stop6121" />
    </linearGradient>
  </defs>
  <sodipodi:namedview
     id="base"
     pagecolor="#ffffff"
     bordercolor="#666666"
     borderopacity="1.0"
     inkscape:pageopacity="0.0"
     inkscape:pageshadow="2"
     inkscape:zoom="0.43369216"
     inkscape:cx="730.20082"
     inkscape:cy="127.66672"
     inkscape:document-units="px"
     inkscape:current-layer="layer1"
     showgrid="false"
     fit-margin-top="0"
     fit-margin-left="0"
     fit-margin-right="0"
     fit-margin-bottom="0"
     units="px"
     inkscape:window-width="1368"
     inkscape:window-height="713"
     inkscape:window-x="0"
     inkscape:window-y="30"
     inkscape:window-maximized="1" />
  <metadata
     id="metadata10445">
    <rdf:RDF>
      <cc:Work
         rdf:about="">
        <dc:format>image/svg+xml</dc:format>
        <dc:type
           rdf:resource="http://purl.org/dc/dcmitype/StillImage" />
        <dc:title></dc:title>
      </cc:Work>
    </rdf:RDF>
  </metadata>
  <g
     inkscape:label="Capa 1"
     inkscape:groupmode="layer"
     id="layer1"
     transform="translate(571.42859,-602.83851)">
    <g
       id="g11085">
      <rect
         y="602.8385"
         x="-571.42865"
         height="380.00003"
         width="1500.0001"
         id="rect5503-1"
         style="color:#000000;clip-rule:nonzero;display:inline;overflow:visible;visibility:visible;opacity:1;isolation:auto;mix-blend-mode:normal;color-interpolation:sRGB;color-interpolation-filters:linearRGB;solid-color:#000000;solid-opacity:1;fill:url(#linearGradient6123-8);fill-opacity:1;fill-rule:nonzero;stroke:none;stroke-width:1;stroke-linecap:butt;stroke-linejoin:miter;stroke-miterlimit:4;stroke-dasharray:none;stroke-dashoffset:0;stroke-opacity:1;color-rendering:auto;image-rendering:auto;shape-rendering:auto;text-rendering:auto;enable-background:accumulate" />
      <path
         inkscape:connector-curvature="0"
         id="path5-3"
         d="m -523.23501,754.4494 c -17.0291,0 -33.28421,3.33281 -48.19364,9.32897 l 0,8.25675 c 4.29861,-1.85648 8.71092,-3.49919 13.24726,-4.85808 0.37427,0.52093 0.62674,1.12652 0.69824,1.79696 0.0678,0.62856 0.0288,1.79232 -0.88361,2.83608 -0.72672,0.82949 -1.28128,1.79374 -1.79366,2.7699 l -11.26823,21.46093 0,11.77122 c 2.12744,-1.12196 3.92348,-2.8497 5.07988,-5.05332 l 12.75082,-24.2937 c 0.36462,-0.69521 0.76178,-1.37417 1.25417,-1.98558 1.8799,-2.3285 2.76046,-5.28594 2.43566,-8.31631 -0.11183,-1.04473 -0.37311,-2.04264 -0.74468,-2.98831 8.81495,-2.03232 17.9942,-3.10745 27.41779,-3.10746 23.1639,0 44.83776,6.49017 63.30385,17.74786 l -12.94278,-0.36071 c -7.62822,-0.2019 -14.92926,3.2931 -19.5349,9.3786 l -11.69843,15.46113 c -0.41038,0.54189 -0.71604,1.16903 -0.80737,1.84328 -0.22959,1.68853 0.64352,3.24132 2.06831,3.95465 l 12.32722,6.16192 c 0,0 -15.39538,6.3136 -15.53721,6.39361 -2.81704,1.60089 -4.4289,4.75285 -3.97448,8.08797 0.29042,2.1323 1.51426,4.03025 3.21321,5.35116 l 6.66175,5.1824 c 2.11796,1.64851 4.90367,2.12452 7.4493,1.27409 l 14.465,-4.81837 28.55606,14.925 c 0.27907,0.14573 0.41293,0.46589 0.32431,0.76778 0,0 -2.54359,8.79386 -2.58459,9.11385 l -36.38931,-6.61532 c -0.77314,-0.14096 -1.57,-0.0394 -2.28333,0.29122 l -31.73301,14.73307 c -1.88006,0.87329 -2.71641,3.09005 -1.88312,4.98714 l 15.97079,36.36276 c 0.5239,1.19235 1.62135,2.03571 2.90891,2.23379 l 18.77377,2.88904 9.90817,51.52933 c 0.87514,4.55036 4.87352,7.85631 9.50762,7.85631 l 8.98473,0 c 4.23796,0 7.94355,-2.71537 9.22635,-6.75425 l 19.90885,-62.70494 c 0.81533,-2.56754 0.2489,-5.36228 -1.56526,-7.43936 -1.33144,-1.52471 -3.26082,-2.39925 -5.27508,-2.60112 l -3.6634,-0.36732 -6.16852,-23.12551 c 12.56613,16.47467 14.2566,16.49031 16.16598,16.49031 1.67234,0 3.40637,-0.53846 11.94987,-7.72393 3.06563,-2.57802 4.92081,-6.34979 5.09312,-10.35155 0.17232,-3.99987 -1.35313,-7.91828 -4.18628,-10.74866 l -0.0796,-0.0795 13.55174,0.77437 c 1.29128,7.10071 1.96903,14.41053 1.96903,21.87789 0,40.6004 -19.95578,76.60756 -50.55322,98.79303 l 12.32061,0 c 28.02064,-23.79101 45.85066,-59.23811 45.85066,-98.78972 0,-71.46135 -58.13806,-129.59943 -129.59945,-129.59943 z m 70.87227,30.37623 c 2.08474,1.49328 4.11765,3.05142 6.10244,4.66943 l -9.4878,9.11386 -4.77203,-5.51 c -6.9e-4,6.9e-4 7.96591,-7.63236 8.15739,-8.27329 z m -20.723,2.2437 7.62805,0.21512 -2.94532,2.72026 c -1.51036,1.39519 -1.64015,3.7364 -0.29448,5.29158 l 9.8121,11.3311 c 0.68385,0.78949 1.6642,1.26619 2.70708,1.3138 1.0456,0.0505 2.05952,-0.33614 2.81283,-1.05898 l 12.87654,-12.37023 c 17.14888,15.86138 29.74618,36.57016 35.59175,59.9284 l -21.42462,-1.21782 c -1.58085,-0.0895 -3.0475,0.80185 -3.69305,2.24372 -0.64573,1.44281 -0.3348,3.13538 0.78433,4.25248 l 7.15142,7.14811 c 1.34465,1.34471 2.04002,3.13024 1.95903,5.03017 -0.0813,1.9009 -0.92986,3.62342 -2.38601,4.84815 -3.47888,2.92562 -5.5084,4.45807 -6.65497,5.25519 -2.3828,-2.47612 -7.55028,-8.78113 -15.0938,-18.92268 l 2.20388,-7.51213 c 1.10964,-3.77797 -0.61743,-7.84277 -4.10681,-9.66652 l -29.98561,-15.67623 c -0.91716,-0.47905 -1.98852,-0.56492 -2.96853,-0.23826 l -16.00383,5.33129 c -0.122,0.0399 -0.25602,0.0182 -0.36075,-0.0629 l -6.86015,-5.3346 c -0.0441,-0.0353 -0.16604,-0.12571 -0.15249,-0.33424 0,-0.11522 0.0542,-0.1897 0.1,-0.23827 l 22.52324,-9.21975 c 1.3838,-0.56663 2.30673,-1.8879 2.36281,-3.38212 0.0559,-1.49424 -0.76518,-2.88236 -2.10135,-3.5509 l -15.73257,-7.86624 9.00134,-11.897 c 3.12373,-4.12652 8.0974,-6.50145 13.25047,-6.36052 z m -15.42131,76.56103 33.83114,6.15202 8.44203,31.66023 c 0.40851,1.53234 1.72471,2.65247 3.30267,2.80961 l 6.53925,0.65524 0.083,0.12912 -19.90546,62.7049 c -0.2733,0.86096 -1.06204,1.43954 -1.96581,1.43954 l -8.98473,0 c -0.9885,0 -1.83958,-0.70405 -2.02529,-1.67446 l -10.41783,-54.1636 c -0.30379,-1.58089 -1.56899,-2.79887 -3.16034,-3.04458 l -19.35953,-2.98169 -13.63103,-31.03476 27.25225,-12.65152 z m -82.9216,39.97323 0,7.62467 20.71638,0.83063 0.94308,25.495 c -4.25084,4.79728 -17.63804,22.24494 -11.1127,45.28464 l 7.99541,0 c -8.05047,-23.61876 8.80394,-40.30991 9.61351,-41.09176 0.78855,-0.75333 1.21571,-1.80618 1.17487,-2.89567 l -1.13183,-30.59792 c -0.0729,-1.98851 -1.66506,-3.5867 -3.65341,-3.66672 l -24.54531,-0.98287 z m 0,74.06583 0,5.16911 4.76541,0 c -1.89142,-1.65593 -3.47193,-3.40978 -4.76541,-5.16911 z"
         style="opacity:0.8;fill:#ffffff" />
      <path
         style="opacity:0.83999999;fill:#ffffff"
         d="m -429.23716,760.60001 c -0.10624,0.2054 -0.31514,0.32323 -0.5315,0.32323 -0.0924,0 -0.1864,-0.0215 -0.2743,-0.067 -0.69141,-0.35771 -1.32294,-0.82018 -1.8772,-1.37455 -0.5544,-0.55448 -1.01691,-1.18602 -1.37442,-1.87719 -0.15177,-0.2933 -0.0372,-0.654 0.25623,-0.80572 0.29335,-0.15172 0.65402,-0.0369 0.80566,0.25629 0.30107,0.58176 0.69072,1.1138 1.15807,1.58119 0.46718,0.46726 0.99923,0.85686 1.58123,1.158 0.29321,0.15171 0.40801,0.51248 0.25623,0.8057 z m 1.00145,-2.89881 c -0.41476,-0.19404 -0.79102,-0.45837 -1.11818,-0.78545 -0.32701,-0.32723 -0.59152,-0.70356 -0.78579,-1.11853 -0.14005,-0.29901 -0.4959,-0.42787 -0.79503,-0.28783 -0.299,0.14002 -0.42788,0.49596 -0.28783,0.79502 0.25333,0.54098 0.59759,1.03102 1.02312,1.45684 0.4258,0.42566 0.91603,0.76991 1.45691,1.023 0.0814,0.0383 0.1682,0.0566 0.25305,0.0566 0.22492,0 0.4403,-0.12749 0.54199,-0.34464 0.13977,-0.29906 0.0138,-0.65492 -0.28824,-0.79489 z m 15.46345,-14.33708 c -0.23333,-0.23351 -0.61193,-0.23344 -0.8454,0 l -4.24271,4.24267 c -0.23346,0.23348 -0.23346,0.61199 0,0.84547 0.11728,0.11688 0.26974,0.17513 0.42277,0.17513 0.15301,0 0.30603,-0.0583 0.42276,-0.17513 l 4.24258,-4.24265 c 0.2336,-0.2335 0.2336,-0.612 0,-0.84549 z m 8.23845,8.78113 0,0 -1.09527,1.09532 c -7.7e-4,7.6e-4 0,0.002 0,0.004 -7.7e-4,7.6e-4 0,0.002 0,0.004 l -2.344,2.34386 c -4.1e-4,5.4e-4 -7.6e-4,7.6e-4 0,0.002 -5.4e-4,5.4e-4 -7.6e-4,7.6e-4 0,0.002 l -1.09665,1.09676 c -0.85961,0.85963 -2.25844,0.85956 -3.11805,0 l -2.2728,-2.27274 c -0.41517,-0.41518 -0.64381,-0.9688 -0.64381,-1.55902 0,-0.5902 0.22864,-1.14383 0.64381,-1.559 l 0.67569,-0.67558 -1.18124,-1.18116 -1.43318,1.43306 c -1.06865,1.0685 -2.8072,1.06837 -3.8757,0 l -0.33487,-0.33488 -1.25506,1.25504 c 0.29872,0.63871 0.45603,1.34064 0.45603,2.06667 0,1.30433 -0.50791,2.53059 -1.4303,3.45295 -0.0924,0.0933 -0.19317,0.18535 -0.29694,0.27342 -0.109,0.0922 -0.246,0.14209 -0.38688,0.14209 -0.0248,0 -0.0511,-0.002 -0.0759,-0.004 -0.16667,-0.0213 -0.31666,-0.11176 -0.41325,-0.24911 -0.27678,-0.39345 -0.57179,-0.78451 -0.88376,-1.17152 -1.07319,0.81295 -2.61317,0.73024 -3.59131,-0.24785 -0.97827,-0.97836 -1.06092,-2.51824 -0.24795,-3.59133 -0.38703,-0.31196 -0.77792,-0.60689 -1.17144,-0.88382 -0.13798,-0.0966 -0.2278,-0.2466 -0.24905,-0.4132 -0.0221,-0.1666 0.0289,-0.33447 0.1366,-0.46255 0.0883,-0.10403 0.18048,-0.20413 0.27402,-0.29753 0.92226,-0.92209 2.14819,-1.4298 3.45251,-1.4298 0.72605,0 1.42794,0.15742 2.06665,0.45603 l 1.2552,-1.25496 -0.33501,-0.33495 c -1.06852,-1.06857 -1.06852,-2.80722 0,-3.87578 l 1.43318,-1.43313 -1.18124,-1.18117 -0.67555,0.67565 c -0.8596,0.85959 -2.25829,0.85959 -3.11804,0 l -2.2728,-2.27285 c -0.41517,-0.41512 -0.64381,-0.9688 -0.64381,-1.55895 0,-0.59023 0.22864,-1.14392 0.64381,-1.55902 l 3.443,-3.44305 c 0,-7.6e-4 0,-0.004 0,-0.004 0,-7.7e-4 0,-0.004 0,-0.004 l 1.09444,-1.09448 c 0.41518,-0.41519 0.9689,-0.64378 1.55904,-0.64378 0.59026,0 1.14398,0.22866 1.55902,0.64385 l 2.27266,2.2727 c 0.8596,0.8596 0.8596,2.25838 0,3.11798 l -0.67555,0.67563 1.18123,1.18117 1.43305,-1.43306 c 0.51591,-0.51594 1.20401,-0.80013 1.93778,-0.80013 0.12004,0 0.23815,0.008 0.35489,0.0225 l 0.77488,-0.77483 c 0.85423,-0.8542 2.24092,-0.85944 3.10191,-0.016 0.029,-0.065 0.0704,-0.12584 0.1228,-0.1791 0.2336,-0.23348 0.61208,-0.23348 0.84554,0 l 0.33488,0.33479 0.38454,-0.38455 c 0.23346,-0.2335 0.61194,-0.2335 0.8454,0 0.23359,0.23351 0.23359,0.61203 0,0.84549 l -0.38455,0.38459 0.33487,0.33493 c 0.23361,0.2335 0.23361,0.612 0,0.8455 -0.0538,0.0532 -0.11452,0.0944 -0.17923,0.12348 0.40511,0.4133 0.62794,0.96029 0.62794,1.54279 0,0.59016 -0.22877,1.14385 -0.64395,1.55902 l -0.77474,0.77477 c 0.0152,0.11687 0.0221,0.23528 0.0221,0.35498 0,0.73372 -0.28424,1.42191 -0.80014,1.93787 l -1.43306,1.43304 1.18124,1.18119 0.67555,-0.67567 c 0.41518,-0.41516 0.96875,-0.64375 1.55903,-0.64375 0.59013,0 1.14384,0.22866 1.55902,0.64384 l 2.27265,2.27272 c 0.41518,0.4151 0.64395,0.96879 0.64395,1.55901 0,0.59023 -0.22863,1.14384 -0.64395,1.55901 z m -5.22085,-3.86968 1.42698,1.42708 1.38918,-1.3892 -0.7135,-0.71359 c -0.1893,-0.18932 -0.44277,-0.29354 -0.71348,-0.29354 -0.27086,0 -0.52419,0.10416 -0.7135,0.29354 l -0.67568,0.67571 z m -0.84553,0.84551 -1.50314,1.50313 1.42711,1.42703 1.50314,-1.50316 -1.42711,-1.427 z m -3.14193,-11.51713 c 0.12832,0.0904 0.2503,0.19262 0.36372,0.30603 l 3.03015,3.03021 c 0.11314,0.11329 0.21552,0.23494 0.3059,0.36356 l 0.40098,-0.40102 c 0.1893,-0.18939 0.29361,-0.44281 0.29361,-0.71358 0,-0.27076 -0.10486,-0.52419 -0.29361,-0.71351 l -2.27266,-2.27278 c -0.39352,-0.3934 -1.03374,-0.39334 -1.42711,0 l -0.40098,0.40109 z m -8.39892,-1.71466 1.42712,1.42702 0.67568,-0.67559 c 0.39338,-0.39344 0.39338,-1.03361 0,-1.42701 l -0.71363,-0.71356 -1.38917,1.38914 z m -2.27265,-2.27265 1.42726,1.42714 1.38917,-1.38914 -0.71376,-0.71371 c -0.18931,-0.18933 -0.44265,-0.29355 -0.7135,-0.29355 -0.27085,0 -0.52418,0.1043 -0.71349,0.2936 l -0.67568,0.67566 z m -2.34854,2.34865 1.42712,1.42714 1.50315,-1.50305 -1.42713,-1.42723 -1.50314,1.50314 z m 0.58171,2.27259 -1.42725,-1.42709 -0.67554,0.67558 c -0.18945,0.18939 -0.29362,0.44274 -0.29362,0.71352 0,0.27075 0.10487,0.52411 0.29362,0.71344 l 0.71362,0.7137 1.38917,-1.38915 z m 2.27252,2.27264 -1.42711,-1.42707 -1.38917,1.38914 0.71363,0.71366 c 0.39337,0.39331 1.03346,0.39331 1.42697,0 l 0.67568,-0.67573 z m 0.84554,-0.8455 1.50301,-1.50313 -1.42698,-1.4271 -1.50314,1.50309 1.42711,1.42714 z m 2.02664,2.02667 1.50314,-1.50313 -1.18124,-1.18118 -1.50314,1.50314 1.18124,1.18117 z m -4.64465,13.69978 c -0.33281,-0.37378 -0.68107,-0.74267 -1.04381,-1.10542 -0.36262,-0.36272 -0.73157,-0.71108 -1.10536,-1.04388 -0.416,0.60173 -0.35654,1.43527 0.17869,1.97049 0.53522,0.53519 1.36875,0.59471 1.97048,0.17881 z m 3.06657,-1.52847 c 0,-0.98493 -0.38358,-1.91094 -1.08009,-2.60731 -0.69638,-0.6965 -1.62236,-1.08006 -2.60738,-1.08006 -0.869,0 -1.69205,0.29853 -2.35201,0.8471 0.95041,0.71344 1.88136,1.52455 2.77464,2.4178 0.89354,0.89359 1.70459,1.82447 2.41779,2.7746 0.54861,-0.66018 0.84705,-1.48316 0.84705,-2.35213 z m 1.14923,-4.16718 -0.66933,-0.66934 -1.06492,1.06493 c 0.12142,0.10002 0.23801,0.20626 0.35046,0.31878 0.11315,0.11245 0.21884,0.22951 0.31874,0.35062 l 1.06505,-1.06499 z m 8.41093,-3.86561 c 0.002,-7.6e-4 0,-0.004 0,-0.004 0.002,-7.6e-4 0,-0.004 0,-0.004 l 1.85183,-1.85178 c 0.29016,-0.29016 0.44994,-0.67802 0.44994,-1.09236 0,-0.1301 -0.0165,-0.25767 -0.0469,-0.38043 0,-0.0138 -0.0138,-0.0264 -0.0138,-0.0399 -0.0704,-0.25242 -0.20393,-0.483 -0.39296,-0.67213 l -3.03016,-3.03021 c -0.18875,-0.18878 -0.41904,-0.32237 -0.671,-0.39272 -0.0138,-0.004 -0.0289,-0.007 -0.0427,-0.0124 -0.1228,-0.0303 -0.24934,-0.0459 -0.37904,-0.0459 -0.4142,0 -0.80206,0.15975 -1.09223,0.44992 0,0 0,0 0,0 l -1.85251,1.85256 c -7.6e-4,7.6e-4 0,0.002 0,0.004 -7.6e-4,7.6e-4 0,0.002 0,0.004 l -2.34095,2.34086 c 0,0.002 0,0.004 0,0.004 0,0.002 0,0.004 0,0.004 l -1.85141,1.85137 c -0.60227,0.60231 -0.60227,1.58237 0,2.18477 l 0.75006,0.74998 c 0,0.004 0,0.004 0.0138,0.008 0,0.004 0,0.004 0.0138,0.008 l 1.50453,1.50447 c 7.6e-4,7.6e-4 0,0.002 0,0.004 7.6e-4,7.6e-4 0,0.002 0,0.004 l 0.75488,0.75495 c 0.60227,0.6024 1.58248,0.60224 2.18476,0 l 1.85002,-1.84996 c 0,-0.002 0,-0.004 0,-0.006 0,-0.002 0,-0.004 0,-0.006 l 2.33861,-2.33889 z m 0.10487,3.9485 1.50315,-1.50314 -1.18111,-1.18116 -1.50329,1.50315 1.18125,1.18115 z m 1.42711,3.1181 -1.42711,-1.42703 -0.67569,0.67559 c -0.18931,0.18938 -0.29362,0.44275 -0.29362,0.71351 0,0.27077 0.10486,0.52419 0.29362,0.71352 l 0.71363,0.71356 1.38917,-1.38915 z m 2.27266,2.27268 -1.42712,-1.42724 -1.38918,1.38921 0.71363,0.71371 c 0.39338,0.39341 1.03361,0.39334 1.42713,0 l 0.67554,-0.67568 z m 2.34868,-2.3486 -1.42726,-1.42722 -1.50314,1.50314 1.42726,1.42715 1.50314,-1.50307 z m 1.81483,-2.23468 c 0,-0.27075 -0.10486,-0.52418 -0.29361,-0.71349 l -0.71363,-0.71371 -1.38931,1.38921 1.42725,1.42723 0.67569,-0.67564 0,0 c 0.1893,-0.18948 0.29361,-0.44281 0.29361,-0.7136 z"
         id="XMLID_2250_-0"
         inkscape:connector-curvature="0" />
      <path
         inkscape:connector-curvature="0"
         id="path5-1-1"
         d="m 502.11436,602.83873 c -9.95014,12.50289 -9.15982,30.80493 2.40252,42.36725 6.02064,6.02068 14.02777,9.33398 22.54238,9.33398 8.51451,0 16.5182,-3.3133 22.53884,-9.33398 11.56191,-11.56253 12.35244,-29.86455 2.40231,-42.36725 l -2.44493,0 c 3.3458,3.79222 5.58013,8.22673 6.68023,12.88285 -1.59235,5.58661 -3.98897,10.74567 -7.12954,15.33841 -0.29217,0.42701 -0.1829,1.00998 0.24408,1.30208 0.16123,0.11051 0.34874,0.16268 0.53079,0.16268 0.29893,0 0.58981,-0.14148 0.77132,-0.4069 2.58081,-3.77408 4.67667,-7.91725 6.25571,-12.3521 0.82875,8.61744 -2.0481,17.5279 -8.63333,24.11331 -2.73624,2.73616 -5.91169,4.87743 -9.36236,6.36182 4.1563,-2.74015 8.01592,-6.13761 11.37557,-10.05223 0.33693,-0.39259 0.29346,-0.98649 -0.0998,-1.32332 -0.39286,-0.33732 -0.98621,-0.29022 -1.32315,0.10254 -4.73882,5.52101 -11.26362,10.46033 -17.7091,13.42065 -1.34761,0.18295 -2.7139,0.27953 -4.09737,0.27953 -0.97301,0 -1.94141,-0.0469 -2.89789,-0.13804 4.20214,-1.48578 8.19797,-3.48901 11.91709,-5.97968 0.43,-0.28788 0.54613,-0.86871 0.25815,-1.29855 -0.28788,-0.42982 -0.86814,-0.54641 -1.29856,-0.25829 -4.59692,3.0786 -9.63189,5.38688 -14.96321,6.8607 -1.17813,-0.27944 -2.33393,-0.63183 -3.46398,-1.05087 0.95358,-0.22815 1.90309,-0.48581 2.8411,-0.77487 0.49461,-0.15254 0.77176,-0.67668 0.61923,-1.17118 -0.1522,-0.49424 -0.67687,-0.77119 -1.17126,-0.61918 -1.73435,0.53454 -3.50809,0.95822 -5.27551,1.27023 -2.72603,-1.3675 -5.25038,-3.16395 -7.49405,-5.34987 1.0665,-0.20987 2.12828,-0.44609 3.17396,-0.71826 0.50072,-0.13026 0.80266,-0.64207 0.67225,-1.14286 -0.13042,-0.5008 -0.64113,-0.8025 -1.14293,-0.67227 -1.39581,0.36308 -2.82371,0.67 -4.24947,0.91641 -2.43333,-2.74786 -4.27555,-5.8401 -5.52678,-9.10751 1.83729,-0.47058 3.6647,-1.04066 5.44542,-1.70544 0.48463,-0.1808 0.72957,-0.72192 0.54838,-1.20656 -0.18107,-0.48463 -0.71883,-0.73328 -1.20303,-0.55197 -1.76719,0.65984 -3.58259,1.22652 -5.40635,1.68775 -0.39822,-1.27427 -0.7096,-2.56994 -0.93426,-3.87793 4.06195,-1.31268 7.96129,-3.10011 11.59862,-5.33571 0.44073,-0.27101 0.57876,-0.84708 0.30774,-1.28793 -0.27124,-0.4406 -0.84689,-0.57884 -1.28783,-0.30783 -3.41611,2.09973 -7.0734,3.79217 -10.88032,5.04911 -0.1857,-1.73009 -0.22337,-3.4731 -0.10863,-5.20833 1.94742,-0.84116 3.83386,-1.80346 5.61179,-2.86247 0.44416,-0.26469 0.59036,-0.83981 0.32545,-1.2844 -0.2648,-0.4446 -0.83981,-0.59043 -1.2844,-0.3255 -1.41502,0.84255 -2.90035,1.62215 -4.43344,2.32463 0.2619,-1.90366 0.70381,-3.78822 1.33033,-5.62232 3.02723,-1.78045 6.17048,-4.14239 8.71126,-6.46442 0.38212,-0.349 0.40906,-0.94125 0.0601,-1.32329 -0.34928,-0.38229 -0.94146,-0.4095 -1.32336,-0.0602 -1.9676,1.79803 -4.06936,3.43955 -6.26269,4.90051 1.18393,-2.54221 2.76436,-4.94061 4.69879,-7.13315 l -2.45544,0 z m 14.66266,0 c -2.27801,2.92798 -4.87031,5.63796 -7.72043,8.01419 -0.39725,0.33145 -0.45178,0.92228 -0.11957,1.31978 0.18516,0.2223 0.45339,0.33613 0.72173,0.33613 0.21146,0 0.42248,-0.0696 0.59798,-0.21584 3.32433,-2.77154 6.32397,-5.97243 8.8846,-9.45426 l -2.36356,0 z m 9.08629,0 c -1.91704,3.65738 -4.70877,7.19278 -8.50968,10.76696 -0.37675,0.35464 -0.39339,0.94998 -0.0376,1.32687 0.1844,0.19607 0.43353,0.29366 0.68298,0.29366 0.23003,0 0.45962,-0.0846 0.64037,-0.25475 4.25259,-3.9992 7.29913,-7.97406 9.31997,-12.13274 l -2.09479,0 z m 7.07662,0 c -1.07594,2.36046 -2.30688,4.64993 -3.7364,6.83595 -0.28337,0.4331 -0.16487,1.01536 0.26877,1.29855 0.15768,0.10362 0.33715,0.15217 0.51307,0.15217 0.30559,0 0.6056,-0.14982 0.7855,-0.42458 1.64043,-2.50817 3.0547,-5.13471 4.24582,-7.86205 l -2.07676,0 z m 13.43119,0 c -0.4272,1.8902 -0.92428,3.7714 -1.57109,5.61524 -0.17024,0.48815 0.0848,1.02448 0.57317,1.19594 0.10305,0.0361 0.20856,0.0531 0.3115,0.0531 0.38673,0 0.74942,-0.24049 0.88456,-0.62629 0.71798,-2.04632 1.27753,-4.13726 1.73371,-6.23797 l -1.93185,0 z m -61.26871,2.80586 c -3.05234,0 -5.53386,2.48501 -5.53386,5.53739 0,3.05239 2.48152,5.53386 5.53386,5.53386 3.05234,0 5.5373,-2.48147 5.5373,-5.53386 0,-3.05238 -2.48496,-5.53739 -5.5373,-5.53739 z m 0,1.87529 c 2.01922,0 3.66212,1.64297 3.66212,3.6621 0,2.01915 -1.6429,3.66212 -3.66212,3.66212 -2.01922,0 -3.66212,-1.64297 -3.66212,-3.66212 0,-2.01913 1.6429,-3.6621 3.66212,-3.6621 z m 57.57116,7.40559 c -0.36376,-0.0303 -0.72549,0.15508 -0.90581,0.4989 -0.84013,1.6029 -1.77708,3.18281 -2.78111,4.69529 -3.60019,5.42241 -8.04587,10.00755 -13.21178,13.62234 -0.42431,0.29677 -0.52681,0.87811 -0.23003,1.30208 0.18215,0.26047 0.47239,0.39982 0.76768,0.39982 0.18537,0 0.37471,-0.0554 0.53786,-0.16975 5.35923,-3.74971 9.96667,-8.49924 13.69674,-14.1177 1.03956,-1.56614 2.00999,-3.20199 2.88007,-4.86157 0.24011,-0.45841 0.0612,-1.02308 -0.39619,-1.26317 -0.11409,-0.06 -0.23624,-0.096 -0.35743,-0.10616 z m -17.73389,0.80319 c -0.23926,0.0145 -0.47551,0.12138 -0.64746,0.31491 -0.94575,1.06462 -1.95611,2.10562 -3.00393,3.09598 -0.3759,0.35558 -0.39092,0.94712 -0.0344,1.32332 0.1844,0.19511 0.43064,0.29367 0.67933,0.29367 0.23089,0 0.46327,-0.0835 0.64403,-0.25476 1.08754,-1.02761 2.13557,-2.11091 3.11728,-3.21629 0.3438,-0.38697 0.30902,-0.97969 -0.0784,-1.32331 -0.19353,-0.17174 -0.43665,-0.24763 -0.6759,-0.23352 z m 10.02055,0.12736 c -0.23646,0.0406 -0.4593,0.17101 -0.60871,0.38214 -7.03787,9.95753 -16.93466,17.26407 -27.87091,20.57857 -0.49525,0.15018 -0.77637,0.67599 -0.6262,1.17117 0.12322,0.40477 0.4931,0.66518 0.89508,0.66518 0.0902,0 0.18194,-0.0145 0.27253,-0.0424 11.33307,-3.43466 21.5844,-10.99705 28.86174,-21.2933 0.2985,-0.42257 0.19599,-1.00696 -0.22648,-1.30562 -0.21124,-0.14927 -0.4607,-0.19634 -0.69705,-0.15561 z m -19.9913,0.2583 c -0.23883,-0.0203 -0.48538,0.0491 -0.68288,0.21583 -0.77819,0.6561 -1.59503,1.32551 -2.49451,2.04158 -0.40488,0.32231 -0.47089,0.91148 -0.14856,1.31625 0.18484,0.23235 0.45672,0.35382 0.73247,0.35382 0.20448,0 0.41143,-0.0679 0.58381,-0.20522 0.91322,-0.72708 1.74186,-1.40583 2.53337,-2.07342 0.39564,-0.33356 0.44705,-0.92415 0.11227,-1.31979 -0.16659,-0.19759 -0.398,-0.30876 -0.63672,-0.32905 z m 36.89365,1.92128 c -0.36526,-1.1e-4 -0.71239,0.21564 -0.86341,0.57319 -0.17754,0.41788 -0.3627,0.83915 -0.55204,1.25609 -0.21414,0.4713 0,1.02784 0.46702,1.24194 0.12505,0.0572 0.25622,0.085 0.38577,0.085 0.35593,0 0.69576,-0.2067 0.85269,-0.55197 0.19632,-0.4317 0.39006,-0.86897 0.57318,-1.30208 0.20179,-0.47645 -0.0215,-1.02609 -0.4989,-1.22778 -0.11958,-0.0504 -0.24259,-0.0743 -0.36431,-0.0743 z m -2.12666,4.62451 c -0.36291,-0.0388 -0.72786,0.13841 -0.91634,0.47767 -1.28074,2.30842 -2.74493,4.55286 -4.35208,6.67318 -5.90966,7.79856 -13.50182,13.72602 -21.95149,17.13937 -0.47991,0.19395 -0.71014,0.741 -0.51651,1.22071 0.14673,0.36494 0.49622,0.58735 0.86686,0.58735 0.11592,0 0.23914,-0.0245 0.35378,-0.0708 8.76342,-3.54031 16.6265,-9.67627 22.74063,-17.74442 1.6605,-2.19083 3.1732,-4.51011 4.4971,-6.89609 0.25084,-0.45253 0.0891,-1.02268 -0.36452,-1.27378 -0.11228,-0.0627 -0.23646,-0.10036 -0.35743,-0.11323 z m -31.23936,15.50116 c -0.12129,0.005 -0.24398,0.0332 -0.36087,0.0884 -1.13036,0.53686 -2.29357,1.03465 -3.45679,1.479 -0.48333,0.18482 -0.7227,0.72685 -0.53786,1.21009 0.14308,0.37337 0.49686,0.6015 0.87383,0.6015 0.11056,0 0.22251,-0.0181 0.33264,-0.0601 1.20872,-0.46192 2.42045,-0.98117 3.59493,-1.53915 0.46756,-0.22204 0.66431,-0.77817 0.44223,-1.24547 -0.1667,-0.3503 -0.52317,-0.55 -0.88811,-0.53427 z"
         style="opacity:0.7;fill:#ffffff" />
      <path
         inkscape:connector-curvature="0"
         id="path5-6-7"
         d="m 923.1013,767.5965 c -18.60665,0 -33.74449,15.13777 -33.74449,33.74447 0,18.60669 15.13784,33.74095 33.74449,33.74095 1.86616,0 3.68553,-0.19205 5.47011,-0.48475 l 0,-4.17516 c -1.77535,0.3337 -3.59922,0.53074 -5.47011,0.53074 -16.32821,0 -29.6117,-13.28372 -29.6117,-29.61178 0,-2.00344 0.20287,-3.96286 0.58381,-5.85583 l 29.02789,0 0,-4.1327 -27.87799,0 c 0.44964,-1.25143 0.98149,-2.46286 1.5887,-3.63027 l 22.29464,0 0,-4.13269 -19.69408,0 c 5.4071,-7.19842 14.01306,-11.86383 23.68873,-11.86383 1.87035,0 3.69519,0.19391 5.47011,0.5272 l 0,-4.17163 c -1.78458,-0.29275 -3.60395,-0.48472 -5.47011,-0.48472 z m -9.16046,50.27174 0,4.12915 14.63057,0 0,-4.12915 -14.63057,0 z m -26.26107,7.86556 c -5.52645,0 -10.02387,4.49759 -10.02387,10.02393 0,5.52633 4.49742,10.02038 10.02387,10.02038 5.52625,0 10.02034,-4.49376 10.02034,-10.02038 0,-5.52661 -4.49409,-10.02393 -10.02034,-10.02393 z m 0,4.1327 c 3.24781,0 5.88765,2.64325 5.88765,5.89123 0,3.24798 -2.63984,5.88768 -5.88765,5.88768 -3.24833,0 -5.89129,-2.6397 -5.89129,-5.88768 0,-3.24798 2.64328,-5.89123 5.89129,-5.89123 z"
         style="opacity:0.75;fill:#ffffff" />
      <path
         sodipodi:nodetypes="cccccccccccccccccccccccccccccccccccccccccccccccccccccccccccccccccccccccccccccccccccccccccccccccccccccccccccccccccccccccccccccccccccccccccccccccccccccccccccccccccccccccccccccccccccccccccccccccc"
         inkscape:connector-curvature="0"
         id="rect4465-0"
         d="m 249.97377,655.11107 -2.1549,9.75856 -6.05036,-8.07435 4.62445,8.85983 -9.82934,-2.29987 9.23858,3.81778 -9.00507,4.55729 9.52863,-3.01461 -3.96993,9.27736 5.36395,-8.4317 2.92264,9.65948 -1.31267,-9.90716 8.44945,5.51971 -7.37736,-6.74749 10.02048,-1.19947 -9.98515,-0.42813 6.90327,-7.36314 -7.92229,6.0929 z m -554.5283,133.33065 -2.64312,10.90494 -6.60598,-9.20657 4.98189,10.05576 -10.97917,-2.80939 10.28207,4.5007 -10.21486,4.90403 10.76685,-3.15967 -4.67392,10.32467 6.21667,-9.34458 3.05707,10.91203 -1.24203,-11.15263 9.35526,6.39367 -8.12029,-7.74528 11.27644,-1.11457 -11.19855,-0.71119 7.9221,-8.10616 -9.03677,6.65547 z m 103.51921,5.43833 -1.81159,4.49359 -2.24693,-4.34498 1.5038,4.60683 -4.51485,-1.88591 4.10797,2.5617 -4.67047,1.46131 4.79782,-0.67935 -2.63949,4.11855 3.2375,-3.60195 0.62627,4.85095 0.16667,-4.84034 3.59837,3.31536 -2.98624,-3.8178 4.88624,0.23 -4.74131,-1.00488 3.89221,-2.96861 -4.27771,2.27865 z m -22.60616,24.82449 -2.80924,6.37596 -3.02881,-6.35119 1.94239,6.69087 -6.40073,-2.91907 5.78877,3.87441 -6.78296,1.87881 6.92789,-0.75011 -3.98749,5.79569 4.82608,-5.02788 0.67229,7.00576 0.45996,-6.95269 5.01739,4.93234 -4.1116,-5.6223 7.01286,0.55551 -6.76521,-1.66299 5.72863,-4.0867 -6.25218,3.07476 z m 838.26926,-132.54841 -3.76463,13.04206 -7.50479,-11.47106 5.49856,12.40869 -13.12335,-3.96286 12.19273,5.97261 -12.59964,5.3994 13.17647,-3.26228 -6.18132,12.23532 7.99639,-10.96861 3.12791,13.34633 -0.92364,-13.54449 10.97575,8.21232 -9.41174,-9.77977 13.686,-0.76427 -13.49848,-1.44008 9.99565,-9.38349 -11.26942,7.5719 z m 56.35053,130.42064 2.87663,10.55819 -9.97783,-4.75543 8.99076,6.2415 -10.69989,2.77047 10.89803,-0.99778 -6.41499,9.00135 7.7099,-7.77004 0.87051,11.01462 0.90925,-10.90494 7.74887,7.87973 -6.31227,-8.93767 11.00054,1.05441 -10.583,-2.78816 9.104,-6.26629 -9.89658,4.66701 2.94726,-10.65021 -4.58554,9.93546 z m 133.84225,33.11467 -0.9801,6.29104 -4.16811,-4.89342 3.29063,5.44893 -6.34061,-1.0721 6.02569,2.05928 -5.5445,3.25521 5.93724,-2.29634 -2.1549,6.05752 3.07489,-5.57277 2.24313,6.02212 -1.23116,-6.24504 5.59032,3.17383 -4.9536,-3.99472 6.31936,-1.16407 -6.36176,0.12735 4.09384,-4.95359 -4.79432,4.18578 -0.0451,-6.42904 z m -1295.69684,-220.23639 -2.17265,18.20794 -12.5076,-13.65417 10.04148,15.34194 -18.35997,-2.42018 17.55688,5.30033 -15.62155,9.94606 16.85272,-7.22159 -5.56921,17.65949 8.2654,-16.36802 7.0837,17.11107 -4.18587,-17.85411 16.42464,8.55554 -14.6837,-10.98634 18.08043,-4.00531 -18.3105,1.02256 11.27645,-14.68736 -13.36758,12.55376 z m 560.688442,308.20317 -2.108882,6.39718 -3.506334,-5.82753 2.494383,6.25567 -6.436055,-2.21143 5.937142,3.19152 -6.351087,2.44141 6.595289,-1.37284 -3.294204,5.95491 4.171738,-5.28973 1.301997,6.67672 -0.20526,-6.73333 5.289856,4.27777 -4.486589,-5.02788 6.803984,-0.12391 -6.669566,-0.96595 5.134057,-4.46528 -5.728446,3.54179 1.057977,-6.71917 z M 895.87774,652.5175 l -1.73359,5.25433 -2.88018,-4.79082 2.04864,5.14111 -5.28259,-1.81866 4.87224,2.62184 -5.2154,2.00267 5.41697,-1.12517 -2.7066,4.8899 3.42834,-4.345 1.0651,5.48431 -0.16669,-5.5303 4.34511,3.51702 -3.68338,-4.12915 5.58678,-0.0991 -5.47708,-0.7961 4.21749,-3.66919 -4.70577,2.912 z"
         style="color:#000000;clip-rule:nonzero;display:inline;overflow:visible;visibility:visible;opacity:0.7;isolation:auto;mix-blend-mode:normal;color-interpolation:sRGB;color-interpolation-filters:linearRGB;solid-color:#000000;solid-opacity:1;fill:#ffffff;fill-opacity:1;fill-rule:nonzero;stroke:none;stroke-width:1;stroke-linecap:butt;stroke-linejoin:miter;stroke-miterlimit:4;stroke-dasharray:none;stroke-dashoffset:0;stroke-opacity:1;color-rendering:auto;image-rendering:auto;shape-rendering:auto;text-rendering:auto;enable-background:accumulate" />
      <text
         sodipodi:linespacing="125%"
         id="text6144-1"
         y="916.62622"
         x="254.3362"
         style="font-style:normal;font-variant:normal;font-weight:normal;font-stretch:normal;font-size:21.6009407px;line-height:125%;font-family:Lato;-inkscape-font-specification:Lato;text-align:center;letter-spacing:0px;word-spacing:0px;text-anchor:middle;display:inline;fill:#ffffff;fill-opacity:1;stroke:none;stroke-width:1px;stroke-linecap:butt;stroke-linejoin:miter;stroke-opacity:1"
         xml:space="preserve"><tspan
           style="font-style:normal;font-variant:normal;font-weight:300;font-stretch:normal;font-family:Lato;-inkscape-font-specification:'Lato Light'"
           y="916.62622"
           x="254.3362"
           id="tspan6146-1"
           sodipodi:role="line">out of this world</tspan></text>
      <g
         style="display:inline;fill:#ffffff"
         id="g7470-1-2"
         transform="matrix(0.46919081,0,0,0.46919081,87.414404,447.88043)">
        <path
           style="color:#000000;clip-rule:nonzero;display:inline;overflow:visible;visibility:visible;opacity:1;isolation:auto;mix-blend-mode:normal;color-interpolation:sRGB;color-interpolation-filters:linearRGB;solid-color:#000000;solid-opacity:1;fill:#ffffff;fill-opacity:1;fill-rule:nonzero;stroke:none;stroke-width:1;stroke-linecap:butt;stroke-linejoin:miter;stroke-miterlimit:4;stroke-dasharray:none;stroke-dashoffset:0;stroke-opacity:1;color-rendering:auto;image-rendering:auto;shape-rendering:auto;text-rendering:auto;enable-background:accumulate"
           d="m 387.59375,169.42383 -80.46289,46.65234 0.17187,93.00977 12.47461,7.17187 c -23.49199,30.81926 -50.19452,50.89969 -79.87304,64.75781 -35.33706,16.50038 -72.89324,21.85931 -104.8418,23.6504 24.00547,5.1289 69.80646,2.60093 109.09961,-9.06836 39.2508,-11.65679 80.2838,-34.06558 115.66016,-77.0918 l 0.01,20.58984 -0.71094,-0.21875 28.81446,16.56446 80.46289,-46.65235 -0.17188,-93.00781 -80.63281,-46.35742 z"
           transform="translate(-197.67863,495.82222)"
           id="path4194-8-2"
           inkscape:connector-curvature="0" />
        <text
           sodipodi:linespacing="125%"
           id="text4200-3-2"
           y="828.3963"
           x="-47.710617"
           style="font-style:normal;font-variant:normal;font-weight:normal;font-stretch:normal;font-size:200.16429138px;line-height:125%;font-family:Lato;-inkscape-font-specification:Lato;text-align:center;letter-spacing:0px;word-spacing:0px;text-anchor:middle;fill:#ffffff;fill-opacity:1;stroke:none;stroke-width:1px;stroke-linecap:butt;stroke-linejoin:miter;stroke-opacity:1"
           xml:space="preserve"><tspan
             style="font-style:normal;font-variant:normal;font-weight:normal;font-stretch:normal;font-size:187.5px;font-family:Michroma;-inkscape-font-specification:Michroma;fill:#ffffff"
             y="828.3963"
             x="-47.710617"
             id="tspan4202-2-7"
             sodipodi:role="line">B</tspan></text>
        <text
           sodipodi:linespacing="125%"
           id="text4204-2-6"
           y="828.3963"
           x="421.63364"
           style="font-style:normal;font-variant:normal;font-weight:normal;font-stretch:normal;font-size:200.16429138px;line-height:125%;font-family:Lato;-inkscape-font-specification:Lato;text-align:center;letter-spacing:0px;word-spacing:0px;text-anchor:middle;fill:#ffffff;fill-opacity:1;stroke:none;stroke-width:1px;stroke-linecap:butt;stroke-linejoin:miter;stroke-opacity:1"
           xml:space="preserve"><tspan
             style="font-style:normal;font-variant:normal;font-weight:normal;font-stretch:normal;font-size:187.5px;font-family:Michroma;-inkscape-font-specification:Michroma;fill:#ffffff"
             y="828.3963"
             x="421.63364"
             id="tspan4206-2-7"
             sodipodi:role="line">X</tspan></text>
        <text
           xml:space="preserve"
           style="font-style:normal;font-variant:normal;font-weight:normal;font-stretch:normal;font-size:80px;line-height:125%;font-family:Lato;-inkscape-font-specification:Lato;text-align:center;letter-spacing:0px;word-spacing:0px;text-anchor:middle;fill:#ffffff;fill-opacity:1;stroke:none;stroke-width:1px;stroke-linecap:butt;stroke-linejoin:miter;stroke-opacity:1"
           x="188.63942"
           y="628.67664"
           id="text4168-5-0"
           sodipodi:linespacing="125%"><tspan
             sodipodi:role="line"
             id="tspan4170-9-7"
             x="193.63942"
             y="628.67664"
             style="font-style:normal;font-variant:normal;font-weight:normal;font-stretch:normal;font-family:Michroma;-inkscape-font-specification:Michroma;letter-spacing:10px;fill:#ffffff">SPACE</tspan></text>
      </g>
    </g>
  </g>
</svg>
