<?xml version="1.0" encoding="UTF-8" standalone="no"?>
<!-- Created with Inkscape (http://www.inkscape.org/) -->

<svg
   xmlns:dc="http://purl.org/dc/elements/1.1/"
   xmlns:cc="http://creativecommons.org/ns#"
   xmlns:rdf="http://www.w3.org/1999/02/22-rdf-syntax-ns#"
   xmlns:svg="http://www.w3.org/2000/svg"
   xmlns="http://www.w3.org/2000/svg"
   xmlns:xlink="http://www.w3.org/1999/xlink"
   xmlns:sodipodi="http://sodipodi.sourceforge.net/DTD/sodipodi-0.dtd"
   xmlns:inkscape="http://www.inkscape.org/namespaces/inkscape"
   width="828"
   height="315"
   viewBox="0 0 827.99997 315"
   id="svg4797"
   version="1.1"
   inkscape:version="0.91 r"
   sodipodi:docname="spacebox_banner.svg"
   inkscape:export-filename="/media/Datos/Dropbox/mergusprojects/spacebox_banner_1500_v2.png"
   inkscape:export-xdpi="163.14279"
   inkscape:export-ydpi="163.14279">
  <defs
     id="defs4799">
    <linearGradient
       inkscape:collect="always"
       id="linearGradient6117">
      <stop
         style="stop-color:#040a22;stop-opacity:1"
         offset="0"
         id="stop6119" />
      <stop
         style="stop-color:#091a51;stop-opacity:1"
         offset="1"
         id="stop6121" />
    </linearGradient>
    <linearGradient
       gradientTransform="matrix(1.8780785,0,0,1.3649256,137.55063,55.188064)"
       inkscape:collect="always"
       xlink:href="#linearGradient6117"
       id="linearGradient6123-8"
       x1="333.75439"
       y1="388.49979"
       x2="333.75439"
       y2="0"
       gradientUnits="userSpaceOnUse" />
  </defs>
  <sodipodi:namedview
     id="base"
     pagecolor="#ffffff"
     bordercolor="#666666"
     borderopacity="1.0"
     inkscape:pageopacity="0"
     inkscape:pageshadow="2"
     inkscape:zoom="0.535"
     inkscape:cx="413.64166"
     inkscape:cy="-55.033357"
     inkscape:document-units="px"
     inkscape:current-layer="layer3"
     showgrid="false"
     fit-margin-top="0"
     fit-margin-left="0"
     fit-margin-right="0"
     fit-margin-bottom="0"
     inkscape:snap-page="true"
     units="px"
     inkscape:window-width="1368"
     inkscape:window-height="713"
     inkscape:window-x="0"
     inkscape:window-y="30"
     inkscape:window-maximized="1" />
  <metadata
     id="metadata4802">
    <rdf:RDF>
      <cc:Work
         rdf:about="">
        <dc:format>image/svg+xml</dc:format>
        <dc:type
           rdf:resource="http://purl.org/dc/dcmitype/StillImage" />
        <dc:title />
      </cc:Work>
    </rdf:RDF>
  </metadata>
  <g
     inkscape:label="bg"
     inkscape:groupmode="layer"
     id="layer1"
     transform="translate(165.42857,-134.86221)" />
  <g
     inkscape:groupmode="layer"
     id="layer2"
     inkscape:label="estrellas"
     style="display:inline">
    <g
       transform="matrix(0.59250014,0,0,0.59250014,-81.498771,-32.698905)"
       id="g4831">
      <rect
         y="55.188103"
         x="137.55064"
         height="531.64545"
         width="1397.468"
         id="rect5503-1"
         style="color:#000000;clip-rule:nonzero;display:inline;overflow:visible;visibility:visible;opacity:1;isolation:auto;mix-blend-mode:normal;color-interpolation:sRGB;color-interpolation-filters:linearRGB;solid-color:#000000;solid-opacity:1;fill:url(#linearGradient6123-8);fill-opacity:1;fill-rule:nonzero;stroke:none;stroke-width:1;stroke-linecap:butt;stroke-linejoin:miter;stroke-miterlimit:4;stroke-dasharray:none;stroke-dashoffset:0;stroke-opacity:1;color-rendering:auto;image-rendering:auto;shape-rendering:auto;text-rendering:auto;enable-background:accumulate" />
      <path
         inkscape:connector-curvature="0"
         id="path5-3"
         d="m 202.24809,280.23296 c -22.86068,0 -44.68232,4.47411 -64.69746,12.52365 l 0,11.08426 c 5.77066,-2.49223 11.69396,-4.69749 17.78376,-6.52172 0.50245,0.69932 0.84137,1.51229 0.93736,2.41232 0.091,0.84381 0.0387,2.40611 -1.1862,3.80729 -0.97559,1.11355 -1.72006,2.40801 -2.4079,3.71845 l -15.12702,28.81018 0,15.80226 c 2.85598,-1.50618 5.26707,-3.82558 6.81948,-6.78382 l 17.11731,-32.61303 c 0.48949,-0.93328 1.02265,-1.84476 1.68366,-2.66555 2.52367,-3.12588 3.70578,-7.09609 3.26974,-11.16421 -0.15012,-1.4025 -0.50087,-2.74213 -0.99968,-4.01165 11.83361,-2.72828 24.15628,-4.17159 36.80695,-4.1716 31.09633,0 60.19237,8.71271 84.98214,23.82558 l -17.37502,-0.48424 c -10.24049,-0.27104 -20.04175,4.42083 -26.22458,12.59029 l -15.70454,20.75576 c -0.55091,0.72746 -0.96125,1.56936 -1.08385,2.47451 -0.30822,2.26676 0.86389,4.35131 2.7766,5.30892 l 16.54865,8.27206 c 0,0 -20.6675,8.47568 -20.85789,8.58309 -3.78174,2.1491 -5.94558,6.38044 -5.33554,10.85767 0.38988,2.8625 2.03282,5.4104 4.31357,7.18366 l 8.94306,6.9571 c 2.84325,2.21303 6.58292,2.85205 10.00029,1.71039 l 19.41851,-6.4684 38.33503,20.03604 c 0.37464,0.19562 0.55433,0.62543 0.43537,1.0307 0,0 -3.41464,11.8053 -3.46968,12.23487 l -48.85075,-8.88072 c -1.03791,-0.18924 -2.10765,-0.0528 -3.06526,0.39094 l -42.59992,19.77838 c -2.52389,1.17235 -3.64664,4.14824 -2.52799,6.69498 l 21.43996,48.81512 c 0.70331,1.60067 2.17657,2.73283 3.90505,2.99875 l 25.20282,3.87838 13.3012,69.1755 c 1.17483,6.10858 6.54245,10.54669 12.76349,10.54669 l 12.06153,0 c 5.68925,0 10.66381,-3.64528 12.3859,-9.06732 l 26.7266,-84.17809 c 1.09453,-3.44678 0.33413,-7.19858 -2.10129,-9.98695 -1.78738,-2.04684 -4.37747,-3.22086 -7.08152,-3.49187 l -4.91791,-0.49311 -8.28092,-31.0448 c 16.86936,22.1164 19.13874,22.1374 21.70199,22.1374 2.24503,0 4.57286,-0.72287 16.04208,-10.36898 4.11544,-3.46086 6.60592,-8.52427 6.83724,-13.89642 0.23133,-5.36962 -1.8165,-10.62988 -5.61986,-14.42952 l -0.10687,-0.10674 18.19251,1.03956 c 1.73347,9.53233 2.64331,19.34539 2.64331,29.36993 0,54.50392 -26.78959,102.84164 -67.86507,132.62449 l 16.53978,0 c 37.61626,-31.93822 61.55214,-79.52406 61.55214,-132.62006 0,-95.93314 -78.04734,-173.9805 -173.98055,-173.9805 z m 95.14234,40.7785 c 2.79867,2.00465 5.52774,4.09638 8.19221,6.26847 l -12.73687,12.23488 -6.4062,-7.39689 c -10e-4,10e-4 10.69382,-10.24605 10.95086,-11.10646 z m -27.81954,3.01206 10.24026,0.28879 -3.95394,3.6518 c -2.02758,1.87297 -2.20182,5.01593 -0.39532,7.10367 l 13.17222,15.21142 c 0.91804,1.05985 2.23411,1.69979 3.63413,1.7637 1.40366,0.0678 2.76479,-0.45125 3.77608,-1.42163 l 17.28608,-16.60638 c 23.02149,21.29307 39.9327,49.09354 47.78008,80.45077 l -28.76145,-1.63487 c -2.1222,-0.12008 -4.0911,1.07645 -4.95772,3.01208 -0.86686,1.93689 -0.44946,4.20908 1.05292,5.70873 l 9.60041,9.59598 c 1.80513,1.8052 2.73863,4.20217 2.62989,6.75274 -0.10916,2.55185 -1.24829,4.86425 -3.20309,6.50838 -4.67021,3.92749 -7.39474,5.98473 -8.93395,7.05482 -3.19879,-3.32406 -10.13587,-11.7882 -20.26264,-25.40271 l 2.95859,-10.08465 c 1.48963,-5.07173 -0.82886,-10.5285 -5.51318,-12.97679 l -40.25412,-21.04454 c -1.23125,-0.64309 -2.66948,-0.75838 -3.98511,-0.31985 l -21.48431,7.15698 c -0.16377,0.0536 -0.34369,0.0244 -0.48427,-0.0844 l -9.2094,-7.16143 c -0.0592,-0.0473 -0.22291,-0.16877 -0.20472,-0.44871 0,-0.15467 0.0728,-0.25466 0.13423,-0.31985 l 30.23629,-12.37705 c 1.85768,-0.76067 3.09666,-2.5344 3.17194,-4.54032 0.0751,-2.00594 -1.0272,-3.86941 -2.82095,-4.7669 l -21.12015,-10.56001 12.08383,-15.9711 c 4.19345,-5.53964 10.87033,-8.72786 17.78807,-8.53867 z m -20.70231,102.7792 45.41655,8.25877 11.33298,42.50222 c 0.54841,2.05708 2.31533,3.56079 4.43366,3.77175 l 8.77862,0.87963 0.11145,0.17333 -26.72205,84.17809 c -0.36688,1.15575 -1.42572,1.93252 -2.63899,1.93252 l -12.06154,0 c -1.327,0 -2.46954,-0.94518 -2.71884,-2.24794 l -13.98539,-72.71178 c -0.40783,-2.12226 -2.10629,-3.75734 -4.24259,-4.08719 l -25.98917,-4.00277 -18.29896,-41.66255 36.58473,-16.98401 z m -111.31795,53.66199 0,10.23572 27.81067,1.11508 1.26603,34.22568 c -5.70652,6.44009 -23.67815,29.86268 -14.91821,60.79233 l 10.73341,0 c -10.80733,-31.70697 11.81884,-54.11402 12.90564,-55.16357 1.05859,-1.01129 1.63203,-2.42468 1.5772,-3.88727 l -1.51942,-41.07614 c -0.0978,-2.66947 -2.23526,-4.81496 -4.90451,-4.92238 l -32.95081,-1.31945 z m 0,99.4295 0,6.93931 6.39732,0 c -2.53914,-2.22306 -4.66089,-4.57743 -6.39732,-6.93931 z"
         style="opacity:0.8;fill:#ffffff" />
      <path
         style="opacity:0.83999999;fill:#ffffff"
         d="m 320.63313,284.4366 c -0.12996,0.25124 -0.38548,0.39537 -0.65013,0.39537 -0.11308,0 -0.22801,-0.0263 -0.33552,-0.0819 -0.84574,-0.43755 -1.61823,-1.00325 -2.2962,-1.68135 -0.67815,-0.67824 -1.24389,-1.45075 -1.68119,-2.29618 -0.18565,-0.35877 -0.0456,-0.79998 0.31342,-0.98557 0.35882,-0.18559 0.8,-0.0452 0.98549,0.3135 0.36827,0.71161 0.84489,1.3624 1.41654,1.93411 0.57147,0.57156 1.22227,1.04812 1.93417,1.41647 0.35865,0.18557 0.49908,0.62687 0.31342,0.98554 z m 1.22498,-3.54584 c -0.50734,-0.23735 -0.96759,-0.56068 -1.36776,-0.96076 -0.4,-0.40027 -0.72355,-0.86059 -0.96118,-1.36819 -0.17131,-0.36575 -0.60659,-0.52337 -0.97249,-0.35208 -0.36574,0.17127 -0.52338,0.60666 -0.35207,0.97247 0.30987,0.66174 0.73097,1.26115 1.25148,1.78201 0.52084,0.52067 1.1205,0.94177 1.7821,1.25134 0.0996,0.0469 0.20574,0.0692 0.30954,0.0692 0.27511,0 0.53857,-0.15595 0.66295,-0.42157 0.17097,-0.36581 0.0169,-0.8011 -0.35257,-0.97231 z m 18.91493,-17.53716 c -0.2854,-0.28562 -0.74852,-0.28554 -1.03409,0 l -5.1897,5.18965 c -0.28557,0.28559 -0.28557,0.74859 0,1.03419 0.14346,0.14296 0.32995,0.21421 0.51713,0.21421 0.18717,0 0.37434,-0.0714 0.51713,-0.21421 l 5.18953,-5.18963 c 0.28574,-0.28561 0.28574,-0.74859 0,-1.03421 z m 10.0773,10.74111 0,0 -1.33975,1.3398 c -10e-4,0.001 0,0.003 0,0.005 -10e-4,0.001 0,0.003 0,0.005 l -2.86717,2.86702 c -5.1e-4,6.6e-4 -10e-4,10e-4 0,0.003 -6.7e-4,6.6e-4 -10e-4,0.001 0,0.003 l -1.34143,1.34156 c -1.05148,1.05151 -2.76254,1.05142 -3.81401,0 l -2.78009,-2.78002 c -0.50784,-0.50785 -0.78751,-1.18503 -0.78751,-1.90699 0,-0.72194 0.27967,-1.39914 0.78751,-1.90698 l 0.8265,-0.82637 -1.44489,-1.44479 -1.75308,1.75291 c -1.30717,1.307 -3.43376,1.30684 -4.74076,0 l -0.40962,-0.40962 -1.53519,1.53517 c 0.3654,0.78127 0.55781,1.63988 0.55781,2.52795 0,1.59546 -0.62127,3.09543 -1.74954,4.22366 -0.11308,0.1141 -0.23629,0.22672 -0.36321,0.33445 -0.13333,0.11274 -0.30092,0.17381 -0.47324,0.17381 -0.0304,0 -0.0625,-0.003 -0.0928,-0.005 -0.20388,-0.026 -0.38734,-0.13671 -0.50549,-0.30471 -0.33856,-0.48128 -0.69941,-0.95962 -1.08101,-1.43301 -1.31274,0.9944 -3.19645,0.89323 -4.39291,-0.30317 -1.19662,-1.19673 -1.29772,-3.08032 -0.30329,-4.39293 -0.47342,-0.38158 -0.95156,-0.74234 -1.43291,-1.08109 -0.16878,-0.11815 -0.27865,-0.30164 -0.30464,-0.50542 -0.027,-0.20378 0.0354,-0.40913 0.16709,-0.56579 0.10801,-0.12726 0.22076,-0.24969 0.33519,-0.36395 1.1281,-1.1279 2.62767,-1.74893 4.22312,-1.74893 0.8881,0 1.74666,0.19256 2.52793,0.55781 l 1.53536,-1.53507 -0.40979,-0.40971 c -1.30701,-1.30707 -1.30701,-3.43379 0,-4.74086 l 1.75308,-1.75301 -1.4449,-1.44481 -0.82633,0.82646 c -1.05147,1.05145 -2.76236,1.05145 -3.814,0 l -2.78009,-2.78016 c -0.50784,-0.50777 -0.78751,-1.18503 -0.78751,-1.90691 0,-0.72197 0.27967,-1.39924 0.78751,-1.907 l 4.21148,-4.21154 c 0,-0.001 0,-0.005 0,-0.005 0,-0.001 0,-0.005 0,-0.005 l 1.33873,-1.33877 c 0.50785,-0.50786 1.18515,-0.78746 1.90701,-0.78746 0.72202,0 1.39932,0.27968 1.907,0.78755 l 2.77992,2.77998 c 1.05147,1.05146 1.05147,2.76245 0,3.81391 l -0.82633,0.82643 1.44489,1.44482 1.75291,-1.75293 c 0.63106,-0.6311 1.47274,-0.97871 2.3703,-0.97871 0.14683,0 0.2913,0.0101 0.43409,0.0275 l 0.94785,-0.94777 c 1.04489,-1.04487 2.74109,-1.05127 3.79426,-0.0196 0.0354,-0.0795 0.0861,-0.15393 0.15021,-0.21908 0.28574,-0.2856 0.74869,-0.2856 1.03426,0 l 0.40962,0.40952 0.47038,-0.47038 c 0.28557,-0.28562 0.74852,-0.28562 1.03409,0 0.28574,0.28562 0.28574,0.74863 0,1.03421 l -0.47038,0.47042 0.40962,0.40969 c 0.28574,0.28562 0.28574,0.7486 0,1.03421 -0.0658,0.0651 -0.14008,0.11544 -0.21924,0.15105 0.49553,0.50555 0.7681,1.17463 0.7681,1.88714 0,0.72189 -0.27983,1.39916 -0.78768,1.907 l -0.94767,0.9477 c 0.0186,0.14295 0.027,0.2878 0.027,0.43421 0,0.89749 -0.34768,1.73929 -0.97873,2.37041 l -1.75292,1.75291 1.4449,1.44483 0.82633,-0.82648 c 0.50785,-0.50783 1.18498,-0.78744 1.907,-0.78744 0.72186,0 1.39916,0.27969 1.90701,0.78754 l 2.77991,2.78 c 0.50785,0.50776 0.78768,1.18503 0.78768,1.90699 0,0.72197 -0.27966,1.39914 -0.78768,1.90698 z m -6.38616,-4.7334 1.74548,1.7456 1.69925,-1.69927 -0.87275,-0.87286 c -0.23156,-0.23158 -0.5416,-0.35907 -0.87274,-0.35907 -0.33131,0 -0.64118,0.12742 -0.87274,0.35907 l -0.8265,0.82653 z m -1.03426,1.03423 -1.83865,1.83863 1.74565,1.74555 1.83865,-1.83867 -1.74565,-1.74551 z m -3.84321,-14.08778 c 0.15696,0.11055 0.30616,0.23561 0.4449,0.37433 l 3.70649,3.70656 c 0.1384,0.13857 0.26363,0.28739 0.37418,0.44471 l 0.49047,-0.49053 c 0.23156,-0.23166 0.35915,-0.54165 0.35915,-0.87286 0,-0.33119 -0.12827,-0.64118 -0.35915,-0.87276 l -2.77992,-2.78008 c -0.48135,-0.4812 -1.26447,-0.48113 -1.74565,0 l -0.49047,0.49063 z m -10.27358,-2.09738 1.74565,1.74553 0.8265,-0.82638 c 0.48118,-0.48126 0.48118,-1.26432 0,-1.74553 l -0.87291,-0.87283 -1.69924,1.69921 z m -2.77992,-2.77992 1.74583,1.74569 1.69924,-1.69921 -0.87308,-0.87301 c -0.23156,-0.23158 -0.54144,-0.35907 -0.87275,-0.35907 -0.3313,0 -0.64118,0.12759 -0.87274,0.35914 l -0.8265,0.82646 z m -2.87274,2.87288 1.74566,1.74568 1.83865,-1.83854 -1.74566,-1.74579 -1.83865,1.83865 z m 0.71156,2.77983 -1.74582,-1.74561 -0.82633,0.82637 c -0.23173,0.23166 -0.35915,0.54155 -0.35915,0.87277 0,0.33119 0.12827,0.6411 0.35915,0.87268 l 0.87291,0.87301 1.69924,-1.69922 z m 2.77975,2.77991 -1.74565,-1.7456 -1.69924,1.69921 0.87291,0.87294 c 0.48118,0.4811 1.26413,0.4811 1.74548,0 l 0.8265,-0.82655 z m 1.03426,-1.03422 1.83848,-1.83864 -1.74548,-1.74563 -1.83865,1.83858 1.74565,1.74569 z m 2.47899,2.47903 1.83865,-1.83863 -1.4449,-1.44483 -1.83865,1.83865 1.4449,1.44481 z m -5.68135,16.7576 c -0.40709,-0.4572 -0.83308,-0.90844 -1.27679,-1.35215 -0.44355,-0.44368 -0.89486,-0.86979 -1.35207,-1.27688 -0.50886,0.73604 -0.43612,1.75563 0.21856,2.41031 0.65469,0.65465 1.67427,0.72746 2.4103,0.21872 z m 3.75105,-1.86962 c 0,-1.20477 -0.4692,-2.33747 -1.32118,-3.18928 -0.85181,-0.85195 -1.98447,-1.32113 -3.18936,-1.32113 -1.06296,0 -2.06971,0.36516 -2.87697,1.03618 1.16254,0.87268 2.30127,1.86483 3.39393,2.95746 1.09299,1.09304 2.08506,2.23169 2.95746,3.39389 0.67106,-0.80753 1.03612,-1.8142 1.03612,-2.87712 z m 1.40574,-5.0973 -0.81873,-0.81875 -1.30262,1.30262 c 0.14852,0.12236 0.29114,0.2523 0.42869,0.38994 0.1384,0.13755 0.26768,0.28074 0.38988,0.42888 l 1.30278,-1.30269 z m 10.28827,-4.72843 c 0.002,-10e-4 0,-0.005 0,-0.005 0.002,-10e-4 0,-0.005 0,-0.005 l 2.26515,-2.2651 c 0.35493,-0.35492 0.55037,-0.82936 0.55037,-1.33617 0,-0.15915 -0.0202,-0.31519 -0.0574,-0.46535 0,-0.0169 -0.0169,-0.0322 -0.0169,-0.0488 -0.0861,-0.30876 -0.24945,-0.5908 -0.48067,-0.82215 l -3.7065,-3.70656 c -0.23088,-0.23092 -0.51257,-0.39433 -0.82076,-0.48037 -0.0169,-0.005 -0.0354,-0.008 -0.0523,-0.0152 -0.15021,-0.0371 -0.30498,-0.0562 -0.46363,-0.0562 -0.50666,0 -0.98109,0.19541 -1.33603,0.55034 0,0 0,0 0,0 l -2.26599,2.26606 c -0.001,0.001 0,0.003 0,0.005 -0.001,0.001 0,0.003 0,0.005 l -2.86346,2.86336 c 0,0.003 0,0.005 0,0.005 0,0.003 0,0.005 0,0.005 l -2.26464,2.26461 c -0.73671,0.73674 -0.73671,1.93556 0,2.67242 l 0.91747,0.91737 c 0,0.005 0,0.005 0.0169,0.0101 0,0.005 0,0.005 0.0169,0.0101 l 1.84034,1.84027 c 0.001,0.001 0,0.003 0,0.005 0.001,0.001 0,0.003 0,0.005 l 0.92337,0.92347 c 0.73671,0.73685 1.9357,0.73666 2.67241,0 l 2.26295,-2.26288 c 0,-0.003 0,-0.005 0,-0.007 0,-0.003 0,-0.005 0,-0.007 l 2.86059,-2.86093 z m 0.12827,4.82982 1.83865,-1.83865 -1.44473,-1.44481 -1.83882,1.83866 1.4449,1.4448 z m 1.74565,3.81406 -1.74565,-1.74554 -0.8265,0.82638 c -0.23156,0.23165 -0.35916,0.54157 -0.35916,0.87276 0,0.33121 0.12827,0.6412 0.35916,0.87278 l 0.87291,0.87284 1.69924,-1.69922 z m 2.77992,2.77994 -1.74566,-1.7458 -1.69924,1.69929 0.87291,0.87301 c 0.48119,0.48122 1.26431,0.48113 1.74566,0 l 0.82633,-0.8265 z m 2.87291,-2.87281 -1.74583,-1.74578 -1.83864,1.83865 1.74582,1.7457 1.83865,-1.83857 z m 2.21991,-2.73346 c 0,-0.33118 -0.12827,-0.64118 -0.35915,-0.87275 l -0.87291,-0.87301 -1.69941,1.69929 1.74582,1.74579 0.8265,-0.82645 0,0 c 0.23156,-0.23176 0.35915,-0.54165 0.35915,-0.87287 z"
         id="XMLID_2250_-0"
         inkscape:connector-curvature="0" />
      <path
         inkscape:connector-curvature="0"
         id="path5-1-1"
         d="m 1137.7119,55.188081 c -9.27,11.64825 -8.5337,28.699267 2.2383,39.471247 5.6091,5.609132 13.0689,8.695952 21.0015,8.695952 7.9325,0 15.3891,-3.08682 20.9982,-8.695952 10.7716,-10.772183 11.5081,-27.823166 2.2381,-39.471247 l -2.2778,0 c 3.1171,3.532995 5.1987,7.664386 6.2236,12.002241 -1.4835,5.204742 -3.7163,10.011154 -6.6422,14.289955 -0.2722,0.397822 -0.1704,0.940945 0.2274,1.21308 0.1502,0.102953 0.3249,0.151561 0.4945,0.151561 0.2785,0 0.5495,-0.131815 0.7186,-0.379089 2.4044,-3.5161 4.357,-7.376066 5.8281,-11.507778 0.7721,8.028404 -1.9081,16.329785 -8.0432,22.465058 -2.5492,2.54913 -5.5076,4.544033 -8.7224,5.926952 3.8722,-2.552843 7.468,-5.718074 10.598,-9.365111 0.3139,-0.365755 0.2734,-0.919055 -0.093,-1.232861 -0.366,-0.314261 -0.9188,-0.270379 -1.2327,0.09553 -4.4149,5.143627 -10.4937,9.745314 -16.4986,12.503281 -1.2555,0.17045 -2.5284,0.26043 -3.8173,0.26043 -0.9065,0 -1.8087,-0.0437 -2.6998,-0.12861 3.9149,-1.38422 7.6376,-3.250513 11.1025,-5.570934 0.4006,-0.268203 0.5088,-0.809333 0.2405,-1.209789 -0.2682,-0.400439 -0.8088,-0.509063 -1.2098,-0.240641 -4.2827,2.868168 -8.9735,5.018665 -13.9404,6.391744 -1.0976,-0.26034 -2.1744,-0.58864 -3.2272,-0.979037 0.8884,-0.212557 1.773,-0.452607 2.6469,-0.721907 0.4608,-0.142109 0.719,-0.63043 0.5769,-1.091122 -0.1418,-0.460455 -0.6306,-0.718481 -1.0912,-0.57686 -1.6158,0.498008 -3.2683,0.892725 -4.9149,1.183409 -2.5397,-1.274025 -4.8915,-2.947679 -6.9818,-4.984185 0.9936,-0.195527 1.9828,-0.415595 2.957,-0.669164 0.4665,-0.121351 0.7478,-0.598177 0.6263,-1.064743 -0.1215,-0.466565 -0.5973,-0.747645 -1.0648,-0.626312 -1.3004,0.338262 -2.6307,0.624203 -3.959,0.853772 -2.267,-2.560033 -3.9833,-5.44091 -5.149,-8.484977 1.7117,-0.438413 3.4142,-0.969518 5.0732,-1.58886 0.4515,-0.168439 0.6797,-0.672574 0.5109,-1.124084 -0.1687,-0.451511 -0.6697,-0.683156 -1.1208,-0.514245 -1.6464,0.614734 -3.3377,1.142684 -5.0368,1.572388 -0.371,-1.187173 -0.6611,-2.394278 -0.8704,-3.61286 3.7843,-1.222953 7.4171,-2.888202 10.8058,-4.970986 0.4106,-0.252489 0.5392,-0.789181 0.2867,-1.199898 -0.2527,-0.410481 -0.789,-0.539274 -1.1998,-0.286785 -3.1826,1.956202 -6.5899,3.532961 -10.1366,4.703982 -0.173,-1.611831 -0.2081,-3.235696 -0.1012,-4.85232 1.8143,-0.783662 3.5718,-1.680185 5.2282,-2.666801 0.4138,-0.246599 0.55,-0.782413 0.3032,-1.196607 -0.2467,-0.414211 -0.7824,-0.550076 -1.1966,-0.303257 -1.3183,0.784962 -2.7021,1.511274 -4.1304,2.165738 0.244,-1.773536 0.6557,-3.529282 1.2394,-5.238008 2.8203,-1.65875 5.7487,-3.859239 8.1158,-6.022547 0.356,-0.325147 0.3811,-0.876911 0.056,-1.232843 -0.3254,-0.356152 -0.8771,-0.381502 -1.2329,-0.05603 -1.8331,1.675122 -3.7912,3.204438 -5.8346,4.565535 1.103,-2.368438 2.5754,-4.602902 4.3776,-6.645568 l -2.2876,0 z m 13.6604,0 c -2.1223,2.72783 -4.5374,5.252572 -7.1927,7.466378 -0.3701,0.308793 -0.4209,0.85924 -0.1114,1.229569 0.1725,0.207105 0.4224,0.313147 0.6724,0.313147 0.197,0 0.3936,-0.06481 0.5571,-0.20108 3.0971,-2.582092 5.8917,-5.564184 8.2773,-8.808014 l -2.202,0 z m 8.4652,0 c -1.786,3.407374 -4.3869,6.701112 -7.928,10.030984 -0.351,0.330397 -0.3665,0.885047 -0.035,1.236169 0.1718,0.182667 0.4039,0.273586 0.6363,0.273586 0.2143,0 0.4282,-0.07882 0.5966,-0.237333 3.9619,-3.725839 6.8002,-7.428994 8.6829,-11.303406 l -1.9516,0 z m 6.5929,0 c -1.0024,2.199105 -2.1492,4.332083 -3.481,6.368673 -0.264,0.403494 -0.1536,0.945958 0.2504,1.209789 0.1469,0.09654 0.3141,0.141772 0.478,0.141772 0.2847,0 0.5642,-0.139578 0.7318,-0.395561 1.5283,-2.336725 2.8459,-4.783729 3.9556,-7.32464 l -1.9348,0 z m 12.5131,0 c -0.398,1.760995 -0.8611,3.513602 -1.4637,5.231408 -0.1586,0.454784 0.079,0.954447 0.534,1.114193 0.096,0.03359 0.1943,0.04945 0.2902,0.04945 0.3603,0 0.6982,-0.224051 0.8241,-0.583477 0.6689,-1.906447 1.1902,-3.854463 1.6152,-5.811576 l -1.7998,0 z m -57.0807,2.614058 c -2.8437,0 -5.1556,2.315156 -5.1556,5.158885 0,2.843746 2.3119,5.155594 5.1556,5.155594 2.8437,0 5.1588,-2.311848 5.1588,-5.155594 0,-2.843729 -2.3151,-5.158885 -5.1588,-5.158885 z m 0,1.747105 c 1.8812,0 3.4118,1.530666 3.4118,3.41178 0,1.88113 -1.5306,3.411796 -3.4118,3.411796 -1.8812,0 -3.4118,-1.530666 -3.4118,-3.411796 0,-1.881114 1.5306,-3.41178 3.4118,-3.41178 z m 53.6359,6.899391 c -0.3389,-0.02819 -0.6759,0.144472 -0.8439,0.464793 -0.7827,1.493333 -1.6556,2.965248 -2.591,4.374345 -3.3541,5.051762 -7.4959,9.323491 -12.3087,12.691187 -0.3953,0.276489 -0.4908,0.818092 -0.2143,1.21308 0.1697,0.242666 0.4401,0.372489 0.7152,0.372489 0.1727,0 0.3491,-0.05165 0.5011,-0.158144 4.9929,-3.4934 9.2854,-7.918276 12.7605,-13.152688 0.9685,-1.459089 1.8726,-2.983122 2.6832,-4.529265 0.2237,-0.427072 0.057,-0.953147 -0.3691,-1.176827 -0.1063,-0.05587 -0.2201,-0.08945 -0.333,-0.0989 z m -16.5217,0.748287 c -0.2229,0.0135 -0.443,0.11308 -0.6032,0.293383 -0.8811,0.991848 -1.8224,1.961688 -2.7986,2.884354 -0.3502,0.331274 -0.3642,0.88238 -0.032,1.232861 0.1718,0.181772 0.4012,0.273603 0.6329,0.273603 0.2151,0 0.4316,-0.07781 0.6,-0.23735 1.0132,-0.957367 1.9896,-1.966616 2.9042,-2.996438 0.3203,-0.360523 0.2879,-0.912726 -0.073,-1.232861 -0.1803,-0.16 -0.4068,-0.2307 -0.6297,-0.217552 z m 9.3356,0.118649 c -0.2203,0.03781 -0.4279,0.159325 -0.5671,0.356017 -6.5568,9.276892 -15.7771,16.083996 -25.9658,19.171928 -0.4614,0.139915 -0.7233,0.629789 -0.5834,1.091122 0.1148,0.377097 0.4594,0.619713 0.8339,0.619713 0.084,0 0.1695,-0.0135 0.2539,-0.03949 10.5584,-3.199881 20.109,-10.245347 26.8889,-19.837801 0.2781,-0.393687 0.1826,-0.938126 -0.211,-1.216371 -0.1968,-0.139072 -0.4292,-0.18292 -0.6494,-0.144979 z m -18.6248,0.240642 c -0.2225,-0.0189 -0.4522,0.04574 -0.6362,0.20108 -0.725,0.611257 -1.486,1.234902 -2.324,1.902025 -0.3772,0.300286 -0.4387,0.849181 -0.1384,1.226278 0.1722,0.216472 0.4255,0.329637 0.6824,0.329637 0.1905,0 0.3833,-0.06329 0.5439,-0.19119 0.8508,-0.677384 1.6228,-1.309738 2.3602,-1.931696 0.3686,-0.310751 0.4165,-0.860978 0.1046,-1.229569 -0.1552,-0.184084 -0.3708,-0.287662 -0.5932,-0.306565 z m 34.3718,1.789957 c -0.3403,-1.01e-4 -0.6637,0.200894 -0.8044,0.534008 -0.1654,0.389317 -0.3379,0.781789 -0.5143,1.170228 -0.1995,0.439088 0,0.957586 0.4351,1.157046 0.1165,0.05333 0.2387,0.07916 0.3594,0.07916 0.3316,0 0.6482,-0.192574 0.7944,-0.514245 0.1829,-0.402194 0.3634,-0.809569 0.534,-1.213079 0.188,-0.443882 -0.02,-0.95595 -0.4648,-1.143848 -0.1114,-0.04692 -0.226,-0.0692 -0.3394,-0.0692 z m -1.9813,4.308404 c -0.3381,-0.03612 -0.6781,0.128945 -0.8537,0.445013 -1.1932,2.150632 -2.5573,4.241652 -4.0546,6.217044 -5.5057,7.265484 -12.5789,12.787778 -20.451,15.967811 -0.4471,0.180692 -0.6616,0.690346 -0.4812,1.137265 0.1367,0.34 0.4623,0.547207 0.8076,0.547207 0.108,0 0.2228,-0.02278 0.3296,-0.06599 8.1644,-3.298311 15.49,-9.01485 21.1862,-16.531506 1.547,-2.04108 2.9563,-4.201822 4.1897,-6.424707 0.2337,-0.421604 0.083,-0.952776 -0.3396,-1.186717 -0.1046,-0.0584 -0.2203,-0.0935 -0.333,-0.105486 z m -29.104,14.441583 c -0.113,0.0051 -0.2273,0.03089 -0.3362,0.08236 -1.0531,0.500168 -2.1368,0.963932 -3.2205,1.377907 -0.4503,0.172185 -0.6733,0.677164 -0.5011,1.127375 0.1333,0.347848 0.4629,0.560388 0.8141,0.560388 0.103,0 0.2073,-0.01688 0.3099,-0.05603 1.1261,-0.430346 2.255,-0.914109 3.3492,-1.43394 0.4356,-0.20687 0.6189,-0.724979 0.412,-1.160338 -0.1553,-0.326362 -0.4874,-0.512405 -0.8274,-0.497755 z"
         style="opacity:0.7;fill:#ffffff" />
      <path
         inkscape:connector-curvature="0"
         id="path5-6-7"
         d="m 1529.9224,297.4942 c -17.3348,0 -31.4379,14.10303 -31.4379,31.43788 0,17.33483 14.1031,31.43459 31.4379,31.43459 1.7386,0 3.4336,-0.17892 5.0962,-0.45161 l 0,-3.88977 c -1.654,0.31089 -3.3532,0.49446 -5.0962,0.49446 -15.2121,0 -27.5876,-12.37571 -27.5876,-27.58767 0,-1.8665 0.189,-3.69198 0.5439,-5.45556 l 27.0437,0 0,-3.85021 -25.9724,0 c 0.4189,-1.16589 0.9144,-2.29451 1.4801,-3.38212 l 20.7707,0 0,-3.85021 -18.3479,0 c 5.0375,-6.70637 13.0552,-11.05288 22.0695,-11.05288 1.7425,0 3.4426,0.18066 5.0962,0.49117 l 0,-3.88648 c -1.6626,-0.27274 -3.3576,-0.45159 -5.0962,-0.45159 z m -8.5343,46.83543 0,3.8469 13.6305,0 0,-3.8469 -13.6305,0 z m -24.466,7.32791 c -5.1487,0 -9.3387,4.19016 -9.3387,9.33875 0,5.14858 4.19,9.33544 9.3387,9.33544 5.1485,0 9.3354,-4.18659 9.3354,-9.33544 0,-5.14884 -4.1869,-9.33875 -9.3354,-9.33875 z m 0,3.85021 c 3.0258,0 5.4852,2.46257 5.4852,5.48854 0,3.02596 -2.4594,5.48523 -5.4852,5.48523 -3.0263,0 -5.4886,-2.45927 -5.4886,-5.48523 0,-3.02597 2.4626,-5.48854 5.4886,-5.48854 z"
         style="opacity:0.75;fill:#ffffff" />
      <path
         sodipodi:nodetypes="cccccccccccccccccccccccccccccccccccccccccccccccccccccccccccccccccccccccccccccccccccccccccccccccccccccccccccccccccccccccccccccccccccccccccccccccccccccccccccccccccccccccccccccccccccccccccccccccc"
         inkscape:connector-curvature="0"
         id="rect4465-0"
         d="m 902.80631,118.16606 -2.0076,9.09151 -5.63679,-7.52243 4.30835,8.25422 -9.15746,-2.14266 8.60708,3.55682 -8.38953,4.24577 8.8773,-2.80854 -3.69857,8.64321 4.9973,-7.85536 2.72287,8.99921 -1.22295,-9.22996 7.87189,5.14241 -6.87308,-6.28626 9.33553,-1.11748 -9.30261,-0.39887 6.43139,-6.85983 -7.38076,5.67642 z m -516.62367,68.31814 -2.46245,10.15954 -6.15443,-8.57726 4.64135,9.3684 -10.22869,-2.61735 9.57924,4.19305 -9.51662,4.56882 10.03088,-2.94369 -4.35443,9.61893 5.79173,-8.70584 2.8481,10.16615 -1.15713,-10.3903 8.71578,5.95663 -7.56523,-7.21585 10.50565,-1.03838 -10.43308,-0.66258 7.38059,-7.55207 -8.41907,6.20054 z m 96.44318,5.0666 -1.68776,4.18643 -2.09334,-4.04798 1.40101,4.29193 -4.20624,-1.757 3.82717,2.3866 -4.35122,1.36142 4.46987,-0.63291 -2.45907,3.83702 3.0162,-3.35574 0.58346,4.51937 0.15528,-4.50948 3.3524,3.08874 -2.78211,-3.55684 4.55224,0.21428 -4.41722,-0.93619 3.62616,-2.76569 -3.98531,2.12289 z m -21.06092,23.12762 -2.61722,5.94013 -2.82177,-5.91706 1.80962,6.23352 -5.96321,-2.71954 5.39308,3.60958 -6.31932,1.75038 6.45434,-0.69883 -3.71493,5.39952 4.4962,-4.6842 0.62633,6.52689 0.42852,-6.47744 4.67443,4.59519 -3.83055,-5.23799 6.5335,0.51754 -6.30278,-1.54932 5.33705,-3.80736 -5.82481,2.86459 z m 780.9696,6.94224 -3.5073,12.15058 -6.9918,-10.68696 5.1227,11.5605 -12.2263,-3.69198 11.3593,5.56435 -11.7384,5.03033 12.2758,-3.03929 -5.7588,11.39898 7.4498,-10.21886 2.9141,12.43405 -0.8605,-12.61866 10.2255,7.65097 -8.7684,-9.11128 12.7505,-0.71203 -12.5758,-1.34164 9.3124,-8.74209 -10.4991,7.05433 z m 52.4987,121.50578 2.68,9.83649 -9.2958,-4.43038 8.3762,5.81487 -9.9685,2.58109 10.1531,-0.92958 -5.9765,8.38607 7.1829,-7.23892 0.811,10.26172 0.8471,-10.15954 7.2192,7.34111 -5.8808,-8.32673 10.2486,0.98233 -9.8596,-2.59757 8.4817,-5.83796 -9.2201,4.34799 2.7458,-9.92221 -4.2721,9.25632 z m 124.6935,30.85112 -0.9131,5.86102 -3.8832,-4.55893 3.0657,5.07647 -5.9072,-0.99882 5.6138,1.91852 -5.1655,3.0327 5.5314,-2.13937 -2.0076,5.64346 2.8647,-5.19185 2.0898,5.61048 -1.147,-5.81816 5.2082,2.95688 -4.615,-3.72166 5.8874,-1.0845 -5.9269,0.11865 3.814,-4.61499 -4.4666,3.89966 -0.042,-5.98958 z M 212.59686,94.26375 l -2.02414,16.96334 -11.65265,-12.720843 9.3551,14.293243 -17.10498,-2.25475 16.35679,4.93803 -14.55375,9.2662 15.70076,-6.72796 -5.18853,16.45238 7.70042,-15.24919 6.5995,15.94145 -3.89975,-16.6337 15.30194,7.97073 -13.68,-10.23537 16.84455,-3.73153 -17.05889,0.95266 10.50565,-13.683408 -12.45384,11.695658 z m 522.36274,380.30055 -1.96473,5.95991 -3.26666,-5.42919 2.32388,5.82806 -5.99612,-2.06027 5.53131,2.97337 -5.91696,2.27453 6.14447,-1.279 -3.06903,5.54786 3.88658,-4.92815 1.213,6.22033 -0.19123,-6.27307 4.92827,3.98536 -4.17991,-4.6842 6.3389,-0.11544 -6.21367,-0.89992 4.78312,-4.16006 -5.33688,3.29969 0.98566,-6.25988 z m 769.6001,-358.81453 -1.6151,4.89517 -2.6833,-4.46334 1.9086,4.78969 -4.9215,-1.69435 4.5392,2.44263 -4.8589,1.86578 5.0467,-1.04826 -2.5216,4.55565 3.194,-4.048 0.9923,5.10943 -0.1553,-5.15228 4.0481,3.27662 -3.4316,-3.8469 5.2049,-0.0923 -5.1027,-0.74169 3.9292,-3.41838 -4.3841,2.71295 z"
         style="color:#000000;clip-rule:nonzero;display:inline;overflow:visible;visibility:visible;opacity:0.7;isolation:auto;mix-blend-mode:normal;color-interpolation:sRGB;color-interpolation-filters:linearRGB;solid-color:#000000;solid-opacity:1;fill:#ffffff;fill-opacity:1;fill-rule:nonzero;stroke:none;stroke-width:1;stroke-linecap:butt;stroke-linejoin:miter;stroke-miterlimit:4;stroke-dasharray:none;stroke-dashoffset:0;stroke-opacity:1;color-rendering:auto;image-rendering:auto;shape-rendering:auto;text-rendering:auto;enable-background:accumulate" />
      <text
         sodipodi:linespacing="125%"
         id="text6144-1"
         y="492.17737"
         x="983.43268"
         style="font-style:normal;font-variant:normal;font-weight:normal;font-stretch:normal;font-size:27.42615318px;line-height:125%;font-family:Lato;-inkscape-font-specification:Lato;text-align:center;letter-spacing:0px;word-spacing:0px;text-anchor:middle;display:inline;fill:#ffffff;fill-opacity:1;stroke:none;stroke-width:1px;stroke-linecap:butt;stroke-linejoin:miter;stroke-opacity:1"
         xml:space="preserve"><tspan
           style="font-style:normal;font-variant:normal;font-weight:300;font-stretch:normal;font-family:Lato;-inkscape-font-specification:'Lato Light'"
           y="492.17737"
           x="983.43268"
           id="tspan6146-1"
           sodipodi:role="line">out of this world</tspan></text>
      <g
         style="display:inline;fill:#ffffff"
         id="g7470-1-2"
         transform="matrix(0.7543974,0,0,0.7543974,689.71606,-233.63662)">
        <path
           style="color:#000000;clip-rule:nonzero;display:inline;overflow:visible;visibility:visible;opacity:1;isolation:auto;mix-blend-mode:normal;color-interpolation:sRGB;color-interpolation-filters:linearRGB;solid-color:#000000;solid-opacity:1;fill:#ffffff;fill-opacity:1;fill-rule:nonzero;stroke:none;stroke-width:1;stroke-linecap:butt;stroke-linejoin:miter;stroke-miterlimit:4;stroke-dasharray:none;stroke-dashoffset:0;stroke-opacity:1;color-rendering:auto;image-rendering:auto;shape-rendering:auto;text-rendering:auto;enable-background:accumulate"
           d="m 387.59375,169.42383 -80.46289,46.65234 0.17187,93.00977 12.47461,7.17187 c -23.49199,30.81926 -50.19452,50.89969 -79.87304,64.75781 -35.33706,16.50038 -72.89324,21.85931 -104.8418,23.6504 24.00547,5.1289 69.80646,2.60093 109.09961,-9.06836 39.2508,-11.65679 80.2838,-34.06558 115.66016,-77.0918 l 0.01,20.58984 -0.71094,-0.21875 28.81446,16.56446 80.46289,-46.65235 -0.17188,-93.00781 -80.63281,-46.35742 z"
           transform="translate(-197.67863,495.82222)"
           id="path4194-8-2"
           inkscape:connector-curvature="0" />
        <text
           sodipodi:linespacing="125%"
           id="text4200-3-2"
           y="828.3963"
           x="-47.710617"
           style="font-style:normal;font-variant:normal;font-weight:normal;font-stretch:normal;font-size:200.16429138px;line-height:125%;font-family:Lato;-inkscape-font-specification:Lato;text-align:center;letter-spacing:0px;word-spacing:0px;text-anchor:middle;fill:#ffffff;fill-opacity:1;stroke:none;stroke-width:1px;stroke-linecap:butt;stroke-linejoin:miter;stroke-opacity:1"
           xml:space="preserve"><tspan
             style="font-style:normal;font-variant:normal;font-weight:normal;font-stretch:normal;font-size:187.5px;font-family:Michroma;-inkscape-font-specification:Michroma;fill:#ffffff"
             y="828.3963"
             x="-47.710617"
             id="tspan4202-2-7"
             sodipodi:role="line">B</tspan></text>
        <text
           sodipodi:linespacing="125%"
           id="text4204-2-6"
           y="828.3963"
           x="421.63364"
           style="font-style:normal;font-variant:normal;font-weight:normal;font-stretch:normal;font-size:200.16429138px;line-height:125%;font-family:Lato;-inkscape-font-specification:Lato;text-align:center;letter-spacing:0px;word-spacing:0px;text-anchor:middle;fill:#ffffff;fill-opacity:1;stroke:none;stroke-width:1px;stroke-linecap:butt;stroke-linejoin:miter;stroke-opacity:1"
           xml:space="preserve"><tspan
             style="font-style:normal;font-variant:normal;font-weight:normal;font-stretch:normal;font-size:187.5px;font-family:Michroma;-inkscape-font-specification:Michroma;fill:#ffffff"
             y="828.3963"
             x="421.63364"
             id="tspan4206-2-7"
             sodipodi:role="line">X</tspan></text>
        <text
           xml:space="preserve"
           style="font-style:normal;font-variant:normal;font-weight:normal;font-stretch:normal;font-size:80px;line-height:125%;font-family:Lato;-inkscape-font-specification:Lato;text-align:center;letter-spacing:0px;word-spacing:0px;text-anchor:middle;fill:#ffffff;fill-opacity:1;stroke:none;stroke-width:1px;stroke-linecap:butt;stroke-linejoin:miter;stroke-opacity:1"
           x="188.63942"
           y="628.67664"
           id="text4168-5-0"
           sodipodi:linespacing="125%"><tspan
             sodipodi:role="line"
             id="tspan4170-9-7"
             x="193.63942"
             y="628.67664"
             style="font-style:normal;font-variant:normal;font-weight:normal;font-stretch:normal;font-family:Michroma;-inkscape-font-specification:Michroma;letter-spacing:10px;fill:#ffffff">SPACE</tspan></text>
      </g>
    </g>
  </g>
  <g
     inkscape:groupmode="layer"
     id="layer3"
     inkscape:label="logo"
     style="display:inline" />
</svg>
